<?xml version="1.0" encoding="utf-8"?>
<!-- Generator: Adobe Illustrator 23.0.2, SVG Export Plug-In . SVG Version: 6.00 Build 0)  -->
<svg version="1.1" xmlns="http://www.w3.org/2000/svg" xmlns:xlink="http://www.w3.org/1999/xlink" x="0px" y="0px"
	 viewBox="0 0 709.97 653.29" style="enable-background:new 0 0 709.97 653.29;" xml:space="preserve">
<style type="text/css">
	.st0{fill:#347CE1;}
	.st1{fill:#45D62F;stroke:#031F43;stroke-width:2;stroke-linecap:round;stroke-linejoin:round;}
	.st2{fill:#F3B63F;}
	.st3{fill:#E72A8B;}
	.st4{fill:#FFFFFF;stroke:#031F43;stroke-width:2;stroke-linecap:round;stroke-linejoin:round;stroke-miterlimit:10;}
	.st5{fill:#031F43;}
	.st6{fill:none;stroke:#031F43;stroke-width:2;stroke-linecap:round;stroke-linejoin:round;stroke-miterlimit:10;}
	.st7{fill:#347CE1;stroke:#243C5B;stroke-width:2;stroke-linecap:round;stroke-linejoin:round;stroke-miterlimit:10;}
	.st8{fill:none;stroke:#FFFFFF;stroke-width:2;stroke-linecap:round;stroke-linejoin:round;}
	.st9{fill:#45D62F;}
	.st10{fill:#A7CCE9;}
	.st11{fill:#FFFFFF;}
</style>
<path class="st0" d="M468.31,487.63c0,0-7.46,1.38-13.27,0.92c-5.8-0.46-19.62-4.61-19.62-4.61s8.01,18.33,14.65,21.65
	c6.63,3.32,12.53-3.5,12.53-3.5L468.31,487.63z"/>
<g>
	<g>
		<path class="st1" d="M281.79,376.2c0,0,0.63,12.89,4.86,25.78c4.23,12.89,8.03,19.02,6.76,24.51c-1.27,5.49-3.17,11.2-3.38,15.42
			s0.85,9.72,2.32,10.56c1.48,0.85,11.88,2.83,23.95,2.64c12.07-0.19,42.48-0.6,42.48-0.6l9.18,0.8l-2.39-4.92
			c0,0,3.46,0.13,3.99,0.8c0.53,0.66,1.6,1.6,1.6,1.6s-1.46-6.25-3.06-7.45s-5.59-2.53-5.59-2.53s-3.99-4.52-7.31-4.39
			c-3.32,0.13-12.1,0.13-16.89-1.33c-4.79-1.46-23.54-3.86-23.54-3.86s11.44-11.3,19.02-17.69s17.02-18.35,19.95-28.86
			c2.93-10.51,6.92-30.72,6.92-30.72"/>
		<path class="st1" d="M411.04,247.94c0,0,8.48,6.72,13.32,5.06c4.84-1.65,8.81-9.69,8.81-9.69s-2.05-3.68,0.92-5.44
			s5.03-0.32,6.06,0.38c1.62,1.09,3.36,2.53,3.25,5.94c-0.11,3.41-3.08,2.75-3.63,2.53c-0.55-0.22-2.31,4.95-4.84,9.03
			c-2.53,4.07-4.95,7.93-10.13,9.03c-5.17,1.1-13.43,0.99-18.06-5.62"/>
		<path class="st2" d="M412.98,128.09c0,0,1.32-4.11,0.15-7.49c-1.18-3.38-3.08-7.05-3.08-7.05s-3.97,8.52-5.73,6.9
			s-5.29-8.67-5.29-8.67s-0.73,7.05-3.82,8.37c-3.08,1.32-6.32-1.91-8.81-3.97c-2.5-2.06-7.2-6.76-7.2-6.76s5.87,17.92,2.79,19.97
			c-3.08,2.06-8.67-0.15-8.67-0.15s4.55,6.02,0.73,8.08c-3.82,2.06-13.22-1.62-13.22-1.62s8.22,6.02,8.08,11.31
			c-0.15,5.29-3.08,7.78-4.41,6.02c-1.32-1.76-2.06-4.55-2.06-4.55s-2.64,2.94-4.41,0.29c-1.76-2.64-1.47-5.87-1.47-5.87
			s-1.32,5.58-6.32,3.38s-8.37-7.05-8.37-7.05s3.23,6.76,1.91,10.28c-1.32,3.52-3.97,5.58-3.97,5.58s2.2,0.73,2.2,3.52
			s-0.73,1.91-0.73,1.91s5.14,0.88,4.55,3.08s-0.73,4.99-6.02,4.7c-5.29-0.29-5.87-5.87-5.87-5.87s0,2.79-6.02,2.35
			c-6.02-0.44-9.84-1.32-9.84-1.32s3.52,4.41,0.44,6.17c-3.08,1.76-6.32,1.91-6.32,1.91s4.99,3.97,5.29,8.08
			c0.29,4.11-1.76,6.02-1.76,6.02s4.99,2.2,3.52,5.29c-1.47,3.08-5.14,1.91-5.14,1.91s1.76,2.94-2.64,4.7
			c-4.41,1.76-6.32-2.64-6.32-2.64s-2.5,3.82-6.02,2.79c-3.52-1.03-5.58-4.55-5.58-4.55s-1.91,2.35-5.29,0.15
			c-3.38-2.2-4.85-4.11-4.85-4.11s4.85,6.17,4.55,11.31c-0.29,5.14-2.64,6.76-2.64,6.76s2.06,2.64,2.06,6.02s-2.79,5.14-2.79,5.14
			s6.46,1.03,7.34,5.14c0.88,4.11-0.73,6.32-0.73,6.32s3.23,3.82,0.59,6.76c-2.64,2.94-6.02-0.44-6.02-0.44s0,5.43-3.82,5.43
			s-7.93-2.06-7.93-2.06s4.99,4.85,5.29,8.22c0.29,3.38-2.06,5.58-2.06,5.58s5.43,3.23,3.23,5.87c-2.2,2.64-4.85,1.32-4.85,1.32
			s1.91,5.43-2.2,5.43s-7.93-3.08-7.93-3.08s3.97,7.64,1.91,9.84c-2.06,2.2-3.97,0.59-3.97,0.59s0.15,5.29-4.11,5.29
			c-4.26,0-5.87-3.97-5.87-3.97s1.17,7.78-2.64,12.92c-3.82,5.14-6.17,1.91-6.17,1.91l-1.76-3.97c0,0-2.2,4.55-4.26,4.99
			c-2.06,0.44-6.02-3.38-6.02-3.38s-5.58,1.17-8.96-0.88c-3.38-2.06-3.52-7.05-3.52-7.05s-5.87,6.9-8.22,4.7
			c-2.35-2.2-0.44-12.92-0.44-12.92s-3.97,4.26-6.46,3.82s-4.41-1.47-4.41-1.47s1.47,3.23-1.91,2.5c-3.38-0.73-6.9-5.14-7.05-7.05
			c-0.15-1.91-1.17-4.7-1.17-4.7s-2.64,4.11-4.55,1.32c-1.91-2.79-1.47-4.99-1.47-4.99s-5.73,0.59-8.67-3.08
			c-2.94-3.67-4.7-8.96-4.7-8.96s-3.38,2.2-7.34,0.59c-3.97-1.62-4.99-5.43-4.99-5.43s-6.32-0.29-10.28-2.2
			c-3.97-1.91-5.29-3.82-5.29-3.82s-1.91,1.03-3.38-0.29c-1.47-1.32-4.11-1.17-4.99-2.64c-0.88-1.47-2.64-4.7-2.64-4.7
			s-0.59,3.67-3.82,3.23c-3.23-0.44-5.29-1.47-7.93-1.17s-11.9,3.52-11.9,3.52s60.51,27.02,74.91,39.36s45.24,30.99,72.12,27.02
			c26.88-3.97,47-27.61,59.63-48.03s28.93-55.22,41.12-68.74C368.47,171.56,412.98,128.09,412.98,128.09z"/>
		<path class="st3" d="M459.7,191.04c0,0,17.29,11.58,12.98,36.75c-4.1,23.93,12.29,42.36,12.29,42.36s-0.42-16.88,1.32-20.35
			c1.74-3.47,6.17,6.91,12.11,18.67s5.53,31.09,12.88,50.98c7.35,19.89,30.26,17.79,39,32.01c8.61,13.99,15.74,15.53,15.74,15.53
			l-4.15-13.55c0,0,10.4-2.88,30.85,18.23s20.48,32.91,31.92,42.91c8.51,7.45,14.74,9.96,20.35,12.1
			c3.16,1.2-26.97-23.04-21.63-49.41c3.96-19.55-5.11-52.94-17.05-59.55c-11.94-6.6-21.41-21.06-15.46-27.18
			c5.95-6.11,6.47-14.35-1.29-24.07c-7.77-9.72-37.52-15.37-41.46-25.78c-3.94-10.41,11.37-3.99,11.37-3.99s-9.01-31.79-38.22-36.3
			c-57.74-8.91-103.52-37.98-103.52-37.98l10.17,10.47L459.7,191.04z"/>
		<path class="st4" d="M458.97,192.16c0,0,1.35-2.17,1.48-3.99c0.13-1.82-0.26-3.08-0.26-3.08l-5.21,3.69L458.97,192.16z"/>
		<path class="st4" d="M453.3,188.82c0,0,1.02-2.34,0.89-4.16c-0.13-1.82-0.7-3.01-0.7-3.01l-4.63,4.39L453.3,188.82z"/>
		<path class="st4" d="M447.97,186.95c0,0,1.02-2.34,0.89-4.16c-0.13-1.82-0.7-3.01-0.7-3.01l-4.63,4.39L447.97,186.95z"/>
		<path class="st4" d="M443.5,185.69c0,0,1.02-2.34,0.89-4.16c-0.13-1.82-0.7-3.01-0.7-3.01l-4.63,4.39L443.5,185.69z"/>
		<path class="st4" d="M438.59,182.96c0,0,1.02-2.34,0.89-4.16c-0.13-1.82-0.7-3.01-0.7-3.01l-4.63,4.39L438.59,182.96z"/>
		<path class="st4" d="M431,163.26c0,0-1.1,2.3-1.04,4.13c0.07,1.83,0.59,3.03,0.59,3.03l4.78-4.23L431,163.26z"/>
		<path class="st4" d="M435.68,165.61c0,0-1.1,2.3-1.04,4.13c0.07,1.83,0.59,3.03,0.59,3.03l4.78-4.23L435.68,165.61z"/>
		<path class="st4" d="M441.31,167.44c0,0-1.1,2.3-1.04,4.13c0.07,1.83,0.59,3.03,0.59,3.03l4.78-4.23L441.31,167.44z"/>
		<path class="st4" d="M446.44,170.07c0,0-1.1,2.3-1.04,4.13c0.07,1.83,0.59,3.03,0.59,3.03l4.78-4.23L446.44,170.07z"/>
		<path class="st4" d="M451.91,172.3c0,0-1.1,2.3-1.04,4.13c0.07,1.83,0.59,3.03,0.59,3.03l4.78-4.23L451.91,172.3z"/>
		<path class="st4" d="M457.04,174.75c0,0-1.1,2.3-1.04,4.13c0.07,1.83,0.59,3.03,0.59,3.03l4.78-4.23L457.04,174.75z"/>
		<path class="st4" d="M462.22,176.25c0,0-1.1,2.3-1.04,4.13c0.07,1.83,0.59,3.03,0.59,3.03l4.78-4.23L462.22,176.25z"/>
		<g>
			<path class="st5" d="M470.79,410.86c0,0,2.55-0.52,6.19,0.39c3.65,0.91,5.35,0.14,6.5-0.56c2.11-1.29,2.93-4.04,1.19-8.08
				c-1.48-3.45-9.62-4.48-9.62-4.48l0.29,1.34c0,0-7.53-1.86-13.86,2.14c-6.32,4-6.42,14.04-6.42,14.04l1.95-0.28
				c0,0-0.46,5.86,1.86,8.56c2.32,2.7,2.88,2.79,2.88,2.79s-1.21-4.74,0.37-5.67c1.58-0.93,3.25,0.28,3.25,0.28l1.14-1.02
				c2.25-2.01,3.69-4.77,4.06-7.76L470.79,410.86z"/>
			<path class="st6" d="M483.44,409.62c0,0,0.43,16.21-0.94,18.6s-4.44,4.95-7.76,4.95s-6.4-2.05-6.4-2.05"/>
			<path class="st6" d="M472.11,415.48c0,0,2.24,0.54,2.71,1.16"/>
			<path class="st6" d="M481.78,415.33c0,0-2.24,0.54-2.71,1.16"/>
			<path class="st6" d="M476.68,420.8c0,0-0.24,2.43,0.84,2.8"/>
			<circle class="st5" cx="473.27" cy="419.55" r="0.92"/>
			<circle class="st5" cx="479.67" cy="419.55" r="0.92"/>
			<circle class="st6" cx="474.17" cy="427.38" r="1.78"/>
			<path class="st7" d="M464.2,427.98l-0.32,3.27c0,0-27.66,2.05-36.96,6.59c-9.31,4.54-28.03,26.9-28.03,26.9l7.04,9.65
				c0,0,13.39-14.19,19.86-18.04c6.47-3.86,14.19-5.79,14.19-5.79l-7.38,23.49l-19.75,6.92c0,0-2.04,1.93,0.91,6.13
				c2.95,4.2,6.01,4.54,6.01,4.54s16.57-13.16,23.38-22.36s17.02-28.03,19.18-33.82"/>
			<line class="st6" x1="432.59" y1="474.04" x2="443.15" y2="469.27"/>
			<path class="st6" d="M400.36,467.23c0,0-4.43,2.61-5.9,3.29c-1.48,0.68-3.29,2.5-3.29,2.5s-2.16-1.25-2.5,0.23
				c-0.34,1.48,0,3.06,2.27,6.01c2.27,2.95,4.54,3.86,7.04,3.4c2.5-0.45,3.63-4.2,4.65-6.13s1.7-4.2,1.7-4.2"/>
			<path class="st6" d="M463.88,431.24c0,0,3.33,5.46,6.05,5.35s5.74-2.4,5.74-2.4s-1.67,9.49-1.67,9.18s-4.07-6.05-4.07-6.05
				l-4.59,5.32l-4.28-11.06"/>
			<polyline class="st6" points="458.14,432.32 453.44,439.31 454.8,441.71 452.09,443.38 447.29,463.31 			"/>
			<path class="st6" d="M493.51,494.5c0,0-1.04,2.5-3.76,0.83c-2.71-1.67-9.81-5.53-14.09-6.89c-4.28-1.36-6.75-1.57-6.75-1.57"/>
			<path class="st7" d="M487.56,434.2c0,0,13.88,6.16,18.78,7.62c4.9,1.46,16.37,2.16,20.87,1.98c5.22-0.21,7.09,0.21,7.09,0.21
				l-3.76,12.42c0,0-21.7,1.36-27.44-0.1c-5.74-1.46-15.02-4.9-15.02-4.9"/>
			<path class="st6" d="M534.31,444.01c0,0,5.84-1.04,7.72-1.77s8.03-3.44,9.08-2.4"/>
			<path class="st6" d="M547.87,442.65c0,0,2.19,4.38,0.52,5.53s-1.88,0.21-2.5-0.31c-0.63-0.52-1.04-1.77-1.04-1.77l-2.5,1.57"/>
			<path class="st6" d="M532.43,451.73c0,0,6.78-0.73,8.03-0.21c1.25,0.52,3.13,0.63,3.13,0.63"/>
			<path class="st6" d="M549.02,443.28c0,0,3.55-3.76,4.28-2.3c0.73,1.46-0.21,5.74-2.61,8.56s-3.28,3.13-4.17,3.13
				c-1.77,0-3.44-2.82-1.98-4.59"/>
			<path class="st6" d="M551.26,458.28c0,0-5.41-1.17-7.24-6.65"/>
			<path class="st6" d="M559.13,440.37c0,0-2.96-2.69-7.2-0.42"/>
			<path class="st5" d="M574.54,478.5c0.96,0.59-7.76-1.9-15.82-5.27c-6.12-2.56-12.78-6.35-12.78-6.35s15.59-38.63,17.67-39.84
				c2.08-1.21,30.31,5.54,30.31,5.54l-1.21,10.57L574.54,478.5z"/>
			<path class="st8" d="M563.62,427.04c0,0,6.39,3.62,14.54,8.51c7.86,4.72,14.56,7.6,14.56,7.6"/>
			<path class="st6" d="M478.61,456.58c0,0-2.73,11.74-6.14,20.88c-3.41,9.14-6.41,13.24-7.1,15.01c-0.68,1.77-3,10.24-3,10.24"/>
			<path class="st7" d="M451.73,497.52c1.91,0.96,30.43,15.69,31.53,17.2c1.09,1.5,12.83,48.04,12.83,48.04l-12.15,8.05
				c0,0-4.5-10.37-7.78-18.29c-3.28-7.92-6.69-24.57-7.1-25.11s-4.5-0.55-11.33-3.55s-21.02-9.69-25.11-15.56
				c-4.09-5.87-1.77-16.51-0.55-18.29c1.23-1.77,3.82-6.41,3.55-7.1"/>
			<path class="st6" d="M436.24,483.02c0,0,10.18,5.54,19.74,5.27c9.56-0.27,12.94-1.41,12.94-1.41"/>
			<path class="st6" d="M434.28,486.68c0,0,8.49,5.45,18.49,5.99c10,0.54,12.61-0.19,12.61-0.19"/>
			<path class="st7" d="M456.32,523.51c0,0-4.59,15-6.12,16.69c-1.53,1.68-32.91,23.88-32.91,23.88s-5.66-3.83-7.04-6.43
				c-1.38-2.6-3.21-5.36-3.21-5.36s27.09-18.98,27.71-19.59c0.61-0.61,5.82-17.3,5.82-17.3L456.32,523.51z"/>
			<line class="st6" x1="484.56" y1="570.36" x2="486.93" y2="577.05"/>
			<line class="st6" x1="491.97" y1="565.69" x2="494.2" y2="570.72"/>
			<path class="st5" d="M485.13,577.56c0,0,3.49,0.08,5.83-1.22c3.89-2.16,4.68-6.76,4.68-6.76s13.67-5.32,15.25-4.89
				c1.58,0.43,4.53,3.17,4.53,3.17l-16.19,14.1l0.79,0.86l-7.92,5.68c0,0-2.59-2.16-4.68-5.32S485.13,577.56,485.13,577.56z"/>
			<line class="st6" x1="407.95" y1="553.98" x2="401.74" y2="557.42"/>
			<line class="st6" x1="413.35" y1="561.22" x2="408.47" y2="564.46"/>
			<path class="st5" d="M401.25,555.66c0,0,0.2,3.48,1.68,5.71c2.46,3.7,7.11,4.13,7.11,4.13s6.39,13.21,6.08,14.82
				c-0.31,1.61-2.8,4.77-2.8,4.77l-15.34-15.02l-0.8,0.86l-6.29-7.44c0,0,1.95-2.75,4.94-5.08
				C398.83,556.07,401.25,555.66,401.25,555.66z"/>
			<polygon class="st3" points="467.43,440.77 468.16,445.15 471.29,445.05 472.54,441.5 469.93,437.33 			"/>
			<path class="st3" d="M471.49,443.53c0,0-1.04,15.81-6.99,22.07c-3.41,3.59-9.7,6.36-14.82,5.53c-5.11-0.83-13.98-5.01-13.98-5.01
				s-2.71-9.49-2.3-9.29c0.42,0.21,10.02-2.5,10.02-2.5s9.81,6.78,14.71,7.3c4.9,0.52,10.02-16.49,10.02-16.49L471.49,443.53z"/>
			<path class="st7" d="M480.68,430.75l6.89,3.44c0,0,1.77,6.99,0.94,12.31c-0.83,5.32-2.71,11.16-2.3,16.28
				c0.42,5.11,7.3,33.39,7.3,31.72c0-1.67-6.57-20.03-10.85-28.8s-7.51-27.13-7.51-27.13l0.71-5.23L480.68,430.75z"/>
		</g>
		<path class="st9" d="M419.69,158.55c0,0,7.77,8.18,17.73,10.77c9.96,2.59,32.32,13.09,32.32,13.09s4.23-5.59,2.45-11.05
			c-1.77-5.46-6.96-12.14-9.82-18c-2.86-5.86-3.96-7.77-3.96-7.77s4.5-7.23,2.18-8.86c-2.32-1.64-5.59-0.68-6.55-2.32
			s-1.09-5.18-4.36-7.09s-6.82-1.09-8.73-2.32c-1.91-1.23-5.59-4.64-9-4.77c-3.41-0.14-10.91,1.64-14.59,4.23
			c-3.68,2.59-9.14,5.18-9.14,5.18s-13.81,7.85-18.14,10.64c-17.39,11.19-44.39,48.04-49.82,56.99
			c-3.16,5.21-9.34,18.64-16.29,29.71c-6.95,11.07-32.54,58.37-51.7,64.85s-45.67,4.13-70.39-11
			c-24.72-15.13-40.29-28.22-51.49-34.91c-11.2-6.69-23.71-11.64-37.23-10.62c-13.53,1.02-21.23,10.76-21.23,10.76
			s22.83-4.07,40,14.69c17.16,18.76,33.31,44.21,36.8,52.36c3.49,8.14,38.79,52.47,75.48,63.95c50.88,15.92,83.28,14.83,108.62,7.03
			c25.34-7.8,36.27-30.42,41.04-45.15c4.76-14.73,17.54-81,18.19-89.45c0.65-8.45,13-59.13,13-59.13s21.58,9.28,26.92,7.93
			c5.34-1.36,7.69-6.78,7.69-6.78s-1.99-4.16-10.67-7.24s-13.11-6.24-20.35-11.58c-7.24-5.34-10.13-7.6-10.76-10.13
			C417.26,160.03,419.69,158.55,419.69,158.55z"/>
		<path class="st1" d="M412.82,136.61c-0.26-0.09-5.76-11.09-9.26-10.13c-3.49,0.96-6.2,7.51-3.58,11.35
			c2.62,3.84,5.15,3.84,5.15,3.84"/>
		<path class="st1" d="M336.56,207.77c0,0-9.29-8.74-18.4-8.93c-9.11-0.18-16.39,6.74-16.39,6.74s-8.93,0.73-9.65,3.1
			c-0.73,2.37-0.36,9.84,5.46,11.29c5.83,1.46,8.56-8.38,8.56-8.38s9.07-6.14,14.17-2.86c5.1,3.28,12.6,12.33,12.6,12.33"/>
		<path class="st6" d="M291.95,212.08c0,0,3.5-0.91,4.8-1.68"/>
		<path class="st6" d="M293.7,215.68c0,0,3.5-0.91,4.8-1.68"/>
		<path class="st6" d="M295.69,218.14c0,0,3.5-0.91,4.8-1.68"/>
		<path class="st6" d="M425.07,190.36c0,0-15.87-8.72-22.14-15.62"/>
		<path class="st4" d="M432.36,141.67c0,0,2.09-2.91,8-0.36s4.72,4.45,4.72,4.45s-3.63,0.91-7.18,0.27
			C434.36,145.39,432.36,141.67,432.36,141.67z"/>
		<line class="st6" x1="439.36" y1="141.03" x2="437.36" y2="145.21"/>
		<g>
			<path class="st10" d="M292.31,453.95v28.29h-2.86v4.97h83.22v-4.21c0,0-0.75-17.31-2.41-22.42c-1.66-5.12-4.21-6.77-4.21-6.77
				L292.31,453.95z"/>
			<circle class="st5" cx="307.1" cy="486.3" r="3.31"/>
			<circle class="st5" cx="314.77" cy="486.3" r="3.31"/>
			<circle class="st5" cx="335.86" cy="486.3" r="3.31"/>
			<circle class="st5" cx="366.64" cy="487.09" r="3.31"/>
			<circle class="st5" cx="358.57" cy="487.09" r="3.31"/>
			<rect x="341.37" y="455.41" class="st5" width="8.56" height="29.12"/>
			<path class="st5" d="M352.93,455.94h13.32c0,0,2.21,1.85,3.18,5.47c0.97,3.62,0.88,5.03,0.88,5.03h-17.82L352.93,455.94z"/>
			<rect x="326.55" y="456.39" class="st5" width="12" height="12.09"/>
			<rect x="313.15" y="456.39" class="st5" width="7.24" height="12.09"/>
			<rect x="296.9" y="456.39" class="st5" width="12" height="12.09"/>
			<path class="st6" d="M325.53,488.17c0,0-4.34-19.93-0.48-36.25c3.86-16.32,7.42-18.55,7.42-18.55s-7.17,13.65-6.77,29.38
				c0.4,15.73,5.18,25.21,5.18,25.21"/>
			<path class="st6" d="M332.46,433.37c0,0-3.56-10.09,0.4-12.17s1.19,10.49,1.19,10.49s3.86-8.51,8.11-6.23
				c4.25,2.28-7.32,8.11-7.32,8.11s0.49,1.68,4.65,0.89c4.15-0.79,6.33-1.88,6.33-1.88"/>
		</g>
		<path class="st5" d="M136.12,365.75l2.72,0.52l-1.17,1.55l0.52,4.14l-2.46,2.98l4.62,1.11l2.89-2.4l2.07,1.55l-1.8,0.24
			l-2.99,2.35l-5.57-0.39l-1.94,3.37c0,0-1.29,5.83-2.59,5.83c-1.29,0,0.78-4.79,0.78-4.79s-1.68,0.78-2.33,0.39
			c-0.65-0.39,0.04-1.87,0.04-1.87s-4.68,1.42-5.09,0.71c-0.61-1.06,6.09-2.72,6.09-2.72l6.31-6.91L136.12,365.75z"/>
		<path class="st5" d="M99.89,377.59l2.49,1.66l-2.69,3.73l2.55,4.14l2.62-0.28l1.31-0.97c0,0,4.21-0.35,4.35,0.07
			c0.14,0.41,0.07,1.24-0.97,1.17c-1.04-0.07-2.97,0-2.97,0l-1.1,1.24l0.41,0.62c0,0,1.73,0.48,1.8,1.24s-0.9,1.17-1.38,1.1
			c-0.48-0.07-1.04-0.48-1.04-0.48s0.48,1.31,1.8,2.14s1.24,1.45,1.04,1.8c-0.21,0.35-1.04,0.48-3.18-1.1
			c-2.14-1.59-8.42-6.56-8.42-6.56l-2.69-0.62l-1.52-4.42l-2-1.24l3.59-0.41l1.45,3.94l3.18,0.83l-1.31-2.62l2.62-3.04L99.89,377.59
			z"/>
		<path class="st3" d="M465.32,252.37c0,0-1.39,13.64,4.43,20.66c11.26,13.59,12.49,26.08,12.49,26.08l-5.69-4.35
			c0,0,2.67,2.94,4.52,13.27c1.84,10.33,1.03,16.94,0.66,22.85s6.81,12.62,4.26,26.27c-0.01,0.05-0.02,0.11-0.03,0.17
			c-0.32,1.76-2.79,1.91-3.28,0.19c-2.05-7.17-5.53-15.46-11.08-18.8c-7.98-4.8-11.81-16.6-12.17-20.29s-2.94-0.56-2.95,5.53
			c-0.01,2.95,3.69,9.22,3.69,9.22s-8.34-5.13-10.79-12.71c-2.3-7.11-3.23-20.5,1.57-31.56c4.8-11.07,3.69-13.65,3.69-13.65
			l-6.27,2.95c0,0,4.46-12.02,4.83-19.76c0.37-7.75,4.82-24.21,6.72-31.79c3.28-13.11-2.33-25.55-2.33-25.55s8.55,7.85,9.21,25.88
			C467.05,234.22,465.32,252.37,465.32,252.37z"/>
		<line class="st6" x1="405.81" y1="589.35" x2="131.67" y2="541.62"/>
		<line class="st6" x1="383.08" y1="551.04" x2="234.22" y2="500.35"/>
		<path class="st1" d="M197.03,345.25c0,0-9.38,4.8-10.26,7.64c-0.87,2.84-1.31,10.04,3.93,25.31c5.24,15.28,13.09,32.3,13.75,37.1
			c0.65,4.8,0,10.04,0,10.04l3.93-6.11c0,0,1.31,5.02,0.65,7.64s-1.96,3.93-1.96,3.93s6.11-7.42,6.33-11.35
			c0.22-3.93-1.09-7.2-1.09-7.2l-3.06-40.59c0,0,23.79,15.71,38.84,19.2c15.06,3.49,42.36-1.21,57.53-18.54"/>
		<g>
			<path class="st10" d="M183.81,347.09l-27.18,7.86l-0.79-2.75l-4.77,1.38l23.11,79.94l4.05-1.17c0,0,16.42-5.53,20.87-8.54
				c4.46-3.01,5.33-5.93,5.33-5.93L183.81,347.09z"/>
			<circle class="st5" cx="156.83" cy="370.28" r="3.31"/>
			<circle class="st5" cx="158.97" cy="377.66" r="3.31"/>
			<circle class="st5" cx="164.82" cy="397.91" r="3.31"/>
			<circle class="st5" cx="172.61" cy="427.7" r="3.31"/>
			<circle class="st5" cx="170.37" cy="419.95" r="3.31"/>
			
				<rect x="178.95" y="388.23" transform="matrix(0.2778 0.9607 -0.9607 0.2778 519.2719 114.8926)" class="st5" width="8.56" height="29.12"/>
			<path class="st5" d="M198.73,405.88l3.7,12.8c0,0-1.17,2.63-4.37,4.57s-4.59,2.24-4.59,2.24l-4.95-17.12L198.73,405.88z"/>
			
				<rect x="180.79" y="382.1" transform="matrix(0.9607 -0.2778 0.2778 0.9607 -100.4448 67.1645)" class="st5" width="12.09" height="12"/>
			
				<rect x="176.41" y="369.32" transform="matrix(0.9607 -0.2778 0.2778 0.9607 -96.4072 65.3509)" class="st5" width="12.09" height="7.24"/>
			
				<rect x="172.56" y="353.62" transform="matrix(0.9607 -0.2778 0.2778 0.9607 -92.8588 63.757)" class="st5" width="12.09" height="12"/>
			<path class="st6" d="M160.16,388.51c0,0,17.94-9.71,34.69-10.54c16.75-0.83,19.88,1.98,19.88,1.98s-15.1-3.1-30.1,1.65
				c-15,4.75-22.78,11.98-22.78,11.98"/>
			<path class="st6" d="M214.73,379.95c0,0,8.7-6.22,11.8-3c3.09,3.22-9.74,4.05-9.74,4.05s9.24,1.34,8.24,6.06
				c-1,4.72-9.83-4.78-9.83-4.78s-1.48,0.94,0.44,4.71c1.91,3.77,3.56,5.56,3.56,5.56"/>
		</g>
	</g>
	<path class="st11" d="M480.19,204.5c0,0-3.12,14.56,3.72,25.33c5.24,8.25,28.31,17.88,32.03,26.07c3.72,8.19,0.4,18.81,3.63,34.05
		c1.76,8.31,12.01,22.57,12.01,22.57s-9.15-26.11-3.93-44.74c5.21-18.62-14.69-44.66-14.69-44.66l14.9,6.7
		c0,0-5.37-20.94-15.64-18.62C495.06,215.08,480.19,204.5,480.19,204.5z"/>
</g>
</svg>
