<?xml version="1.0" encoding="utf-8"?>
<!-- Generator: Adobe Illustrator 23.0.2, SVG Export Plug-In . SVG Version: 6.00 Build 0)  -->
<svg version="1.1" xmlns="http://www.w3.org/2000/svg" xmlns:xlink="http://www.w3.org/1999/xlink" x="0px" y="0px"
	 viewBox="0 0 709.97 653.29" style="enable-background:new 0 0 709.97 653.29;" xml:space="preserve">
<style type="text/css">
	.st0{fill:#FFFFFF;}
	.st1{fill:#A7CCE9;}
	.st2{fill:#F3B63F;stroke:#031F43;stroke-width:2;stroke-linecap:round;stroke-linejoin:round;stroke-miterlimit:10;}
	.st3{fill:none;stroke:#031F43;stroke-linecap:round;stroke-linejoin:round;stroke-miterlimit:10;}
	.st4{fill:#FFFFFF;stroke:#031F43;stroke-width:2;stroke-linecap:round;stroke-linejoin:round;stroke-miterlimit:10;}
	.st5{fill:#F3B63F;}
	.st6{fill:#031F43;}
	.st7{fill:none;stroke:#031F43;stroke-width:2;stroke-linecap:round;stroke-linejoin:round;stroke-miterlimit:10;}
	.st8{fill:#347CE1;}
	.st9{fill:none;stroke:#031F43;stroke-width:8;stroke-linecap:round;stroke-linejoin:round;stroke-miterlimit:10;}
	.st10{fill:none;stroke:#45D62F;stroke-width:14;stroke-linecap:round;stroke-linejoin:round;stroke-miterlimit:10;}
	.st11{fill:#347CE1;stroke:#031F43;stroke-width:2;stroke-linecap:round;stroke-linejoin:round;stroke-miterlimit:10;}
	.st12{fill:none;stroke:#031F43;stroke-width:12;stroke-linecap:round;stroke-linejoin:round;stroke-miterlimit:10;}
	.st13{fill:none;stroke:#031F43;stroke-width:4;stroke-linecap:round;stroke-linejoin:round;stroke-miterlimit:10;}
	.st14{fill:#E72A8B;}
</style>
<g>
	<path class="st0" d="M521.26,245.37c0.35,0,23.04,17.19,23.04,17.19s10.88,9.47,9.94,14.5c-0.94,5.03-14.5,9.42-17.02,6.81
		c-2.51-2.6-3.68-4.24-3.45-6.7c0.23-2.46,0.23-5.5,0.23-5.5l-11.81-9.36l-7.02-3.74L521.26,245.37z"/>
	<path class="st0" d="M454.46,152.02c0.1,0.29-0.1,3.72,2.06,6.76c2.16,3.04,3.72,3.92,3.72,3.92l-4.11,9.01
		c0,0,1.37,4.51,5.29,6.86c3.92,2.35,5.78,2.16,7.45,1.37c1.67-0.78,3.62-2.65,3.62-2.65s4.8,1.96,8.23,1.67
		c3.43-0.29,8.33-5.29,11.27-10.19c2.94-4.9,4.41-9.21,4.41-9.21s-10.52-3.71-16.59-4.3c-6.07-0.59-11.69-1.68-16.39-2.86
		S454.46,152.02,454.46,152.02z"/>
	<path class="st1" d="M527.91,250.88c0,0,0.11-3.99-0.96-4.98s-18.83-13.96-20.03-14.99c-1.2-1.02-6.86-8.94-9.65-14.06
		c-2.79-5.13-8.18-15.56-10.34-19.43c-2.16-3.87-9.17-13.31-12.77-17.09c-3.6-3.78-3.23-1.3-3.23-1.3l-6.13,1.31l-12.49-10.26
		l-10.34,37.69l1.26,36c0,0,4.67,7.01,6.9,7.42c2.23,0.41,5.87-4.75,7.49-6.73c1.62-1.98,8.08-4.67,8.08-4.67l0.36-3.02l-5.17-5.37
		l9.6-8.52c0,0,4.23,7.38,10.52,12.86c6.3,5.49,18.17,15.2,20.24,16.91s10.7,9.98,12.5,10.16c1.8,0.18,3.96-1.44,4.14-1.98
		s-1.68-2.53-1.68-2.53l3.16-5.67l5.4-3.95L527.91,250.88z"/>
	<path class="st2" d="M582.43,288.86c-1.05-0.01-1.64-1.24-1.01-2.08c2.6-3.5,7.58-9.64,10.42-9.6c3.97,0.05,1.91,10.46,1.91,10.46
		s-1.31,3.79-5.96,2.2C585.64,289.09,583.8,288.87,582.43,288.86z"/>
	<path class="st3" d="M593,288.43c0,0,3.52-9.18-0.36-11.23c-3.88-2.05-11.22,9.58-11.22,9.58"/>
	<path class="st4" d="M558.85,290.28c0,0-5.3-5.08-20.68-1.62c-15.39,3.46-19.65,13.48-20.71,15.95c-1.06,2.47,0.45,17.7,0.45,17.7
		l38.68,2.25L558.85,290.28z"/>
	<path class="st4" d="M592.02,312.68c0,0,3.19-3.24,4.01-8.4c0.48-3.04,1.71-21.05-17.42-23.31c-15.14-1.79-22.3,8.45-24.24,17.08
		c-1.29,5.73,0.92,12.97,0.92,13.03c0.23,2.39,20.54,8.26,24.6,9.03C583.95,320.89,592.02,312.68,592.02,312.68z"/>
	<path class="st5" d="M593.09,290.99c0,0-1.75,4.44-8.98,4.1s-10.31-1.72-16.13,1.36c-9.1,4.81-12.24,0.34-12.24,0.34
		s3.23-13.76,17.61-15.01c8.71-0.76,13.82,2.83,15.05,3.74C591.71,287.97,593.09,290.99,593.09,290.99z"/>
	<path class="st6" d="M582.96,307.01l-1.68-2.33c-0.34-0.5,0.02-1.18,0.63-1.17l2.38,0.02c0.66,0.01,0.99,0.8,0.53,1.27
		L582.96,307.01z"/>
	<path class="st7" d="M566.77,300.67c0,0,6.05-0.57,8.76,2.09"/>
	<path class="st7" d="M570.1,304.72c0,0,3.28-0.83,5.88,0.76"/>
	<path class="st7" d="M598.69,301.18c0,0-5.82-0.56-9.55,2.03"/>
	<path class="st7" d="M594.51,304.68c0,0-2.82-0.45-5.48,0.85"/>
	<path class="st7" d="M577.2,285.12c0,0,2.35,1.96,2.63,5.1"/>
	<path class="st7" d="M581.1,284.88c0,0,2.01,2.31,1.78,5.46"/>
	<path class="st7" d="M585.3,285.01c0,0,1.67,2.57,1,5.65"/>
	<path class="st2" d="M563.41,291.74c-0.93,0.49-2.03-0.3-1.88-1.35c0.62-4.31,2.07-12.09,4.59-13.41c3.52-1.85,6.66,8.28,6.66,8.28
		s0.65,3.96-4.19,4.78C566.33,290.42,564.62,291.1,563.41,291.74z"/>
	<path class="st7" d="M572.5,286.33c0,0-1.27-9.75-5.67-9.71c-4.39,0.04-5.31,13.77-5.31,13.77"/>
	<path class="st7" d="M567.29,281.28c0,0-1.78,2.32-2.01,5.97"/>
	
		<ellipse transform="matrix(0.9988 -0.0495 0.0495 0.9988 -14.5977 29.2083)" class="st7" cx="582.88" cy="309.56" rx="2.19" ry="2.3"/>
	<path class="st7" d="M576.82,297.48c0,0,1.67-2.18,3.3-0.14"/>
	<path class="st7" d="M585.61,297.16c0,0,1.66-2,3.22-0.13"/>
	<circle class="st6" cx="578.54" cy="300.95" r="1.19"/>
	<circle class="st6" cx="587.01" cy="300.6" r="1.19"/>
	<g>
		<line class="st7" x1="470.65" y1="364.55" x2="502.22" y2="527.29"/>
		<line class="st7" x1="417.74" y1="399.55" x2="555.14" y2="492.3"/>
		<line class="st7" x1="405.07" y1="461.71" x2="567.81" y2="430.14"/>
		<line class="st7" x1="418.82" y1="493.87" x2="554.05" y2="397.98"/>
		<line class="st7" x1="440.06" y1="514.62" x2="532.81" y2="377.22"/>
		<line class="st7" x1="463.4" y1="525.55" x2="509.47" y2="366.3"/>
		<line class="st7" x1="528.27" y1="517.48" x2="444.6" y2="374.36"/>
		<line class="st7" x1="567.69" y1="462.33" x2="405.19" y2="429.52"/>
	</g>
	<g>
		<polyline class="st4" points="478.62,391.26 487.89,375.15 496.25,391.19 498.47,405.2 491.1,410.94 478.62,391.26 		"/>
		<g>
			<path class="st5" d="M520.71,362.69c0,0-3.18,0.24-6.06,0.51c-2.88,0.28-5.97,6.77-11.31,16.13c-5.33,9.36-9.4,10.25-9.4,10.25
				s2.34,8.55,0.16,15.8c-1.46,4.84-4.45,7.76-4.45,7.76s2.57,4.61,5.83,7.09c2.87,2.19,5.21,4.07,5.21,4.07s9.56-8.45,15.22-27.74
				C522.58,373.82,520.71,362.69,520.71,362.69z"/>
			<path class="st5" d="M521.72,360.64c-0.83-0.03-1.53,0.7-1.64,1.69c-0.52,4.7-2.32,18.21-6.88,31.79
				c-5.65,16.83-13.66,31.65-13.66,31.65l4.09,2.52c0,0,5.5-7.59,13.46-31.3c7.9-23.53,7.81-36.24,7.81-36.24L521.72,360.64z"/>
			<path class="st7" d="M498.51,387.41c0,0,0.31,4.23,4.06,9.39"/>
			<path class="st7" d="M501.9,382.51c0,0,0.31,4.23,4.06,9.39"/>
			<path class="st7" d="M505.35,376.84c0,0,0.31,4.23,4.06,9.39"/>
		</g>
		<path class="st8" d="M414.32,248.29c0,0,36.45,44.3,38.97,49.18c2.52,4.87,40.78,68.51,40.78,68.51s-2.06,2.85-7.31,13.72
			c-5.64,11.67-13.92,17.67-13.92,17.67l-44.59-69.04c0,0-48.85-39.94-59.38-61.36C356.22,241.28,414.32,248.29,414.32,248.29z"/>
	</g>
	<line class="st9" x1="500.27" y1="329.12" x2="370.57" y2="410.05"/>
	<circle class="st9" cx="486.82" cy="445.03" r="83.23"/>
	<path class="st10" d="M580.96,451.67c0,0,4.32-59.97-47.39-87.67c-71.08-38.07-118.03,21.07-118.03,21.07"/>
	<circle class="st9" cx="486.82" cy="445.03" r="5.68"/>
	<circle class="st9" cx="249.89" cy="348.01" r="83.23"/>
	<path class="st10" d="M342.54,352.57c0,0,2.98-58.27-45.9-85.58c-67.63-37.8-117.85,19.84-117.85,19.84"/>
	<line class="st9" x1="508.69" y1="266.72" x2="486.82" y2="439.35"/>
	<path class="st9" d="M504.23,299.39c0,0-27.97,29.28-60.01,45.2c-39.2,19.47-82.42,9.5-82.42,9.5"/>
	<polyline class="st9" points="358.3,402.59 362.77,284.01 252.3,341.44 	"/>
	<line class="st9" x1="362.6" y1="283.53" x2="310.62" y2="252.85"/>
	<circle class="st9" cx="355.98" cy="419.85" r="17.03"/>
	<path class="st6" d="M537.47,285.5c0,0-2.49,1.22-4.38,1.66c-1.89,0.44-3.25,2.9-2.11,5.03c1.14,2.13,4.2,1.94,7.3,1.06
		c1.92-0.54,5.69-2.95,5.69-2.95l-3.46-2.68L537.47,285.5z"/>
	<g id="XMLID_147_">
		<g>
			<path class="st6" d="M420.5,139.75c-0.28,0.1-4.46,1.57-8.35-1.31c-7.75-5.76-3.97-17.86-3.97-17.86s5.91,6.49,13.01,3.19
				c7.1-3.3,17.36-10.45,33.27-3.84c8.28,3.44,9.95,2.51,19.28,1.54c9.34-0.97,14.69,5.46,14.69,5.46s5.34-0.48,10.59,6.94
				s3.63,11.31,3.63,11.31s-39.93,1.73-46.97,4.43c-2.16,0.83-1.66,5.26-0.32,7.73c1.56,2.89,4.8,4.74,4.8,4.74
				s-1.73,6.11-2.97,6.57c-4.07,1.53-10.49-3.53-16.75-11.02c-2.65-3.17-5.91-2.69-9.47-1.89c-4.46,1.01-7.51-1.81-8.33-2.29
				c-0.13-0.07,1.39,0.07,2.6-0.18c0.96-0.2,1.69-0.82,1.58-0.83c-2.9-0.29-4.48-0.36-8.02-1.27c-7.56-1.93-6.28-10.73-6.28-10.73
				s2.37,1.61,4.57,1.2C419.35,141.2,420.4,139.89,420.5,139.75z"/>
			<path class="st6" d="M499.68,164.68c0.48,2.37,1.3,4.33,1.3,4.33s-0.87,4.58-6.02,4.62c-2.98,0.02-5.22-1.1-5.22-1.1
				s3.1-4.33,4.17-7.12c1.06-2.79,1.95-5.63,1.95-5.63S499.19,162.31,499.68,164.68z"/>
		</g>
		<g>
		</g>
	</g>
	<path class="st7" d="M472.01,178.59c0,0,13.17,12.19,19.71,27.17c6.54,14.98,13.08,23.09,15.2,25.17s7.73,5.84,13.61,10.08
		c5.6,4.03,7.17,5.61,7.17,5.61s0.54,2.78,0.22,4.28"/>
	<path class="st7" d="M512.75,261.89c0,0-29.38-23.04-34.81-29.02c-5.43-5.98-7.44-9.43-7.44-9.43"/>
	<path class="st7" d="M475.03,218.7c0,0-8.88,8.17-11.23,10.06s-2.93,2.65-2.93,2.65"/>
	<path class="st4" d="M554.65,270.23c0,0,3.38,3.93,2.09,8.84c-1.32,5.03-5.04,9.54-9.28,11.02c-3.59,1.25-6.76-0.98-8.01-2.08
		c-0.9-0.8-2.55-2.69-2.23-4.14c0.17-0.79,0.8-1.18,0.8-1.18s0.37-1.92,1.22-2.74s1.54-0.56,1.54-0.56s0.26-1.74,1.2-2.39
		s3.44-0.61,4.06,0.18c0.62,0.79,1.58,2.18,2.91,2.66c1.39,0.5,2.42,0.46,2.42,0.46"/>
	<path class="st7" d="M547.15,285.06c0,0-2.7-0.74-4.31-2.47c-1.61-1.73-2.05-3.19-2.05-3.19"/>
	<path class="st7" d="M543.09,286.83c0,0-1.71-0.67-3-1.81s-2.07-2.32-2.07-2.32"/>
	<path class="st7" d="M534.39,273.71c0,0-1.17,1.85-0.32,4.63c0.85,2.78,3.12,4.74,3.12,4.74"/>
	<path class="st6" d="M549.25,273.04c0,0-1.63-3.84-2.11-4.82c-0.48-0.98-1.42-1.44-1.42-1.44s-2.01,4.35-8.67,6.18
		c-6.65,1.83-18.17-0.4-29.82-3.73c-11.65-3.33-20.63-5.52-20.63-5.52s-5.68,10.49-10.28,13.4s-6.03,3.06-7.81,0.99
		c-1.78-2.07,1.12-7.35,4.36-10.74s-0.88-17.35-0.88-17.35s-0.33-5.93,5.06-7.79s14.05-3.25,16.39-0.5s2.08,5.34,1.43,8.14
		c-0.64,2.8-1.55,6.6-1.55,6.6s26.67,8.73,35.29,7.53s11.18-4.45,15.55-6.47c4.37-2.02,11.1,0.63,11.58,5.97
		c0.48,5.34-0.69,10.51-0.69,10.51s-1.22,0.55-2.96,0.2S549.25,273.04,549.25,273.04z"/>
	<path class="st4" d="M548.87,272.86c0,0-1.49,3.43-3.27,3.55c-2.83,0.19-3.61-0.15-4-1.03c-0.39-0.87,0.29-3.98,0.53-4.88
		c0.24-0.91,1.75-4.66,3.44-4.53C548.36,266.18,548.87,272.86,548.87,272.86z"/>
	<path class="st7" d="M482.12,250.18c0,0,1.02-2.9-1.66-4.31"/>
	<path class="st7" d="M539.9,259.36l-15.44-10.86c0,0-3.67,1.85-5.73,4.73c-1.45,2.02-2.64,5.35-2.64,5.35l8.25,4.87"/>
	<path class="st7" d="M518.26,260c0,0-0.41,2.33-2.64,3.17"/>
	<g>
		<polyline class="st4" points="430.36,435.78 442.44,425.61 447.87,437.9 448.33,452.09 440.31,456.86 430.36,435.78 		"/>
		<g>
			<path class="st5" d="M478.99,418.37c0,0-3.13-0.74-5.98-1.35c-2.85-0.61-7.19,4.74-14.29,12.18s-11.22,7.06-11.22,7.06
				s0.49,8.98-3.12,15.34c-2.41,4.24-5.92,6.15-5.92,6.15s1.53,5.24,4.17,8.63c2.33,2.99,4.2,5.53,4.2,5.53s11.01-5.27,20.49-22.22
				C478.5,429.7,478.99,418.37,478.99,418.37z"/>
			<path class="st5" d="M480.67,417.14c-0.79-0.28-1.63,0.21-1.94,1.14c-1.48,4.39-6.02,16.92-13.25,28.68
				c-8.96,14.57-19.79,26.48-19.79,26.48l3.44,3.69c0,0,6.89-5.68,19.52-26.21c12.53-20.37,15.07-32.71,15.07-32.71L480.67,417.14z"
				/>
			<path class="st7" d="M452.73,435.9c0,0-0.57,4.19,1.99,10.32"/>
			<path class="st7" d="M457.03,432.19c0,0-0.57,4.19,1.99,10.32"/>
			<path class="st7" d="M461.54,427.74c0,0-0.57,4.19,1.99,10.32"/>
		</g>
		<path class="st11" d="M403.53,242.37c0,0,24.2,84.61,25.63,90.09c1.43,5.48,25.3,82.27,25.3,82.27s-2.58,2.13-9.92,11.06
			c-7.87,9.58-17.14,12.88-17.14,12.88l-28.85-80.38c0,0-38.45-54.33-43.64-78.46C344.66,232.21,403.53,242.37,403.53,242.37z"/>
	</g>
	<path class="st1" d="M443.21,243.78c0,0-2.53,2.49-2.96,4.43c-0.43,1.94-0.47,4.91-1.44,6.42c-0.96,1.51-2.77,3.45-2.78,4.11
		c-0.01,3.39-2.92,11.75-2.92,11.75s-15.96-2.64-26.44,6.84c-11.86,10.73-31.03-2.11-48.31-3.33
		c-20.62-1.46-20.25-22.07-20.25-22.07s15.03-6.97,20.57-12.86c10.07-10.71,19.15-24.79,24.69-31.95
		c5.54-7.16,16.77-21.02,28.52-30.55c11.75-9.54,24.93-10.89,30.9-10.27c5.97,0.62,12.85,2.15,12.85,2.15"/>
	<path class="st7" d="M389.24,266.84c0,0-9.71-5.71-20.52-4.05c-10.81,1.66-12.28,2.28-16.69,0.61"/>
	<path class="st7" d="M435.43,262.71c0,0,0.67-2.79-4.88-7.03c-5.55-4.23-11.02-5.33-11.02-5.33"/>
	<path class="st7" d="M429.19,247.8c0,0-4.79-3.16-10.49-5.5c-5.7-2.34-7.04-2.01-7.4-3.23s7.09-3.8,11.98-3.37s6.73,1.05,6.73,1.05
		"/>
	<path class="st7" d="M435.86,177.27c0,0,4.39,6.77,7.06,16.37c2.66,9.6,7.74,23.37,8.1,23.83c0.36,0.46,1.99,3.94,3.98,7.39
		s10.35,10.44,10.81,11.9c0.46,1.46-0.22,3.1-0.22,3.1"/>
	<path class="st4" d="M453.43,247.46l15.85,11.59c0,0-1.32,5.45,2.83,11.08c4.15,5.64,12.92,6.13,16.17,4.04
		c1.68-1.07,3.91-5.28,5.16-7.79c0.61-1.22,1.56-4.07,0.54-5.18c-1.69-1.85-12.86-7.32-12.86-7.32l0.99-3.69c0,0-2.2-1.3-3.92-1.19
		c-1.72,0.1-3.07,1.44-3.07,1.44l-11.57-12.28c0,0-3.59,0.67-6.34,2.68S453.43,247.46,453.43,247.46z"/>
	<path class="st7" d="M493.29,265.79c0,0-5.17-1.03-9.44-4.11"/>
	<path class="st7" d="M491.59,269.55c0,0-5.17-1.03-9.44-4.11"/>
	<path class="st7" d="M489.33,273c0,0-5.17-1.03-9.44-4.11"/>
	<line class="st9" x1="358" y1="401.52" x2="255.29" y2="343.56"/>
	<line class="st9" x1="341.55" y1="429.8" x2="248.39" y2="354.25"/>
	<g>
		<line class="st9" x1="361.36" y1="454.12" x2="356.09" y2="418.01"/>
		<line class="st12" x1="372.39" y1="454.38" x2="363.08" y2="455.12"/>
	</g>
	<g>
		<line class="st7" x1="233.61" y1="266.03" x2="265.18" y2="428.77"/>
		<line class="st7" x1="180.7" y1="301.02" x2="318.1" y2="393.77"/>
		<line class="st7" x1="168.03" y1="363.18" x2="330.77" y2="331.61"/>
		<line class="st7" x1="179.26" y1="391.56" x2="249.53" y2="347.31"/>
		<line class="st7" x1="203.02" y1="416.1" x2="295.77" y2="278.7"/>
		<line class="st7" x1="226.36" y1="427.02" x2="272.43" y2="267.77"/>
		<line class="st7" x1="291.23" y1="418.96" x2="207.56" y2="275.84"/>
		<line class="st7" x1="330.65" y1="363.8" x2="168.15" y2="330.99"/>
	</g>
	<circle class="st9" cx="249.89" cy="348.01" r="5.68"/>
	<path class="st13" d="M239.33,231.26c-8.84-2.95-49.33,1.1-67.23,27.81"/>
	<path class="st13" d="M589.03,483.31c0,0,9.27-22.42,6.36-41.98"/>
	<path class="st13" d="M434.45,98.39c0.73-0.24-15.76-9.61-36.94-8.44"/>
	<g>
		<path class="st14" d="M495.47,594.25c29.49,11.08,54.94-24.71,34.08-48.31c-0.39-0.44-3.84-5.62-4.17-6.1
			c-4.58-6.67-7.09-13.69-8.41-18.51c-0.33-1.21-2.09-1.09-2.26,0.16c-0.68,5.18-1.31,12.31-0.33,16.15
			c0.99,3.86,0.17,7.17-2.56,6.04c-2.73-1.13-14.29-4.97-15.57-21.42c-0.53-6.87-8.22-17.17-13.51-23.5
			c-1.06-1.26-3.08-0.16-2.59,1.42c1.66,5.36,3.55,12.53,3.35,16.83c-0.33,7.53,0.4,17.63-6.5,19.9c-6.9,2.27-6.76,10.21-10.72,10.5
			c-3.95,0.29-17.18-11.55-17.95-22.1c-0.77-10.54-0.98-25.54-8.9-37.33c-3.73-5.55-7.4-11.68-10.25-16.63
			c-0.94-1.63-3.42-0.79-3.19,1.08c0.58,4.8,0.49,9.74-1.88,11.36c-5.05,3.46-12.91-13.54-10.06-23.02
			c1.64-5.47,0.67-14.44-0.44-21.07c-0.32-1.92-3.01-2.14-3.63-0.3c-1.99,5.94-5.94,13.81-13.61,18.9
			c-12.12,8.03-12.62,16.94-13.85,30.28c-1.24,13.34,0.99,24.3,0.99,24.3s-6.04-1.08-9.74-8.44c-2.33-4.63-4.03-13.56-4.97-19.56
			c-0.26-1.64-2.52-1.87-3.11-0.32c-1.54,4.04-3.61,9.81-5.41,15.89c-2.93,9.88,1.8,18.32,6.73,25.46
			c4.94,7.15,20.79,17.03,36.02,19.89c15.22,2.87,29.62,14.86,40.04,22.25C457.96,578.64,477.36,587.44,495.47,594.25z"/>
		<path class="st0" d="M443.24,559.68c0,0-10.4-26.16-9.09-33.11c1.31-6.95,0.19-27.23-1.31-30.8c-1.5-3.57-3.19-8.08-3.19-8.08
			s1.5,10.71-3.94,22.16s-5.45,15.78-5.45,15.78s-2.82-3.76-3.76-10.89s-3.94-15.4-3.94-15.4s-3.19,15.96-5.26,21.98
			c-2.07,6.01,0.19,13.71,0.19,13.71s-3.71-1.98-5.45-6.01c-0.61-1.42-1.31-5.82-1.31-5.82s-2.25,8.83,2.07,14.09
			s13.15,7.7,20.85,10.33C431.34,550.23,443.24,559.68,443.24,559.68z"/>
		<path class="st0" d="M493.72,587.2c-2.59-1.09-6.84-3.02-9.1-6.83s-2.27-12.52-2.27-12.52s3.1,2.86,3.58,5.13
			c0.48,2.27,3.22,4.89,3.22,4.89s0.83-4.41-0.48-8.59c-1.31-4.17,2.15-11.09,2.15-11.09s-0.6,6.56,0.95,9.42s5.61,5.84,6.32,9.78
			c0.72,3.94,4.82,12.03,4.82,12.03S498.04,589.01,493.72,587.2z"/>
	</g>
	<g>
		<path class="st14" d="M300.55,465.79c7.46-7.65,3.13-21.75-2.96-30.09c-6.09-8.33-20.4-20-24.04-25c-2.91-4-4.89-9.24-6.06-13.02
			c-0.34-1.12-1.96-0.98-2.11,0.18c-0.65,5-1.24,12.53,0.16,17.33c2.24,7.69,1.19,9.57,1.19,9.57s-1.73,2.75-3.81-2.93
			c-0.95-2.58-2.13-3.96-3.24-4.67c-1.24-0.8-2.89,0.28-2.7,1.74c0.21,1.57,0.06,4.01-1.38,7.52c-2.88,7.05-3.65,14.2-3.65,14.2
			l-3.07-7.02c-0.37-0.84-1.53-0.91-1.99-0.11c-1.7,2.99-4.51,9.28-2.83,15.9c3.22,12.7,13.28,17.6,27.51,20.79
			C278.94,471.82,293.25,473.27,300.55,465.79z"/>
		<path class="st0" d="M287.08,468.21c-2.63,0.21-8.02-1.78-8.19-6.64c-0.22-6.2,4.32-15.89,3.79-21.35
			c-1-10.33-5.56-18.74-5.56-18.74s7.05,6.88,9.06,14.18c1.55,5.65,3.61,10.59,3.61,10.59s5.06-11.16,4.57-8.91
			c-0.24,1.12-1.12,4.41,1.61,9.87c2.86,5.72,2.81,10.84-0.08,15.89C294.54,465.46,290.66,467.93,287.08,468.21z"/>
	</g>
	<g>
		<polygon class="st1" points="515.76,300.67 594.65,317.39 570.38,356.46 508.49,342.61 		"/>
		<line class="st7" x1="589.28" y1="325.33" x2="514.57" y2="309.6"/>
		<line class="st7" x1="584.49" y1="333.14" x2="512.98" y2="318.16"/>
		<line class="st7" x1="579.66" y1="341.05" x2="511.42" y2="326.42"/>
		<line class="st7" x1="574.87" y1="348.99" x2="509.9" y2="334.58"/>
		<line class="st7" x1="541.25" y1="306.47" x2="529.53" y2="347.17"/>
		<line class="st7" x1="567.26" y1="311.52" x2="551.15" y2="351.89"/>
	</g>
	<g>
		<g id="XMLID_146_">
			<g>
				<path class="st0" d="M573.58,318.8c0.19,0.77,0.9,1.57,2.04,1.38c1.44-0.24,3.31-1.88,3.84-4.18c0.53-2.31,0-5.76-5.76-6.82
					c-5.77-1.06-9.8,2.06-10.38,4.8c-0.57,2.74,0.63,4.52,2.88,4.28c0.8-0.09,1.46-0.51,1.97-1.03l0.07,0.07c0,0-0.51,1.95,1.6,2.77
					c2.12,0.81,3.62-1.24,3.62-1.24L573.58,318.8z"/>
			</g>
			<g>
				<path class="st7" d="M569.57,315.09c0,0-0.46,1.22-1.4,2.14c-0.51,0.52-1.17,0.94-1.97,1.03c-2.25,0.24-3.45-1.54-2.88-4.28
					c0.58-2.74,4.61-5.86,10.38-4.8c5.76,1.06,6.29,4.51,5.76,6.82c-0.53,2.3-2.4,3.94-3.84,4.18c-1.14,0.19-1.85-0.61-2.04-1.38
					c-0.05-0.2-0.06-0.41-0.03-0.59c0.15-0.87,0.72-2.07,0.72-2.07"/>
				<path class="st7" d="M568.24,317.3c0,0-0.51,1.95,1.6,2.77c2.12,0.81,3.62-1.24,3.62-1.24"/>
			</g>
		</g>
	</g>
	<g>
		<g id="XMLID_145_">
			<g>
				<path class="st0" d="M593.32,322.61c0.19,0.77,0.9,1.57,2.04,1.38c1.44-0.24,3.31-1.88,3.84-4.18c0.53-2.31,0-5.76-5.76-6.82
					c-5.77-1.06-9.8,2.06-10.38,4.8c-0.57,2.74,0.63,4.52,2.88,4.28c0.8-0.09,1.46-0.51,1.97-1.03l0.07,0.07c0,0-0.51,1.95,1.6,2.77
					c2.12,0.81,3.62-1.24,3.62-1.24L593.32,322.61z"/>
			</g>
			<g>
				<path class="st7" d="M589.31,318.9c0,0-0.46,1.22-1.4,2.14c-0.51,0.52-1.17,0.94-1.97,1.03c-2.25,0.24-3.45-1.54-2.88-4.28
					c0.58-2.74,4.61-5.86,10.38-4.8c5.76,1.06,6.29,4.51,5.76,6.82c-0.53,2.3-2.4,3.94-3.84,4.18c-1.14,0.19-1.85-0.61-2.04-1.38
					c-0.05-0.2-0.06-0.41-0.03-0.59c0.15-0.87,0.72-2.07,0.72-2.07"/>
				<path class="st7" d="M587.98,321.11c0,0-0.51,1.95,1.6,2.77c2.12,0.81,3.62-1.24,3.62-1.24"/>
			</g>
		</g>
	</g>
	<path class="st5" d="M499.84,171.28c0,0,2.74-10.78-7.95-12.88c-11.58-2.27-18.43-0.04-30.07-3.95
		c-7.68-2.58-13.45-5.21-20.43-12.44c-6.97-7.23-17.99-19.62-28.2-24.31c-4.57-2.1-8.16-2.79-8.16-2.79l9.11-15.48
		c0,0,14.14,3.44,25.38,14.19c9.86,9.43,15.02,18.03,22.01,22.93s19.49,5.5,28.99,5.38c10.87-0.13,15.37,5.82,15.37,5.82
		s-1.97,7.99-2.35,12.04C502.76,168.28,499.84,171.28,499.84,171.28z"/>
	<path class="st7" d="M496,160.32c0,0-5.64,16.55-14.04,18.23c-9.07,1.81-16.86-7.86-16.86-7.86"/>
	<path class="st7" d="M472.46,177.07l-0.32,0.56c-1.47,2.6-5.8,3.96-10.8,0.78c-6-3.83-5.34-7.36-5.34-7.36l4.36-8.72
		c0,0-3.63-2.2-4.9-4.76c-1.26-2.56-1.02-6.03-1.02-6.03"/>
	<path class="st7" d="M453.43,247.46c0,0-1.89,4.48-3.52,3.57c-1.63-0.91-6.18-6.54-9.81-11.44c-2.23-3.01-14.05-17.5-17.8-25.07
		c-4.04-8.16-6.55-13.16-6.55-13.16"/>
	<ellipse transform="matrix(0.2585 -0.966 0.966 0.2585 197.533 594.6158)" class="st7" cx="486.1" cy="168.64" rx="2.55" ry="2"/>
	<path class="st7" d="M490.54,158.26c0,0,0.35,2.32,0.6,3.39c0.17,0.7-0.58,0.97-1.96,0.88"/>
</g>
</svg>
