<?xml version="1.0" encoding="utf-8"?>
<!-- Generator: Adobe Illustrator 23.0.2, SVG Export Plug-In . SVG Version: 6.00 Build 0)  -->
<svg version="1.1" xmlns="http://www.w3.org/2000/svg" xmlns:xlink="http://www.w3.org/1999/xlink" x="0px" y="0px"
	 viewBox="0 0 709.97 653.29" style="enable-background:new 0 0 709.97 653.29;" xml:space="preserve">
<style type="text/css">
	.st0{fill:#FFFFFF;}
	.st1{fill:#FFFFFF;stroke:#031F43;stroke-width:2;stroke-linecap:round;stroke-linejoin:round;stroke-miterlimit:10;}
	.st2{fill:#031F43;}
	.st3{fill:none;stroke:#031F43;stroke-width:2;stroke-linecap:round;stroke-linejoin:round;stroke-miterlimit:10;}
	.st4{fill:#F3B63F;}
	.st5{fill:#F3B63F;stroke:#031F43;stroke-width:2;stroke-linecap:round;stroke-linejoin:round;stroke-miterlimit:10;}
	.st6{fill:#E62C8B;}
	.st7{fill:#45D62F;stroke:#031F43;stroke-width:2;stroke-linecap:round;stroke-linejoin:round;}
	.st8{fill:#A7CCE9;stroke:#031F43;stroke-width:2;stroke-linecap:round;stroke-linejoin:round;stroke-miterlimit:10;}
</style>
<g>
	<path class="st0" d="M262.55,318.99c0,0-0.42-10.54,4.85-17.28c5.27-6.74,10.01-11.76,12.14-12.7s5.2-1.54,6.74-3.9
		c1.54-2.36,4.49-6.38,7.45-6.74c2.95-0.35,9.81-1.54,9.81-1.54l4.96-5.08v-2.72c0,0-3.07,0.24-4.25-0.71
		c-1.18-0.95-4.85-10.28-3.9-13s4.73-4.37,4.73-4.37s6.38-19.38,15.01-23.04s36.28,3.31,36.28,3.31s2.01,20.56,2.13,20.21
		s6.5-1.77,6.5-1.77s0,11.23-2.48,12.76c-2.48,1.54-3.78,1.77-3.78,1.77s1.06,6.15-0.47,11.46c-1.54,5.32-5.2,10.75-5.2,10.75
		s19.38,6.97,23.28,10.75s17.49,21.74,21.86,30.96c4.37,9.22,5.67,13.35,8.39,15.48c2.72,2.13,6.62,4.73,7.8,5.91
		s2.84,3.78,4.61,7.92c1.77,4.14,10.64,14.77,10.64,14.77l-43.37,3.66c0,0-10.99-7.68-13.94-10.87s-4.14-5.32-4.14-5.32l-6.38,16.19
		c0,0,51.88-0.95,59.09-1.77c7.21-0.83,19.03-2.84,24.23-3.66c5.2-0.83,30.96-6.38,34.27-5.32c3.31,1.06,11.23,4.85,13.47,7.56
		c2.25,2.72,5.67,11.11,3.9,15.48c-1.77,4.37-9.45,8.04-10.87,8.39c-1.42,0.35-7.33,2.13-8.74,2.48c-1.42,0.35-4.25,1.3-6.26,0.24
		c-2.01-1.06-4.61-2.84-4.61-2.84s-4.37-1.18-7.68-2.13s-15.72-1.77-17.96-1.89s-12.53,2.72-12.53,2.72s2.25,4.02,1.65,5.67
		s-6.97,9.45-6.97,9.45l-7.09-0.71l-2.25,2.95l-7.21-2.01l-2.95,1.65l-4.96-0.71c0,0-48.92-9.69-56.84-17.02
		s-64.41-44.08-64.41-44.08L262.55,318.99z"/>
	<g>
		<path class="st1" d="M365.85,418.43l-87.04,26.13l19.87,10.86l75.81,11.78l77.84-31.28l-0.18-3.5
			C452.15,432.42,366.03,419.54,365.85,418.43z"/>
		<polygon class="st2" points="370.62,454.58 432.99,433.04 368.96,423.02 307.19,443.66 		"/>
		<path class="st2" d="M270.1,261.69c-0.47-5.51,0.98-10.98,4.22-15.46c4.47-6.18,9.69-15.53,8.93-24.7
			c-0.59-7.12-6.83-17.35-5.35-23.21c1.48-5.86,7.2-18.25-1.91-26.94c-7.6-7.25-13.06-6.61-21.08-10.7
			c-6.83-3.48-18.52-11.19-32.62-5.27c-12.49,5.25-13.11,14.95-20.24,19.49c-7.12,4.53-15.2,7.88-18.04,24.36
			c-2.9,16.84,5.77,23.74-3.47,32.47s-32.3-0.75-37.18,27.42c-3.73,21.53,11.2,25.64,16.33,30.15c5.13,4.51,77.18,16.29,89.58,8.79
			C268.65,286.37,270.9,271.01,270.1,261.69z"/>
		<polygon class="st1" points="214.21,226.46 196.32,255.99 221.74,308.94 247.89,251.42 		"/>
		<path class="st1" d="M275.16,200.55c0,0-2.87,34.15-15.27,49.22c-10.95,13.3-20.18,11.91-29.97,1.31
			c-8.03-8.69-16.31-22.64-16.31-22.64s-9.58-4.55-6.52-12.17c3.05-7.62,10.96-2,10.96-2s8.34,1.06,8.44-12.64
			c0.08-10.09,8.83-23.61,29.58-19.79C276.82,185.67,275.16,200.55,275.16,200.55z"/>
		<path class="st3" d="M260.39,237.58c0,0-4.07,0.15-8.4-1.85s-7.51-4.37-7.51-4.37s-1.84,8.12,3.69,11.27
			C255,246.52,260.39,237.58,260.39,237.58z"/>
		<path class="st3" d="M261.24,207.72c0.05,0.34-1.54,8.72,0.82,15.67c0.54,1.6-0.17,3.69-2.6,3.84c-3.45,0.21-4.74-1.76-4.74-1.76"
			/>
		<path class="st4" d="M240.19,283.78l-13.07,33.97c0,0-20.32-19.28-30.42-35.91c-10.1-16.62-23.68-25.04-23.68-25.04
			s-29.71,15.11-42.75,38.58s-12.8,48.35-17.84,72.29c-3.52,16.74-4.67,44.34-5.14,54.1c-0.73,15.17,0.74,31.58,1.58,38.52
			c0.75,6.22,5.09,13.7,8.83,16.61c3.75,2.91,27.79,7.36,30.91,6.94c3.12-0.42,19.1-11.77,19.77-17.03
			c1.69-13.27-18.71-23.38-10.59-26.5s15.4-3.49,15.4-3.49s38.1,6.85,54.37,2.61c16.27-4.24,2.25-8.92,2.25-8.92l25.8-54.41
			c0,0,27.77,22.59,29.89,26.12c2.12,3.53,5.65,10.36,8,10.83c2.35,0.47,4.71,4,8.71,5.41c4,1.41,7.06-3.06,7.06-3.06
			s-2.35-18.36,6.59-25.89c8.94-7.53,25-5.16,25-5.16s0-4.06-2.95-5.9c-2.95-1.85-16.98-5.04-18.57-5.29
			c-1.6-0.25-1.85-1.72-3.69-3.81c-1.85-2.09-7.5-5.17-10.82-7.01s-3.81-0.86-5.04-1.85c-1.23-0.98-4.55-8.49-9.96-13.9
			c-5.41-5.41-12.92-15.75-19.44-27.06c-6.52-11.32-9.47-14.02-11.93-16.61c-2.46-2.58-11.19-13.53-13.78-15.99
			S240.19,283.78,240.19,283.78z"/>
		<path class="st3" d="M175.86,431.47c0,0-8.79-11.24-28.47-11.71c-11.72-0.28-23.39,4.98-23.39,4.98"/>
		<path class="st1" d="M311.54,441.94c0,0,17.67,12.07,22.53,11.78c4.86-0.29,6.04-2.36,6.04-3.98c0-1.62-20.61-18.4-22.67-19.43
			c-2.06-1.03-28.71-8.39-31.51-8.39c-2.8,0-45.49,1.62-52.41,2.36s-55.06,7.36-57.71,7.36c-2.65,0-11.84-2.22-20.08,2.03
			c-5.24,2.7-11.89,14.24-15.4,26.97c-1.4,5.07-1.33,7.21,1.03,11.48c2.36,4.27,4.27,6.18,4.27,6.18s22.56-4.05,32.9-6.7
			c13.22-3.38,50.68-19.1,54.65-18.66c3.98,0.44,8.06,4.88,18.01,5.04c6.96,0.11,21.05,4.86,25.03,4.12
			c3.98-0.74,12.37-2.94,12.37-2.94s4.12,2.36,9.28,1.18c5.15-1.18,6.33-7.07,6.33-7.07s6.92,9.72,10.45,10.16
			c3.53,0.44,6.33-2.65,5.59-5.74C319.49,454.6,311.54,441.94,311.54,441.94z"/>
		<path class="st3" d="M311.54,441.94c0-0.74-8.39-10.16-10.75-11.48c-2.36-1.33-20.91-3.24-20.91-3.24"/>
		<path class="st3" d="M304.18,453.28c0,0-5.45-6.77-12.66-10.45c-7.21-3.68-17.08-5.89-17.08-5.89"/>
		<path class="st3" d="M288.57,459.17c0,0-13.1-7.95-17.08-9.57s-7.21-3.39-7.21-3.39"/>
		<path class="st3" d="M255.61,376.09c0,0,1.94-10.47,2.62-20.98c0.68-10.51,0-19.83,0-19.83"/>
		<path class="st1" d="M340.45,383.69c0,0,16.28,9.26,20.25,10.79c3.97,1.53,5.5,1.22,7.33-0.51c1.83-1.73,11.81-4.68,13.74-5.19
			s6.21-1.02,7.73,0.41c1.53,1.42,3.46,5.29,3.46,5.29s2.54-0.61,4.07,2.85c1.53,3.46,2.75,8.85,2.85,10.69s-1.83,6.62-1.83,6.62
			s-0.41,5.09-2.14,8.04c-1.73,2.95-5.29,5.19-6.82,5.39c-1.53,0.2-17.1-0.61-17.91-1.73c-0.81-1.12-1.12-3.77-1.12-3.77
			s-3.56-0.71-4.48-1.63c-0.92-0.92-2.95-1.83-2.95-1.83l-54.24-5.9c0,0-6-13.13,2.75-23.31
			C319.89,379.72,340.45,383.69,340.45,383.69z"/>
		<path class="st3" d="M378.21,425.42c0,0,4.68-0.1,9.46-3.05c4.78-2.95,10.38-7.73,10.38-7.73"/>
		<path class="st3" d="M416.45,409.47c0,0,2.08,0.56,3.89,0.83c1.81,0.28,2.36,0.56,3.61-0.56c1.25-1.11,4.73-5.98,5.28-7.51
			c0.56-1.53-0.69-7.51-2.36-7.78c-1.67-0.28-4.03-1.25-4.03-1.25s-2.92-2.78-4.73-2.92c-1.81-0.14-3.89,0-3.89,0
			s-2.64-3.2-5.28-3.2c-2.64,0-4.59,0.83-4.59,0.83s-2.36-2.5-5.28-1.67c-2.92,0.83-7.09,5.14-7.09,5.14"/>
		<path class="st3" d="M419.23,398.63c0,0-3.47,13.34-5.14,13.62c-1.67,0.28-6.39-1.67-6.39-1.67"/>
		<path class="st3" d="M411.03,394.32c0,0-2.08,2.64-2.22,5.28c-0.14,2.64-1.53,11.95-3.2,12.37c-1.67,0.42-5.56-0.42-5.56-0.42"/>
		<path class="st3" d="M401.99,391.12c0,0-3.34,5.28-3.2,9.31"/>
		<path class="st3" d="M428.04,395.49c0,0,9.63-3.36,14.18-2.81s10.28,0.97,12.45,0.97c2.16,0,6.6,2.6,9.63,2.71
			c3.03,0.11,3.03,0.11,3.03,0.11s2.92,3.36,6.49,3.46c3.57,0.11,6.49-2.27,6.49-2.27s4.87,0.11,7.04-1.52
			c2.16-1.62,1.73-5.09,1.73-5.09s4.11-1.41,5.09-3.03s0.54-4.98,0.54-4.98s1.62-6.6,0.76-8.12s-13.42-9.42-16.99-9.52
			c-3.57-0.11-17.43,3.46-25.11,4.44c-7.68,0.97-21.43,2.49-33.55,4.11c-12.12,1.62-44.59,2.6-53.03,2.49
			c-8.44-0.11-13.64-1.84-13.64-1.84"/>
		<path class="st3" d="M483.04,373.19c-0.2-0.49,10.97,7.61,11.47,9.19"/>
		<path class="st3" d="M479.14,380.59c-0.13-0.52,9.88,8.98,10.16,10.62"/>
		<path class="st3" d="M474.74,388.41c-0.13-0.52,6.08,7.18,6.37,8.82"/>
		<path class="st3" d="M361.58,375.27c0,0,4.4-7.03,7.91-17.58c3.52-10.55,6.33-23.38,6.33-23.38"/>
		<path class="st3" d="M306.91,275.35c0,0,2.18,10.29,10.29,22.29c8.11,12,10.29,15.12,10.6,18.86c0.31,3.74-0.47,5.61,0.47,7.01
			c0.94,1.4,2.03,10.6,2.03,14.65c0,4.05-0.31,9.35-0.31,9.35"/>
		<path class="st3" d="M307.85,318.68c0,0,9.98,13.09,11.85,16.83c1.87,3.74,6.39,8.88,14.81,15.9s8.88,8.88,10.91,11.22
			c2.03,2.34,5.77,4.68,7.01,6.55s2.81,3.27,2.81,3.27s-4.36,3.43-6.08,5.46s-6.08,7.48-6.08,7.48"/>
		<path class="st3" d="M342.91,301.99c0,0-11.21,32.67-11.77,39.84"/>
		<path class="st3" d="M308.46,272.88c0,0-6.99,7.23-7.84,10.04s-2.25,6.75-2.39,7.87c-0.14,1.12,4.78,6.61,10.27,13.22
			s8.86,14.34,9.56,15.89c0.7,1.55,1.97-2.81,4.22-3.94c2.25-1.12,5.52,0.54,5.52,0.54"/>
		<path class="st3" d="M303.86,276.79c0,0-11.67,1.35-14.63,5.28s-5.91,5.62-9.28,7.17c-3.37,1.55-15.47,14.2-15.47,19.27"/>
		<path class="st3" d="M353.92,286.99c0,0,11.11,4.22,17.02,6.61c5.91,2.39,11.81,9.28,16.45,17.3c4.64,8.02,8.86,15.19,11.67,19.55
			c2.81,4.36,3.94,6.61,6.05,11.11c2.11,4.5,5.2,6.19,8.02,7.73c2.81,1.55,4.22,4.64,7.17,10.41s9.7,12.94,9.7,12.94"/>
		<path class="st3" d="M368.68,360.26c0,0,1.83,4.08,6.61,7.87s9,8.3,9,8.3"/>
		<path class="st3" d="M348.96,293.04c0,0,3.92,17.64,2.01,20.18c-1.91,2.54-7.15,3.66-8.9,9.22s-11.73,24.42-11.73,24.42"/>
		<path class="st2" d="M302.96,252.66c0,0,4.08,6.12,7.44,5.76c3.36-0.36,5.52-6.96,6.36-10.91c0.84-3.96,0-11.51,14.27-9.84
			c14.27,1.68,21.36,2.04,26.17-1.13c5.68-3.75,4.43-11.01,2.98-15.66c-1.36-4.38-9-14.15-9.36-13.91c-0.36,0.24-4.2,6-9.84,7.08
			c-5.64,1.08-29.03,1.44-34.66,8.52c-5.64,7.08-4.68,14.15-4.32,18.71S302.96,252.66,302.96,252.66z"/>
		<path class="st3" d="M324.57,255.1c0,0,11.15,0.1,21.31-1.09s19.24-4.04,19.24-4.04s-0.3,10.95-3.65,13.32s-7.89,1.97-10.55,0.69
			s-4.73-8.19-6.71-8.19s-0.2,4.44-4.64,8.58c-4.44,4.14-9.35,4.57-12.43,2.07C322.4,262.59,324.57,255.1,324.57,255.1z"/>
		<line class="st3" x1="324.57" y1="255.1" x2="306.92" y2="251.35"/>
		<circle class="st3" cx="333.45" cy="259.93" r="1.58"/>
		<circle class="st3" cx="355.15" cy="257.37" r="1.58"/>
		<line class="st3" x1="326.84" y1="252.34" x2="336.02" y2="251.45"/>
		<path class="st3" d="M347.95,251.15c0,0,2.96-2.96,7.2-1.68"/>
		<path class="st3" d="M345.98,262.2c0,0,0.3,4.04,1.38,6.41s1.87,3.95,1.87,3.95s-1.78,1.28-4.93,1.09"/>
		<path class="st3" d="M335.13,280.35c0,0,2.47,0.49,6.21,0.1c3.75-0.39,6.51-2.17,6.51-2.17s0.99,5.03-3.45,6.21
			C339.96,285.68,335.13,280.35,335.13,280.35z"/>
		<path class="st3" d="M357.51,232.05c0,0,2.25,31.23,1.06,39.83c-1.19,8.6-6.22,21.7-15.48,23.56c-9.26,1.85-16.67-2.78-21.57-9"/>
		<path class="st3" d="M305.11,252.83c0,0-4.1-1.19-4.63,2.25c-0.53,3.44,1.72,12.84,4.37,13.9c2.65,1.06,3.97,0,3.97,0l1.06,14.69"
			/>
		<line class="st3" x1="344.41" y1="295.57" x2="342.16" y2="313.84"/>
		<path class="st5" d="M227.12,317.75c0,0-1.42-9.61-1.7-14.96c-0.28-5.35-0.17-4.76-0.17-4.76l-26.14-45.31l4.78-7.03l-14.88-3.04
			l-16.01,14.15c0,0,12.47,19.62,25.99,33.76S227.12,317.75,227.12,317.75z"/>
		<line class="st3" x1="237.9" y1="273.88" x2="240.19" y2="283.78"/>
		<line class="st3" x1="213.15" y1="229.48" x2="203.9" y2="245.69"/>
		<polygon class="st5" points="227.12,317.75 225.42,299.29 241.71,265.56 244.67,286.92 		"/>
		<g>
			<path class="st6" d="M239.7,197.79c0,0-3.61,3.21-1.59,8.48c1.85,4.82,4.81,6.65,9.23,6.73c5.7,0.11,8.29-2.25,10.01-5.82
				c1.61-3.34-0.9-9.04-0.9-9.04s-0.3,1.56-1.38,1.68c-2.01,0.24-0.99-3.24-0.98-5.06c0.01-2.3-2.08-4.27-3.85-5.93
				s-3.3-2.48-3.3-2.48s1.06,4.78,0.23,6.15c-0.92,1.52-2.12-0.28-2.12-0.28s-1.91,2.41-2.04,4.39s0.12,4.05-1.5,4.28
				S239.7,197.79,239.7,197.79z"/>
			<path class="st4" d="M246.97,212.64c-0.49-0.03-0.95-0.23-1.31-0.56c-0.61-0.57-1.56-1.63-2.19-3.2
				c-0.98-2.47,0.18-5.05,0.18-5.05s0.61,0.96,1.11-0.06s0.56-4.57,1.78-6.29c1.22-1.71,2.65-2.4,2.65-2.4s-1.27,4.48,0.33,7.12
				c1.61,2.64,2.38,2.25,2.56,4.87c0.19,2.78-2.83,5-3.55,5.38C248.14,212.66,247.48,212.67,246.97,212.64z"/>
			<path class="st0" d="M247.68,202.86c0,0,0.8,1.29,1.74,3.19c0.94,1.9,0.35,4.89-1.61,5.37s-2.73-2.61-2.56-3.5
				c0.17-0.9,0.41-1.64,0.41-1.64l0.58,1.14c0,0,0.15,0.23,0.33-1.57C246.75,204.04,247.68,202.86,247.68,202.86z"/>
		</g>
		<g>
			<path class="st6" d="M262.96,199.55c0,0-3.61,3.21-1.59,8.48c1.85,4.82,4.81,6.65,9.23,6.73c5.7,0.11,8.29-2.25,10.01-5.82
				c1.61-3.34-0.9-9.04-0.9-9.04s-0.3,1.56-1.38,1.68c-2.01,0.24-0.99-3.24-0.98-5.06c0.01-2.3-2.08-4.27-3.85-5.93
				c-1.77-1.66-3.3-2.48-3.3-2.48s1.06,4.78,0.23,6.15c-0.92,1.52-2.12-0.28-2.12-0.28s-1.91,2.41-2.04,4.39
				c-0.13,1.98,0.12,4.05-1.5,4.28S262.96,199.55,262.96,199.55z"/>
			<path class="st4" d="M270.23,214.4c-0.49-0.03-0.95-0.23-1.31-0.56c-0.61-0.57-1.56-1.63-2.19-3.2
				c-0.98-2.47,0.18-5.05,0.18-5.05s0.61,0.96,1.11-0.06c0.49-1.02,0.56-4.57,1.78-6.29c1.22-1.71,2.65-2.4,2.65-2.4
				s-1.27,4.48,0.33,7.12c1.61,2.64,2.38,2.25,2.56,4.87c0.19,2.78-2.83,5-3.55,5.38C271.4,214.42,270.74,214.43,270.23,214.4z"/>
			<path class="st0" d="M270.94,204.62c0,0,0.8,1.29,1.74,3.19c0.94,1.9,0.35,4.89-1.61,5.37c-1.96,0.49-2.73-2.61-2.56-3.5
				c0.17-0.9,0.41-1.64,0.41-1.64l0.58,1.14c0,0,0.15,0.23,0.33-1.57C270.02,205.8,270.94,204.62,270.94,204.62z"/>
		</g>
		<line class="st3" x1="156.73" y1="419.48" x2="165.06" y2="369.91"/>
		<polygon class="st0" points="214.71,227.51 211.46,234.71 223.23,247.49 228.18,241.83 		"/>
		<path class="st7" d="M372,436.42l-0.86-6.56l10.55-56.02c0,0,1.25-1.17,3.36-0.78s2.19,1.09,2.19,1.09l-10.31,56.73L372,436.42z"
			/>
		<path class="st1" d="M369.43,398.94l0.94,3.28c0,0,6.21,4.07,6.21,6.92c0,2.85-1.22,5.09-3.46,5.5c-2.24,0.41-6-1.12-9.06-3.26
			c-3.05-2.14-5.5-4.38-5.9-5.5"/>
		<path class="st1" d="M383.05,398.53l1.36,3.58c0,0-7.12,7.43-8.14,11.3c-1.02,3.87,0,6,1.22,6.82s2.95,1.42,3.66,0.71
			s13.13-13.43,14.15-14.96c1.02-1.53,2.24-6.92,2.24-6.92"/>
		<path class="st3" d="M319.34,373.15c0,0-14.03,0.83-22.31,11.18"/>
		<path class="st8" d="M543.89,281.49c0,0,66.65,173.76,66.65,179.58c0,5.82-74.1,18.44-83.16,15.53s-53.71-21.67-53.71-28.15
			c0-2.91,54.08-0.65,91.89-0.65c11.32,0,19.74,0,20.06-0.97c0.32-0.97-39.48-110.66-39.48-110.66L543.89,281.49z"/>
		<polygon class="st8" points="487.52,209.59 489.57,400.2 541.35,453.8 547.41,452.59 544.99,142.51 539.54,141 		"/>
		<line class="st8" x1="541.35" y1="453.8" x2="539.54" y2="141"/>
		<polygon class="st2" points="537.65,403.58 493.36,372.94 490.85,213.6 535.43,156.49 		"/>
	</g>
</g>
</svg>
