<?xml version="1.0" encoding="utf-8"?>
<!-- Generator: Adobe Illustrator 23.0.2, SVG Export Plug-In . SVG Version: 6.00 Build 0)  -->
<svg version="1.1" xmlns="http://www.w3.org/2000/svg" xmlns:xlink="http://www.w3.org/1999/xlink" x="0px" y="0px"
	 viewBox="0 0 709.97 653.29" style="enable-background:new 0 0 709.97 653.29;" xml:space="preserve">
<style type="text/css">
	.st0{fill:#45D62F;}
	.st1{fill:#031F43;}
	.st2{fill:#FFFFFF;}
	.st3{fill:#A7CCE9;}
	.st4{fill:#E72A8B;}
	.st5{fill:none;stroke:#031F43;stroke-width:2;stroke-linecap:round;stroke-linejoin:round;stroke-miterlimit:10;}
	.st6{fill:#347CE1;}
	.st7{fill:#F3B63F;}
</style>
<g id="Layer_1">
	<g>
		<g>
			<g>
				<path class="st0" d="M314.39,487.96c-3.26-0.61-6.72-0.9-10.29-0.81c-19.44,0.48-34.92,11.85-34.59,25.41
					c0.04,1.82,0.38,3.59,0.97,5.29c4.76-2.48,11.51-5.35,12.61-2.37c1.23,3.34-4.36,7.88-7.66,10.21
					c6.43,6.63,17.45,10.85,29.88,10.55c0.82-0.02,1.63-0.07,2.44-0.13c-2.7-3.5-7.56-10.27-5.77-11.58
					c1.86-1.37,10.33,6.48,14.19,10.24c4.39-1.11,8.39-2.8,11.79-4.94c-4.31-2.14-10.83-5.87-9.82-8.47
					c1.05-2.72,12.82-2.11,19.55-1.52c1.49-2.81,2.28-5.85,2.2-9.01c-0.07-2.71-0.77-5.29-1.99-7.7c-5.48,2.14-17.7,6.69-18.91,5.28
					c-1.23-1.43,9.42-8.63,14.03-11.64c-2.49-2.32-5.55-4.31-9.05-5.86c-4.41,4.07-14.41,12.95-16.41,11.69
					C305.69,501.4,311.28,492.57,314.39,487.96z M297.39,497.41c-1.37,3.91-3.51,6.72-4.77,6.28c-1.26-0.44-1.18-3.97,0.2-7.88
					c1.37-3.91,3.51-6.72,4.77-6.28C298.85,489.97,298.76,493.5,297.39,497.41z"/>
			</g>
			<g>
				<g>
					<path class="st1" d="M270.22,507.72c-16.01-1.07-32.03-3.53-47.89-5.81c-26.18-3.77-52.34-8.17-78.06-14.34
						c-12.71-3.05-25.41-6.49-37.56-11.36c-1.49-0.6-2.14,1.82-0.66,2.41c23.24,9.31,48.34,14.23,72.87,18.75
						c23.68,4.36,47.53,7.88,71.43,10.76c6.6,0.79,13.23,1.66,19.87,2.1C271.83,510.33,271.82,507.83,270.22,507.72L270.22,507.72z"
						/>
				</g>
			</g>
			<g>
				<g>
					<path class="st2" d="M269.76,510.12c18.18,3.01,36.56,4.43,54.97,4.82c1.29,0.03,1.29-1.98,0-2
						c-18.23-0.38-36.44-1.76-54.44-4.75C269.04,507.98,268.49,509.91,269.76,510.12L269.76,510.12z"/>
				</g>
			</g>
			<g>
				<g>
					<path class="st2" d="M296.42,525.37c-0.82-6.14-4.05-11.36-9.23-14.78c-1.08-0.71-2.08,1.02-1.01,1.73
						c4.53,2.99,7.51,7.67,8.23,13.05C294.58,526.63,296.59,526.65,296.42,525.37L296.42,525.37z"/>
				</g>
			</g>
			<g>
				<g>
					<path class="st2" d="M301.83,513.66c5.4-1.48,10.22-4.12,14.41-7.83c0.97-0.86-0.45-2.27-1.42-1.42
						c-3.94,3.5-8.45,5.92-13.52,7.32C300.05,512.07,300.58,514,301.83,513.66L301.83,513.66z"/>
				</g>
			</g>
		</g>
		<g>
			<g>
				<path class="st3" d="M165.68,501.4c2.59-9.72,5.33-20.07,7.92-29.79c0.06-0.24,0.13-0.51,0.01-0.74
					c-0.12-0.22-0.49-0.3-0.61-0.08l-0.06-0.52c-3.36,0.28-6.96-0.52-9.16-3.07c-1.85-2.14-2.78-4.92-4.41-7.23
					c-1.65-2.33-3.96-4.13-6.42-5.58c-4.77-2.82-10.13-4.45-15.44-6.04c-5.04-1.51-10.09-3-15.15-4.46c0,0-20.12-3.83-19.86,3.21
					c0.1,2.7-9.45,42.27-9.45,42.27c2.02,4.79,3.85,6.96,10.33,8.97c3.65,1.13,8.82,2.15,12.55,2.98c2.43,0.54,4.85,1.08,7.28,1.62
					c6.73,1.49,13.57,3,20.45,2.61c1.76-0.1,3.56-0.34,5.1-1.18c1.25-0.69,2.27-1.73,3.43-2.56c3.76-2.66,8.66-2.32,13.44-0.25
					L165.68,501.4z"/>
			</g>
		</g>
		<g>
			<g>
				<path class="st4" d="M245.65,545.58c0.21-0.07-1.68-2.57-3.89-6.96c-2.4-4.74-3.52-9.2-0.43-10.13
					c1.78-0.53,11.19,8.06,15.43,12.14c2.05-1.75,3.69-3.87,4.79-6.34c1.29-2.89,1.72-6,1.43-9.17c-6.45-2.05-17.54-5.99-17.47-8.91
					c0.07-2.79,7.52-3.73,12.32-4.04c-2.32-3.28-5.36-6.38-8.99-9.09c-5.01,1.98-15.84,5.98-17.04,4c-1.15-1.9,5.94-6.29,9.78-8.48
					c-0.72-0.36-1.45-0.72-2.2-1.05c-11.35-5.05-23.15-5.39-31.64-1.74c2.15,3.42,5.56,9.76,3.14,12.37
					c-2.16,2.33-7.29-2.92-10.73-7.03c-1.19,1.34-2.18,2.84-2.92,4.51c-4.15,9.33,0.55,20.73,10.63,29.34
					c1.65,1.41,1.23-9.83,8.23-6.35c6.56,3.26,3.19,13.7,3.32,13.76C226.95,545.6,238.42,547.93,245.65,545.58z"/>
			</g>
			<g>
				<g>
					<path class="st1" d="M196.36,506.58c-32.2-12.04-62.7-26.74-93.03-42.85c-1.42-0.75-2.68,1.4-1.26,2.16
						c30.52,16.21,61.23,30.99,93.63,43.1C197.2,509.55,197.85,507.14,196.36,506.58L196.36,506.58z"/>
				</g>
			</g>
			<g>
				<g>
					<path class="st2" d="M252.08,528.07c-17.15-10.13-37.21-12.56-54.99-21.03c-1.16-0.55-2.18,1.18-1.01,1.73
						c17.79,8.47,37.84,10.91,54.99,21.03C252.18,530.46,253.19,528.73,252.08,528.07L252.08,528.07z"/>
				</g>
			</g>
			<g>
				<g>
					<path class="st2" d="M222.41,517.74c6.88-0.29,13.19-2.74,19.45-5.43c1.18-0.51,0.16-2.23-1.01-1.73
						c-5.94,2.55-11.91,4.88-18.44,5.16C221.13,515.79,221.12,517.79,222.41,517.74L222.41,517.74z"/>
				</g>
			</g>
			<g>
				<g>
					<path class="st2" d="M209.42,525.12c1.97-5.82-0.87-13.17-6.6-15.62c-1.17-0.5-2.19,1.22-1.01,1.73
						c4.95,2.12,7.39,8.3,5.68,13.36C207.07,525.81,209.01,526.34,209.42,525.12L209.42,525.12z"/>
				</g>
			</g>
		</g>
	</g>
</g>
<g id="cup">
	<g>
		<g>
			
				<ellipse transform="matrix(0.2343 -0.9722 0.9722 0.2343 -88.9971 771.5829)" class="st5" cx="445.3" cy="442.29" rx="13.62" ry="4.01"/>
			<path class="st5" d="M442.11,455.53c0,0,6.41,2.39,12.19,2.15s8.2-1.46,8.2-1.46s4.21-3.89,5.47-9.14
				c1.45-6.03-0.93-9.71-0.93-9.71s-4.19-3.63-8.38-5.94s-10.17-2.37-10.17-2.37"/>
			<path class="st5" d="M454.37,429.57c0,0-2.25-2.18,0.18-6.17c2.43-3.99,9.15,2.04,10.46,5.46c1.3,3.42-0.38,5.63-0.38,5.63"/>
		</g>
		<path class="st1" d="M446.86,447.39c0,0-26.17-4.48-33.06-0.52s-1.55,9.81-9.47,11.02s-26.52-0.34-26.52,5.51
			s17.76,10.96,28.47,10.44c12.21-0.6,22.67-0.45,25.08-8.03c2.41-7.58,8-8.09,9.47-8.95C444.62,454.62,446.86,447.39,446.86,447.39
			z"/>
	</g>
</g>
<g id="plant">
	<path class="st2" d="M239.76,314.84c-0.09,0.3,0.79,6.06-1.32,9.13c-2.11,3.07-4.68,2.78-4.68,2.78l5.67,4.19
		c0,0,2.46,17.83-3.46,21.65c-1.99,1.29-4.37,1.82-6.89,1.87c-1.24,0.02,1.5,4.53-0.65,6.3c-3,2.47-9.14,7.75-17.54-4.24
		c-3.78-5.39-5.63-5.38-3.59-8.97c0.91-1.6,13.08-5.35,13.08-5.35s-4.77,2.02-8.21,1.78c-3.43-0.25-7.6-5.5-10.61-10.36
		c-3-4.86-8.88-26.09-8.88-26.09s11.24-2.74,17.3-3.41c6.07-0.67,13.71,3.74,18.39,2.5C233.06,305.37,239.76,314.84,239.76,314.84z"
		/>
	<path class="st2" d="M174.99,408.39c-0.23,0-7.38-2.66-10.73-2.43c-3.35,0.23-6.7,0.08-6.7,0.08s-7.84-6.16-11.94-9.89
		c-4.11-3.73-33.4-35.68-36.9-37.36c-3.5-1.67-15.29-9.97-15.29-9.97s2.74,4.49,2.59,4.26c-0.15-0.23-7.15-0.76-10.96,1.75
		c-3.8,2.51-7.38,7.68-7.38,7.68l8.75,4.41c0,0-5.33,6.01-7.23,10.5c-1.9,4.49-5.71,21.38-5.71,21.38s26.63-5.71,38.04-3.5
		s25.49,7.91,27.01,9.21c1.52,1.29,1.14,1.75,1.07,2.74c-0.08,0.99,1.45,6.01,3.04,8.45c1.6,2.43,2.28,4.03,4.56,4.95
		c2.28,0.91,5.02,1.98,5.02,1.98s2.66,3.04,5.93,3.88s3.73,1.07,6.09,0.91s8.75-1.07,8.75-1.07s5.48,6.62,8.06,6.09
		s4.64-4.79,3.04-9.74S174.99,408.39,174.99,408.39z"/>
	<path class="st6" d="M449.68,219.04c0,0-16.53-2.78-24.54,0.33c-8.02,3.11-11.62,7.2-18.33,33.71s37.31-8.18,38.29-11.94
		C446.08,237.37,449.68,219.04,449.68,219.04z"/>
	<path class="st3" d="M603.63,248.8c0.21-0.57,13.23-44.28,13.23-44.28s-21.42-15.34-32.13-15.34s-19.68,15.63-25.18,27.5
		s-5.21,22.58-5.21,22.58L603.63,248.8z"/>
	<polygon class="st6" points="616.86,204.53 643,223.27 639.92,234.52 608.95,232.98 	"/>
	<path class="st6" d="M562.74,233.76c0,0,16.5-39.65,14.18-41.68c-2.32-2.03-22.87-12.45-27.5-11.87
		c-4.63,0.58-88.57,1.74-92.62,5.21c-4.05,3.47-12.45,46.89-15.63,56.44c-3.18,9.55-20.55,74.38-19.1,79.01
		c1.45,4.63,66.57,14.76,74.96,6.95C505.43,320.01,562.74,233.76,562.74,233.76z"/>
	<path class="st3" d="M603.63,248.8c0,0-70.76-32.32-82.11-34.94s-27.52,3.93-34.51,21.4s-76.77,164.29-76.77,164.29l149.2,18.74
		L603.63,248.8z"/>
	<path class="st5" d="M463.93,405.63c0,0,6.01-17.54,14.24-41.66s32.36-113.26,36.9-118.36s19.59,3.69,28.95,7.1
		s52.51,22.42,52.51,22.42"/>
	<polygon class="st6" points="567.42,389.4 593.56,408.14 590.48,419.39 559.51,417.85 	"/>
	<path class="st7" d="M559.14,162.31c0,0-15.73,12.4-25.62,21.04c-9.89,8.64-20.67,19.36-23.25,19.59
		c-3.71,0.33-8.42-6.04-10.84-12.67c-2.43-6.63,1.41-7.17,1.41-7.17s23.94-16.92,30.84-22.48c6.9-5.56,9.56-10.45,9.56-10.45
		s5.44-1.9,6.99,0.81C549.79,153.69,559.14,162.31,559.14,162.31z"/>
	<g>
		<path class="st4" d="M595.4,144.03c0,0-1.14,6.69-2.09,9.23c-0.95,2.54-7.32,3.26-16.72,5.11c-9.4,1.85-11.16,5.27-11.16,5.27
			s-3.1,5.66-8.49,3.41c-5.63-2.35-2.3-8.5-5.12-8.65c-2.71-0.14-8.64-0.1-12.98-0.04c-2.71,0.03-4.82-2.33-4.47-5.02l1.48-11.51
			c0,0,10.92-1.54,28.97-0.48C586.11,142.59,595.4,144.03,595.4,144.03z"/>
		<path class="st4" d="M597.18,143.74c-0.18,0.76-0.98,1.17-1.87,0.95c-4.19-1.04-59.6-1.72-59.6-1.72l0.54-5.28l62.17,0.81
			L597.18,143.74z"/>
		<path class="st5" d="M568.44,160.17c0,0-3.58-1.65-7.11-6.73"/>
		<path class="st5" d="M573.5,158.65c0,0-3.58-1.65-7.11-6.73"/>
		<path class="st5" d="M579.25,157.34c0,0-3.58-1.65-7.11-6.73"/>
	</g>
	<g>
		<path class="st7" d="M589.54,348.4c0,0-13.24,3.11-25.93,6.47c-12.69,3.37-27.1,8.21-29.52,7.28c-3.47-1.35-4.88-9.14-4.11-16.16
			c0.76-7.02,4.44-5.81,4.44-5.81s28.96-4.58,37.6-6.51c8.65-1.93,13.2-5.14,13.2-5.14s5.71,0.7,5.91,3.82
			C591.33,335.48,589.54,348.4,589.54,348.4z"/>
		<path class="st4" d="M586.52,333.86c0.02,0.9-5.09,3.92-3.93,8.48c1.17,4.56,7.15,9.52,7.15,9.52s9.64-3.42,13.63-4.08
			s18.3-0.69,21.13-0.79c2.83-0.1,10.47-0.87,13.36-3.94c2-2.13,8.85-10.74-2.26-16.55c-10.93-5.72-16.57-5.09-23.24-6.49
			c-6.68-1.4-12.64-5.46-14.61-5.07c-1.97,0.4-14.34,11.42-14.97,13.91S586.52,333.86,586.52,333.86z"/>
		<path class="st5" d="M594.76,318.23c0,0,8.97,4.62,16.11,5.91c7.14,1.29,27.89,3.65,29.31,14.77"/>
		<path class="st5" d="M593.51,337.01c0,0-2.66,4.66,2.55,9.89"/>
		<path class="st5" d="M599.24,335.94c0,0-2.66,4.66,2.55,9.89"/>
		<path class="st5" d="M605.24,335.61c0,0-2.66,4.66,2.55,9.89"/>
	</g>
	<path class="st1" d="M431.43,298.68c0,0,31.8,16.52,42.16,23.01c10.37,6.49,21.57,15.01,21.57,15.01s41.27-1.92,52.19-5.13
		c10.92-3.21,17.48-3.26,17.48-3.26s4.75,7.78,8.56,15.57c3.81,7.79,4.81,15.28,4.81,15.28s-37.76,8.73-57.44,10.13
		s-27.5,1.46-36.58-0.35s-35.7-8.17-48.25-13.7s-36.78-19.65-36.78-19.65s-0.72-19.14,5.48-25.75
		C410.83,303.21,431.43,298.68,431.43,298.68z"/>
	<path class="st1" d="M363.81,276.05c0,0,19.94-15.29,37.91-24.6c13.32-6.91,44.89-21.74,50.8-26.46
		c5.91-4.73,15.12-8.98,16.3-10.63c1.18-1.65,31.66-35.91,41.58-44.18c9.92-8.27,14.65-10.63,14.65-10.63s8.7,2.32,14.3,6.93
		c5.6,4.62,6.1,11.7,6.1,11.7s-14.42,12.39-20.64,19.38c-4.36,4.91-11.83,16.38-11.83,16.38s-13.55,19.01-23.14,30.84
		c-9.59,11.83-42.35,43.92-62.7,59.27c-10.94,8.25-31.26,20.35-32.49,20.35S363.81,276.05,363.81,276.05z"/>
	<path class="st6" d="M304.23,375.59c0,0,32.6,22.01,41.36,25.88c8.76,3.87,17.52,7.13,29.14,1.43c11.61-5.71,28.27-4.56,37.7-2.85
		c8.37,1.52,12.8-1.67,18.68-14.1c4.22-8.91,3.65-25.52,1.41-31.43s-32.69-25.27-53.89-21.2
		C357.45,337.39,304.23,375.59,304.23,375.59z"/>
	<path class="st7" d="M407.82,338.11c0,0-14.09-5.54-25.9-1.57c-11.81,3.98-24.94,10.12-28.31,12.17c-3.37,2.05-5.78,6.63-8.55,9.76
		c-2.77,3.13-5.78,7.47-10.6,9.88c-4.82,2.41-27.83,10.36-34.09,10.72c-6.26,0.36-13.01,0.24-13.01,0.24s-4.58,21.92-5.3,27.46
		c-0.72,5.54-2.29,16.38-7.59,21.68c-5.3,5.3-9.15,5.06-13.73,3.61s-4.58-0.84-6.63-2.89s-6.63-7.47-6.63-7.47
		s-24.81,3.37-30.72,5.18c-5.9,1.81-25.18,3.98-28.43,4.82s-6.87,0.84-6.87,0.84s2.29-1.93,0.84-6.38s-9.03-18.91-9.03-18.91
		l35.17-1.69l22.77-9.76c0,0-5.06-11.2-6.63-13.85c-1.57-2.65-2.29-3.73-3.98-5.54c-1.69-1.81-3.37-5.18-3.49-6.87
		c-0.12-1.69-0.36-3.85-0.36-3.85l12.89-6.09l-0.88-8.14c0,0,6.51,1.63,8.27-1.5c1.75-3.13,2.25-15.28,3.01-18.79
		c0.75-3.51,18.54-17.91,28.94-20.29c10.4-2.38,16.41-0.13,32.82-5.51c16.41-5.39,15.41-6.01,22.55-10.52
		c7.14-4.51,39.83-27.43,39.83-27.43s29.69,33.95,32.19,36.95c2.51,3.01,7.14,7.89,8.52,11.9
		C406.28,320.27,407.82,338.11,407.82,338.11z"/>
	<g>
		<g>
			<g id="XMLID_144_">
				<g>
					<path class="st1" d="M271.94,303.38c0.28,0.1,4.48,1.5,8.33-1.43c7.67-5.86,6.01-19.49,6.01-19.49s-8.1,8.15-15.24,4.95
						c-7.14-3.2-17.5-10.22-33.32-3.39c-8.23,3.55-9.92,2.64-19.27,1.8c-9.34-0.84-14.61,5.66-14.61,5.66s-5.68-2.43-11.68,4.4
						c-4.32,4.92-4.85,10.73-4.67,13.69c0.26,4.54,3.01,8.94,19.93,0.97c4.98-2.35,12.98,1.81,18.92,5.59
						c4.25,2.7,5.16-2.09,8.06-1.12c2.2,0.74,4.22,3.95,2.92,6.44c-1.52,2.9-4.74,4.79-4.74,4.79s1.81,6.1,3.06,6.54
						c4.09,1.47,10.44-3.68,16.6-11.25c2.61-3.2,5.87-2.77,9.44-2.01c4.47,0.94,7.48-1.92,8.3-2.41c0.13-0.07-1.39,0.09-2.6-0.15
						c-0.97-0.19-1.7-0.79-1.59-0.81c2.9-0.33,4.47-0.42,8-1.38c7.53-2.03,6.14-10.8,6.14-10.8s-2.35,1.64-4.55,1.25
						C273.11,304.81,272.04,303.52,271.94,303.38z"/>
				</g>
				<g>
				</g>
			</g>
			<path class="st5" d="M192.57,310.73c0,0,10,30.7,18.42,32.27c9.09,1.69,16.75-8.08,16.75-8.08"/>
			
				<ellipse transform="matrix(0.9624 -0.2715 0.2715 0.9624 -82.6717 68.6296)" class="st5" cx="206.73" cy="333.14" rx="2" ry="2.55"/>
			<path class="st5" d="M203.56,327.07c-1.37,0.12-2.13-0.14-1.97-0.85c0.24-1.08,0.38-5.12,0.38-5.12s-0.41-2.66-2.72-3.13
				c-2.87-0.58-3.47,0.48-3.47,0.48"/>
			<path class="st5" d="M207.89,318.95c0,0,1.8-2.75,6.48-0.85"/>
		</g>
		<path class="st5" d="M218.68,349.11c0,0,8.02-0.13,5.17-3.75s-14-2.27-16.33,1.74c-2.33,4.01-0.26,6.28,2.2,8.09
			c2.46,1.81,8.44,7.89,8.44,7.89"/>
		<path class="st5" d="M225.02,347.17c0,0,2.07-1.03,2.85,1.55s1.68,10.74,1.68,10.74"/>
		<path class="st5" d="M157.58,406.14c0,0,10.09-1.4,14.75,1.11"/>
		<path class="st5" d="M180.02,424.08c0,0-12.75,2.99-16.52,3.17c-3.77,0.18-5.19-5.14-7.17-8.37c-1.97-3.23-1.79-6.28-0.18-6.82
			c1.62-0.54,6.64,5.74,6.64,5.74"/>
		<path class="st5" d="M155.17,416.59c0,0-2.79-4.18-4.04-2.56c-1.26,1.62-0.36,5.56,1.44,8.43c1.79,2.87,6.82,4.67,8.61,4.49"/>
		<path class="st5" d="M149.87,417.09c0,0-5.92-9.69-8.43-10.41c-2.51-0.72-1.97,3.05-0.72,5.56s3.05,5.74,5.02,7.36
			s6.82,2.87,6.82,2.87"/>
		<path class="st5" d="M169.65,418.53c0,0-13.27-12.95-17.64-16.19c-4.37-3.24-36.12-37.26-43.71-43.38
			c-8.42-6.8-16.35-10.85-16.35-10.85s6.47,8.26,7.61,10.68c1.13,2.43,0.65,4.53,0.65,4.53s-3.72-2.43-10.68,1.94
			c-6.96,4.37-11.33,12.79-12.63,17.64c-1.29,4.86-3.72,16.03-3.72,16.03s22.01-6.15,39.82-3.72c17.81,2.43,28.44,11.46,28.44,11.46
			"/>
		<line class="st5" x1="100.21" y1="363.33" x2="156.15" y2="412.06"/>
		<path class="st5" d="M95.51,352.97c0,0-6.31-0.32-11.01,2.27c-4.69,2.59-7.28,7.45-7.28,7.45l9.39,4.53"/>
		<path class="st5" d="M293.41,357.06c-0.52,4.81-6.53,19.75-7.39,27.65c-0.86,7.9-4.64,22.19-5.36,29.95
			c-0.73,7.75-8.36,17.81-12.6,18.41s-11.22-1.63-13.69-3.63c-6.78-5.52-28.35-41.67-29.32-45.19c-0.97-3.51-2.42-6.66-4.85-8.48
			c-2.42-1.82-4.36-9.09-3.03-10.42c1.33-1.33,16.12-7.09,16.12-7.09"/>
		<path class="st5" d="M240.51,334.05c-0.52,0-0.52,8.07,2.4,14.77c2.92,6.7,7.39,14.08,9.27,18.89c1.89,4.81,1.89,20.44,2.23,26.79
			c0.34,6.35,1.37,13.91,1.37,13.91"/>
		<path class="st5" d="M172.72,407.11c2.59,3.54,9.73,18.43,9.82,21.05c0.08,2.41,0.14,4.08-1.77,4.36s-8.17-6.39-8.17-6.39"/>
		<path class="st5" d="M230.31,396.44"/>
		<path class="st5" d="M180.77,432.51c0,0,25.72-2.31,33.62-4.9s23.14-3.81,26.13-4.76c2.99-0.95,5.58-1.36,5.58-1.36"/>
	</g>
	<path class="st5" d="M427.19,392.74c0,0,13.15-20.26,5.19-37.61s-33.43-20.45-49.8-18.11"/>
	<line class="st5" x1="594.6" y1="145.06" x2="537.16" y2="144.08"/>
</g>
</svg>
