<?xml version="1.0" encoding="utf-8"?>
<!-- Generator: Adobe Illustrator 23.0.2, SVG Export Plug-In . SVG Version: 6.00 Build 0)  -->
<svg version="1.1" id="girl" xmlns="http://www.w3.org/2000/svg" xmlns:xlink="http://www.w3.org/1999/xlink" x="0px" y="0px"
	 viewBox="0 0 709.97 653.29" style="enable-background:new 0 0 709.97 653.29;" xml:space="preserve">
<style type="text/css">
	.st0{fill:#FFFFFF;stroke:#031F43;stroke-width:2;stroke-linecap:round;stroke-linejoin:round;stroke-miterlimit:10;}
	.st1{fill:#031F43;}
	.st2{fill:none;stroke:#031F43;stroke-width:6;stroke-linecap:round;stroke-linejoin:round;stroke-miterlimit:10;}
	.st3{fill:#347CE1;}
	.st4{fill:none;stroke:#031F43;stroke-width:2;stroke-linecap:round;stroke-linejoin:round;stroke-miterlimit:10;}
	.st5{fill:#A7CCE9;}
	.st6{fill:#F3B63F;}
	.st7{fill:#E72A8B;}
	.st8{fill:#45D62F;stroke:#031F43;stroke-width:2;stroke-linecap:round;stroke-linejoin:round;}
	.st9{fill:#45D62F;}
</style>
<g>
	<path class="st0" d="M369.95,392.69l37.58,21.14c0,0-21.66,37.32-31.58,50.89c-9.92,13.57-48.04,64.79-51.52,70.38
		s-6.6,8.12-7.7,6.21s-3.85-11.8,2.11-21.06c5.96-9.26,31.62-55.44,31.62-55.44L369.95,392.69z"/>
	<path class="st0" d="M463.41,257.22c0,0-12.35,11.77-13.9,12.55c-1.54,0.77,0,3.09,5.02,14.48s9.07,21.04,11.19,22.58
		c2.12,1.54,5.6-0.58,9.07,0.58c3.47,1.16,5.79,5.98,5.79,7.72c0,1.74-16.41,19.11-18.72,20.46c-2.32,1.35-7.72,5.79-14.09,7.33
		c-6.37,1.54-16.41,1.16-16.41,1.16s9.88-12,13.16-15.09c3.28-3.09,5.75-12.51,4.6-13.86c-1.16-1.35-6.18-7.72-9.26-11
		s-22-36.09-25.28-48.64s28.18-35.71,28.18-35.71L463.41,257.22z"/>
	<path class="st1" d="M448.94,319.94c0,0-3.67,10.42-0.77,12.93c2.9,2.51,9.84,2.32,13.51,0.39c3.67-1.93,12.55-15.63,12.35-18.72
		c-0.19-3.09-3.09-7.53-3.09-7.53s1.74-0.39,5.4,1.93c3.67,2.32,5.02,5.98,4.44,7.53s-15.44,16.21-17.18,18.14
		c-1.74,1.93-3.28,7.91-11.39,9.07s-20.84,0.39-20.84,0.39s9.54-7.03,13.01-12.82C447.86,325.46,448.94,319.94,448.94,319.94z"/>
	<path class="st0" d="M414.01,308.36c0,0,8.88,18.72,8.88,22.58s-7.33,12.35-10.04,13.12c-2.7,0.77-9.26,8.49-12.74,12.55
		c-3.47,4.05-5.02,6.95-3.86,8.3c1.16,1.35,16.6,2.12,22.2-1.54c5.6-3.67,9.46-11.19,13.12-14.09c3.67-2.9,14.86-9.26,17.18-12.93
		c2.32-3.67,0.77-9.07-2.32-12.16c-3.09-3.09-5.79-10.42-5.79-10.42L414.01,308.36z"/>
	<path class="st0" d="M445.85,272.08c0,0,0.97,18.72-0.77,30.3c-1.74,11.58-8.3,25.28-8.3,25.28l-52.5-37.44L445.85,272.08z"/>
	<line class="st2" x1="488.76" y1="271.84" x2="486.49" y2="307.46"/>
	<path class="st2" d="M465.09,301.41c0,0,64.96,19.44,73.13,24.88c8.17,5.44,4.54,29.95,4.54,29.95"/>
	<path class="st2" d="M507.14,309.27c0,0,1.36-18.83-1.59-19.06s-22.69,18.38-33.58,34.26s-12.37,25.01-13.38,32.9
		c-1.13,8.85-1.81,16.56-1.81,16.56"/>
	<path class="st2" d="M561.58,179.96c0,0,1.13,54.22-4.08,58.53c-5.22,4.31-21.1,4.31-21.1,4.31"/>
	<path class="st3" d="M518.71,228.74c0,0,12.22-1.15,18.15,8.62c3.32,5.47,2.04,18.83-0.23,23.82s-6.13,6.58-10.66,7.71
		c-4.54,1.13-53.77,8.85-61.48,7.71c-7.71-1.13-14.29-4.31-16.79-6.13c-2.5-1.81-0.45-14.29,4.54-19.51S518.71,228.74,518.71,228.74
		z"/>
	<path class="st4" d="M461.04,262.17c0,0,6.62,2.18,22.05,0.82s49.23-4.99,54.45-11.57"/>
	<path class="st3" d="M541.62,122.79c0,0-11.8,4.08-12.93,19.28c-1.13,15.2-0.23,22.91,7.26,27.45
		c7.49,4.54,21.33,12.93,24.27,16.79s8.39,5.44,9.53,3.63c1.13-1.81,9.53-35.39,5.44-48.1c-4.08-12.7-20.19-17.47-24.73-19.06
		C545.93,121.21,541.62,122.79,541.62,122.79z"/>
	<polygon class="st5" points="452.61,265.13 453.19,272.66 353.4,299.1 353.4,291.96 	"/>
	<polygon class="st5" points="353.4,291.96 289.52,227.88 289.52,234.25 353.4,299.1 	"/>
	<polygon class="st5" points="452.61,265.13 372.9,208.19 289.52,227.88 353.4,291.96 	"/>
	<path class="st6" d="M412.65,216.11l-13.12,14.86c0,0,33,11.97,43.81,18.53c10.81,6.56,10.81,10.81,16.02,12.55
		c5.21,1.74,16.02-0.77,16.02-0.77s31.17-14.39,38.21-20.65c12.6-11.21,14.42-14.85,16.21-27.6c1.48-10.52-2.12-27.41-9.07-33.39
		c-6.95-5.98-14.86-6.18-14.86-6.18L412.65,216.11z"/>
	<path class="st7" d="M376.32,509.42c0,0,4.44-28.66,11.1-35.24s10.88-1.74,12.12-7.86s0.83-18.15,5.25-22.4s13.18-17.3,13.18-17.3
		s-6.29,19.43-3.7,29.95c2.59,10.52,6.73,16.6,3.25,25.05s-7.87,12.29-5.33,17.43s2.34,14.23-3.05,20.48
		c-5.39,6.25-13.37,13.98-13.37,13.98L376.32,509.42z"/>
	<path class="st7" d="M424.02,551.78c1.45-0.96,23.13-9.64,26.03-29.88s5.3-27.95,11.09-34.7c5.78-6.75,8.68-18.31,8.68-26.99
		c0-8.68-5.3-36.63-5.3-36.63s-5.3,26.51-11.09,29.88c-5.78,3.37-19.76,13.01-21.21,20.24c-1.45,7.23,0,3.37-15.9,10.6
		c-15.9,7.23-21.21,28.44-21.21,28.44L424.02,551.78z"/>
	<path class="st7" d="M417.27,465.03c0,0,7.71-16.87,18.31-26.99s5.78-48.68,5.78-48.68s12.05,17.35,13.98,30.85
		c1.93,13.49,2.89,38.08-2.89,47.71c-5.78,9.64-15.9,17.83-23.62,27.95c-7.71,10.12-14.46-7.23-14.46-7.23L417.27,465.03z"/>
	<path class="st6" d="M413.12,522.23c0,0,3-29.58,11.15-36.45c8.15-6.86,24.87-22.72,24.87-22.72s-14.58,18.44-14.58,27.01
		c0,8.58-2.57,19.29-2.57,19.29s8.15-2.14,9.43-6c1.29-3.86,0,8.58-2.57,16.29c-2.57,7.72-17.58,17.58-17.58,17.58L413.12,522.23z"
		/>
	<path class="st0" d="M340.46,484.59l21.25,89.27c0,0,61.64-14.3,67.01-17.78s-24.99-89.21-24.99-89.21L340.46,484.59z"/>
	<path class="st0" d="M335.45,289.64c0,0-6.76,12.35,4.83,21.62c11.58,9.26,39.57,23.35,42.85,29.92s3.86,23.74-1.93,46.13
		c-5.79,22.39-15.05,65.04-20.07,77.39c-5.02,12.35-19.11,38.79-26.25,45.55c-7.14,6.76-10.81,10.23-14.67,16.98
		s-3.47,14.09-3.47,14.09s-66.97-33.58-67.55-33.58s-0.97-9.07,3.86-14.48s19.88-11.97,27.79-22c7.91-10.04,17.18-18.14,18.53-24.51
		c1.35-6.37,15.63-41.3,19.49-55.39c3.86-14.09,14.48-45.93,11.39-51.92c-3.09-5.98-20.65-23.74-21.42-30.11
		C308.05,302.96,335.45,289.64,335.45,289.64z"/>
	<path class="st0" d="M216.45,378.93c0,0,26.89,45.55,37.96,58.52c11.07,12.97,114.83,98.38,127.17,108.19
		c12.34,9.81,24.36,17.4,24.36,17.4s-77.19,20.25-86.68,19.3s-62-41.13-73.08-53.46c-11.07-12.34-60.46-57.75-68.96-71.18
		c-6.01-9.49-6.33-24.36-3.45-37.23C177.54,403.59,216.45,378.93,216.45,378.93z"/>
	<path class="st0" d="M366.16,223.04c0,0-7.93,2.6-18.7,3.67c-10.77,1.07-24.16-1.49-26.1,0.82c-0.87,1.03-1.83,4.74-1.95,6.76
		c-0.12,2.01,0.33,5.21,1.27,7.34s3.93,5.91,3.04,7.06c-0.89,1.15-2.47,1.57-4.19,0.55s-3.88-4.24-5.44-6.61
		c-1.13-1.72-2.23-3.19-3.38-4.21c-1.15-1.02-4.64-3.12-5.74-2.55c-1.53,0.79-1.59,4.34-1.4,5.55c0.19,1.21,0.57,4.36,0.57,4.36
		s-0.5,2.28-3.9,4.46s-7.63-0.26-7.63-0.26s-0.26-6.34-0.36-9.25c-0.11-3.49,0.59-4.62,1.19-6.07c0.6-1.45,3.52-3.91,6.01-6.11
		c2.69-2.38,7.76-7.32,11.77-10.22s8.11-5.21,15.19-6.4c7.08-1.19,23.58-7.28,23.58-7.28s11.69,1.05,15.69,6.39
		S366.16,223.04,366.16,223.04z"/>
	<path class="st8" d="M371.44,171.44c0,0,6.1,6.24,9.84,15.39c3.74,9.15,3.88,16.22,3.19,21.21s-1.94,9.01-6.38,10.67
		c-4.44,1.66-12.47,5.82-12.47,5.82s-2.08-8.87-7.48-13.31c-5.41-4.44-10.81-6.79-10.81-6.79s9-2.99,8.86-5.07
		c-0.14-2.08-0.96-2.41-1.38-4.22c-0.42-1.8-1.8-7.76-1.8-7.76L371.44,171.44z"/>
	<path class="st0" d="M374.72,172.73c0,0,9.56,0.5,13.74-0.8c0,0,8.14,3.48,3.7-16.15s-14.09-18.36-18.83-18.99
		c-4.75-0.63-11.71,11.71-10.29,17.41S374.72,172.73,374.72,172.73"/>
	<path class="st9" d="M372.27,168.25c0,0-0.01,8.97,0.57,12.6c0.52,3.23,3.98,14.52,3.98,14.52c2.36,1.9,13.08,5.97,16.74,6.65
		c9.26,1.74,9.9,3.52,18.63,8.37c8.73,4.85-1.39-37.29-1.39-37.29l-12.61-6.24L372.27,168.25z"/>
	<path class="st9" d="M363.12,118.21c0,0,22.73-2.49,28.69-1.11c5.96,1.39,14.83,5.96,20.38,8.59c5.54,2.63,26.34,11.78,42,18.16
		c15.66,6.38,32.99,10.26,40.34,14.14s18.3,11.64,20.79,17.33c2.49,5.68-1.39,29.11-3.6,38.95c-2.22,9.84-5.68,27.72-5.82,30.49
		s-2.63,7.35-2.63,7.35s-10.81-6.1-21.21-6.79c-10.4-0.69-29.39-0.97-44.22-5.82s-20.79-12.61-28.55-22.32
		c-7.76-9.7-19.96-22.04-19.96-22.04s5.27-3.6,2.49-16.22c-2.77-12.61-11.94-32.89-17.21-40.23
		C369.34,131.34,363.12,118.21,363.12,118.21z"/>
	<path class="st4" d="M297.81,249.71c0,0-0.51-4.86-0.77-6.74"/>
	<path class="st0" d="M332.62,178.32c0,0,5.05,4.39,7,7.32c1.95,2.93,2.28,5.21,3.91,5.7c1.63,0.49,5.21-3.74,5.21-3.74
		s3.58,2.93,4.23,2.93s3.42-1.46,3.42-1.46s3.91,1.3,6.84-0.16c2.93-1.46,9.11-8.14,10.74-14.49c0.88-3.44,0.98-4.88,0.98-4.88
		s-2.23-11.69-8.56-12.16S332.62,178.32,332.62,178.32z"/>
	<path class="st4" d="M343.69,181.57c0,0,3.09-0.49,3.74-3.74"/>
	<path class="st1" d="M332.82,179.21c0,0-1.41,0.59-3.96,5.68c-2.54,5.09-4.5,5.29-4.5,5.29s1.11-9.47-7.83-14.49
		c-4.71-2.64,0.2-9.59-2.54-13.51s-9.98-8.61-8.81-13.12c1.17-4.5,3.13-7.63,3.13-7.63s-4.11-7.44,0.39-14.68
		c4.5-7.24,17.35-4.54,21.03-10.81c4.57-7.77,6.62-9.82,13.42-11.31c5.22-1.15,10.56-0.34,14.22,1.72c3.45,1.94,6.34,9.24,8.49,11.4
		c2.15,2.15,3.13-2.35,3.13-2.35s8.22,8.03,9,14.88s-1.76,13.7-2.94,17.81c-1.17,4.11-0.39,15.27-1.76,17.42
		c-1.37,2.15-4.31,4.11-8.03,4.31c-3.72,0.2-7.63-2.74-10.96,0.39c-3.33,3.13-2.74,5.68-9.59,6.85S332.82,179.21,332.82,179.21z"/>
	<path class="st0" d="M441.16,256.98c0,0-75.66,18.66-91.72,27.98c-16.06,9.33-65.03,48.45-85.76,64.78
		c-20.73,16.32-70.99,55.45-78.25,61.67s-11.66,9.07-11.66,9.07l16.58-99.24c0,0,18.14-14.51,29.54-25.39
		c11.4-10.88,33.94-38.87,45.34-42.23c11.4-3.37,55.97-8.81,68.4-13.73s61.41-16.06,61.41-16.06L441.16,256.98z"/>
	<path class="st0" d="M418.54,226.21c0,0-10.85,5.85-21.43,5.94c-10.58,0.09-23.15-0.36-28.31,0.18
		c-5.15,0.54-11.94,1.99-15.55,3.26c-3.62,1.27-9.5,3.71-9.22,5.7c0.27,1.99,3.38,3.42,4.46,3.49c0.17,0.01-0.96,0.5-0.67,2.84
		c0.23,1.8,2.86,2.79,4.79,2.71c1.39-0.06,2.35-0.09,2.35-0.09s-0.28,2.38,1.81,3.35c3.07,1.42,4.85,0.84,4.85,0.84
		s1.12,2.23,8.17,1.96c7.05-0.27,15.1-0.99,19.9-3.35c4.79-2.35,10.13-3.07,18.63-4.7c8.5-1.63,17.82-2.8,17.82-2.8"/>
	<path class="st0" d="M348.49,244.78c0,0,2.48-1.34,7.26-2.72c4.45-1.28,7.99-2.04,7.99-2.04"/>
	<path class="st0" d="M354.34,250.26c0,0,1.71-1.01,6.23-2.01c4.52-0.99,5.45-1.18,5.45-1.18"/>
	<path class="st0" d="M361.59,254.34c0,0,1.71-1.01,6.23-2.01"/>
	<path class="st0" d="M362.59,232.67c0,0-9.49-0.94-10.64-0.68c-1.15,0.27-1.95,1.15-1.15,2.21s0.93,1.31,0.93,1.31"/>
	<path class="st1" d="M414.01,342.72c0,0-7.53,4.63-10.23,8.11c-2.7,3.47-10.81,12.16-10.81,13.7s1.74,2.12,8.3,1.74
		c6.56-0.39,14.44-1.61,17.18-2.9c6.87-3.22,13.27-12.06,15.2-14.57c1.93-2.51,13.17-9.37,15.1-12.45
		c1.93-3.09-0.97-10.43-1.94-12.36c-0.97-1.93,0.15,5.45-3.48,9.38c-1.82,1.98-7.32,5.3-11.95,10.7
		c-4.63,5.4-9.26,13.51-11.97,12.55c-2.7-0.97-8.88-4.44-9.07-7.33C410.15,346.38,414.01,342.72,414.01,342.72z"/>
	<path class="st1" d="M368.01,232.36l18.81-10.52c0.66-0.37,1.49-0.16,1.89,0.48l0,0c0.45,0.7,0.2,1.64-0.54,2.03l-14.07,7.71"/>
	<path class="st1" d="M347.77,247.23l-6.83,3.67c-0.66,0.37-3.83,0.66-3.83,0.66s1.73-2.78,2.47-3.16l7.14-4.21"/>
	<path class="st7" d="M269.27,548.07c-11.56-11.63-18.58-27.15-19.01-43.54c-0.15-5.69,0.46-11.65,2.56-17.23
		c8.08-21.51-8.93-27.83-9.69-34.99c-1.35-12.83-1.04-35.38-1.04-35.38s-9.14,17.41-10.05,34.89c-0.49,9.35,0.56,21.11,0.56,21.11
		s-7.18,10.11-15,3.78c-7.82-6.33-13.83-11.19-24.63-14.45s-19.1-19.43-22.31-29s-4.84-9.39-12.52-19.58
		c-7.68-10.19-19.11-40.33-18.93-38.7c0.17,1.63-1.88,23.85,4.08,38.62c5.96,14.77,4.96,31.38,4.36,41.34
		c-0.6,9.96,1.41,29,6.45,35.07c5.04,6.07,9.31,20.47,9.31,20.47s-12.86-1.94-18.93-17.8c-6.07-15.86-7.48-23.96-13.06-29.97
		c-5.58-6.01-16.01-10.96-16.01-10.96s13,18.98,14.52,28.17c1.52,9.19-4.95,20.87,4.36,30.89s16.9,14.17,18.56,19.49
		s10.86,24.7,45.07,30.99s77.96-6.58,77.96-6.58L269.27,548.07z"/>
	<path class="st6" d="M248.52,549.98c0,0-35.04,0.62-44.68-9.37c-9.64-9.99-16.36-33.01-16.36-33.01s8.9,11.62,15.16,13.12
		c6.27,1.5,0.89-13.19-4.95-18.28c-5.84-5.08-23.51-21.31-25.91-29.96c-2.4-8.65-13.12-28.51-13.12-28.51s20.27,32.38,31.41,36.11
		c11.14,3.73,23.5,8.77,29.32,16.87c5.82,8.1,10.1,15.94,11.12,22.3C231.54,525.61,248.52,549.98,248.52,549.98z"/>
	<path class="st8" d="M407.34,168.02c0.86-4.11,3.58-7.78,14.47-8.56c10.89-0.78,22.25,4.82,25.99,11.51
		c3.73,6.69,13.69,44.35,15.4,49.64c1.71,5.29,1.71,10.89,0.62,13.23s-17.74,9.49-23.96,10.89c-6.22,1.4-15.56,2.02-15.56,2.02
		s-0.78-11.98-2.49-15.25c-1.71-3.27-3.27-5.29-3.27-5.29l13.69-4.67c0,0-17.43-23.03-21.01-30.03
		C407.65,184.51,406.12,173.84,407.34,168.02z"/>
</g>
</svg>
