<?xml version="1.0" encoding="utf-8"?>
<!-- Generator: Adobe Illustrator 23.0.2, SVG Export Plug-In . SVG Version: 6.00 Build 0)  -->
<svg version="1.1" xmlns="http://www.w3.org/2000/svg" xmlns:xlink="http://www.w3.org/1999/xlink" x="0px" y="0px"
	 viewBox="0 0 709.97 653.29" style="enable-background:new 0 0 709.97 653.29;" xml:space="preserve">
<style type="text/css">
	.st0{fill:#FFFFFF;stroke:#031F43;stroke-width:2;stroke-linecap:round;stroke-linejoin:round;stroke-miterlimit:10;}
	.st1{fill:#45D62F;stroke:#031F43;stroke-width:2;stroke-linecap:round;stroke-linejoin:round;}
	.st2{fill:none;stroke:#031F43;stroke-width:2;stroke-linecap:round;stroke-linejoin:round;stroke-miterlimit:10;}
	.st3{fill:#031F43;}
	.st4{fill:none;stroke:#031F43;stroke-linecap:round;stroke-linejoin:round;stroke-miterlimit:10;}
	.st5{fill:none;stroke:#031F43;stroke-width:4;stroke-linecap:round;stroke-linejoin:round;stroke-miterlimit:10;}
	.st6{fill:#A7CCE9;}
	.st7{fill:#347CE1;stroke:#031F43;stroke-width:2;stroke-linecap:round;stroke-linejoin:round;stroke-miterlimit:10;}
	.st8{fill:#E72A8B;}
	.st9{fill:#FFFFFF;}
	.st10{fill:#F3B63F;}
	.st11{fill:#FFFFFF;stroke:#031F43;stroke-width:2;stroke-linecap:round;stroke-linejoin:round;}
	.st12{fill:none;stroke:#031F43;stroke-width:2;stroke-linecap:round;stroke-linejoin:round;}
</style>
<g id="window">
	<g>
		<path class="st0" d="M421.95,259.25c0,0,1.56-77.01,4.39-89.88c5.19-23.57,27.16-23.17,41.15-23.97s35.55,3.99,40.75,27.96
			c5.19,23.97,4.79,110.65,4.79,110.65"/>
		<path class="st0" d="M437.91,108.28c0,0-1.89-4.48-6.48-7.78c-4.6-3.3-8.48-4.6-9.31-8.13s-2.36,9.55-1.3,14.73
			c1.06,5.19,4.83,14.26,5.77,17.56c0.94,3.3,0.47,4.95,3.89,6.36s6.84,3.3,6.95,5.77c0.12,2.47-1.65,5.89,4.01,11.78
			c5.66,5.89,11.67,6.48,11.67,6.48s-3.3,12.73,16.14,15.08c19.44,2.36,15.08-14.73,15.08-14.73s8.01-0.71,13.55-5.42
			c5.54-4.71,8.25-15.91,9.43-19.8c1.18-3.89,5.19-7.31,11.2-11.43c6.01-4.12,5.66-29.34,5.66-29.34s-7.31,8.96-11.2,10.13
			c-3.89,1.18-9.78,6.95-9.78,6.95s-15.08-17.44-25.81-18.15s-18.15,4.48-23.8,6.01c-5.66,1.53-12.02,4.01-13.55,6.6
			C438.5,103.57,437.91,108.28,437.91,108.28z"/>
		<circle class="st1" cx="455.63" cy="134.03" r="13.75"/>
		<circle class="st1" cx="486.33" cy="134.03" r="13.75"/>
		<g>
			<path class="st0" d="M500.04,195.08c0,0-7.69-11.91-17.3-10.61c-9.61,1.3-17.42,10.57-18.58,26.07
				c-0.51,6.87,3.61,25.24,3.61,25.24l1.68-5.22l2.45,6.62l0.52-4.58l3.48,7.09l1.2-5.45l2.5,5.09c0,0-0.55-11.39-0.07-19.09
				c0.48-7.7,1.29-12.9,1.29-12.9s1.2,5.1,1.56,8.06c0.36,2.96,1.39,14.02,1.39,14.02s1.81-10.06,2.32-16.68
				c0.37-4.8-0.11-17.6-0.11-17.6"/>
			<path class="st2" d="M476.96,234.5c0,0-1.32-6.8-1.25-13.67c0.07-6.87,0.67-10.64,0.67-10.64"/>
			<path class="st2" d="M472.72,233.32c0,0-1.32-6.8-1.25-13.67c0.07-6.87,0.67-10.64,0.67-10.64"/>
			<path class="st2" d="M469.2,231.16c0,0-1.32-6.8-1.25-13.67c0.07-6.87,0.67-10.64,0.67-10.64"/>
		</g>
		<path class="st3" d="M455.31,122.39c0,0-3.2,4.55-2.87,11.13c0.34,6.58,3.37,12.14,3.37,12.14s3.04-7.18,3.04-12.14
			C458.85,127.45,455.31,122.39,455.31,122.39z"/>
		<path class="st3" d="M486,122.39c0,0-3.2,4.55-2.87,11.13c0.34,6.58,3.37,12.14,3.37,12.14s3.04-7.18,3.04-12.14
			C489.55,127.45,486,122.39,486,122.39z"/>
		<path class="st2" d="M439.66,125.72c0,0,2.87-16.53,19.23-16.53"/>
		<path class="st2" d="M486.21,109.36c0,0,16.53,2.87,16.53,19.23"/>
		<path class="st3" d="M464.48,151.37c0,0,3.83-9,6.41-9c2.59,0,5.38,9,5.38,9s-2.69-1.65-5.48-1.65
			C468,149.71,464.48,151.37,464.48,151.37z"/>
		<path class="st2" d="M459.53,159.14c-0.67,0.48-1.71,1.92-0.94,3.29c0.66,1.18,1.66,3.03,5.74,1.55c6-2.17,10.94,1.74,14.67,0
			c2.84-1.32,2.68-3.64,1.72-4.55c-1.14-1.09-4.65-1.97-5.9-3.52s-1.69-4.06-4.5-4.11c-3.1-0.05-4.5,4.52-6.36,5.35
			S460.65,158.34,459.53,159.14z"/>
		<polygon class="st4" points="459.63,159.14 462.47,162.38 463.03,157.47 		"/>
		<polygon class="st4" points="463.38,156.97 466.14,160.42 466.52,154.6 		"/>
		<polygon class="st4" points="467.3,153.13 469.79,157.69 471.38,152.06 		"/>
		<polygon class="st4" points="471.89,153.52 472.84,159.34 474.52,155.15 		"/>
		<polygon class="st4" points="474.95,156.75 475.81,161.87 478.42,157.93 		"/>
		<path class="st2" d="M444.27,146.5c0,0,4.19,4.38,11.76,5.02"/>
		<path class="st2" d="M480.01,149.33c0,0,5.74,2.55,10.39,0.46"/>
		<path class="st2" d="M429.89,104.87c0.12,0.35,5.66,8.48,5.54,16.03"/>
		<path class="st2" d="M511.59,105.67c-0.12,0.35-5.66,8.48-5.54,16.03"/>
		<g>
			<path class="st0" d="M445.25,224.79c0,0,7.57-11.88,17.03-10.58c9.45,1.3,17.14,10.54,18.29,26c0.51,6.85-3.56,25.17-3.56,25.17
				l-1.65-5.21l-2.41,6.6l-0.51-4.57l-3.42,7.08l-1.18-5.44l-2.46,5.08c0,0,0.54-11.36,0.07-19.04s-1.27-12.86-1.27-12.86
				s-1.18,5.08-1.54,8.04c-0.35,2.95-1.37,13.98-1.37,13.98s-1.78-10.03-2.29-16.63c-0.37-4.79,0.11-17.55,0.11-17.55"/>
			<path class="st2" d="M467.96,264.09c0,0,1.3-6.78,1.23-13.63c-0.07-6.85-0.66-10.61-0.66-10.61"/>
			<path class="st2" d="M472.13,262.92c0,0,1.3-6.78,1.23-13.63c-0.07-6.85-0.66-10.61-0.66-10.61"/>
			<path class="st2" d="M475.6,260.76c0,0,1.3-6.78,1.23-13.63c-0.07-6.85-0.66-10.61-0.66-10.61"/>
		</g>
	</g>
	<polygon class="st2" points="548.05,37.28 393.08,17.85 393.08,267.13 550.42,315.47 	"/>
	<polygon class="st2" points="411.09,37.75 411.09,257.18 530.52,291.3 531.47,52.71 	"/>
	<line class="st5" x1="469.75" y1="46.57" x2="469.86" y2="272.07"/>
	<line class="st5" x1="411.99" y1="105.18" x2="515.35" y2="126.37"/>
	<line class="st5" x1="413.44" y1="198.02" x2="515.35" y2="219.26"/>
	<path class="st6" d="M507.35,15.68l4.23,311.74c0,0,15.34,3.05,21.53,8.21s12.88,0,19.06,0s15.97,3.09,15.97,3.09l-4.33-313.23"/>
	<line class="st2" x1="533.11" y1="335.63" x2="533.11" y2="156.33"/>
	<line class="st2" x1="552.18" y1="335.63" x2="552.18" y2="248.23"/>
	<line class="st2" x1="393.08" y1="17.85" x2="411.09" y2="37.75"/>
	<line class="st2" x1="411.09" y1="257.18" x2="393.08" y2="267.13"/>
</g>
<g id="girl">
	<g>
		<polygon class="st7" points="151.82,523.14 154.18,555.82 168.7,563.38 185.78,557.68 185.78,536.29 		"/>
		<line class="st2" x1="168.7" y1="563.38" x2="168.7" y2="531.97"/>
		<polygon class="st7" points="346.17,601.63 348.52,632.06 363.05,641.87 385.41,631.16 385.41,595.9 		"/>
		<line class="st2" x1="363.96" y1="641.87" x2="362.95" y2="591.58"/>
		<polygon class="st7" points="476.87,552.62 479.22,583.05 493.75,592.86 512.6,585.45 512.6,546.89 		"/>
		<line class="st2" x1="493.75" y1="592.86" x2="491.89" y2="542.9"/>
		<path class="st6" d="M514.13,551.49L342.05,612.9l-194.31-88.42L126.7,309.71c-1.91-11.71,5.51-22.92,17.04-25.73l102.45-35.73
			c10.03-3.5,18.66-5.09,28.33-0.67l225.96,103.35c8.32,3.8,13.65,12.11,13.65,21.26V551.49z"/>
		<path class="st2" d="M509.4,357.54l-37.72,14.44l-196.91-103.1l-107.58,34.27c-9.5,3.03-15.41,12.5-13.93,22.37l14.67,163.49"/>
		<line class="st2" x1="471.68" y1="371.99" x2="471.68" y2="479.03"/>
		<polygon class="st2" points="514.04,495.73 342.62,562.63 167.74,489.45 165.21,459.93 282.62,411.82 		"/>
	</g>
	<path class="st8" d="M221.55,409.52c0,0-20.64,21.84-29.82,17.96c-9.18-3.87-11.22-33.22-4.83-60.6c6.39-27.38,35.56-80.1,55.99-82
		c20.43-1.9,37.58-10.55,47.08-10.33s45.92-12.22,110.12,3.39c40.28,9.79,29.51,24.68,24.19,29.2c-6.82,5.8-35.61,17.08-35.61,17.08
		l-12.74-14.72c0,0-31.36,23.88-37.08,26.14c-5.72,2.26-39.46,18.22-51.59,46.19c-3.16,7.29-9.43,24.94-38.73,38.64
		c-6.59,3.08-28.67,4.86-28.67,4.86L221.55,409.52z"/>
	<path class="st2" d="M205.18,423.85l40.47-36.39l-10.03-23.79c0,0-24.35,12.03-31.01,17.17"/>
	<path class="st0" d="M351.79,485.34c0,0,0.41,9.1,6.25,20.83s27.61,28.84,27.82,30.37c0.2,1.52-1.32,5.58-2.88,6.11
		c-1.55,0.53-4.88,0.24-4.88,0.24s-1.67,1.86-3.19,2.06c-1.52,0.2-3.1-0.94-3.1-0.94s-1.85,2.01-3.37,2.22s-2.78-0.75-2.78-0.75
		s0.56,1.22-1.14,1.57s-12.4-9.45-18.93-13.21c-6.54-3.75-10.75-5.29-13.02-10.01c-2.27-4.72,4.04-9.86,2.94-18.32
		c-1.1-8.47-4.15-17.6-4.15-17.6L351.79,485.34z"/>
	<path class="st0" d="M309.59,484.43c0,0-7.03,7.49-8.58,11.99c-1.55,4.5,0.26,30.14,0.26,30.14s3.45,1.89,3.72,3.8
		c0.27,1.91,1.12,3.72,1.12,3.72s5.53,2.95,5.53,4.68s-2.12,2.71-5.09,1.87c-2.97-0.84-13.22-4.49-17.83-13
		c-4.61-8.51-6.21-16.76-11.58-21.57c-5.37-4.81-8.01-9.39-5.67-14.68c2.35-5.3,15.06-9.98,19.75-13.91
		c4.69-3.93,13.76-15.01,13.76-15.01L309.59,484.43z"/>
	<path class="st0" d="M359.36,303.89c-0.12-0.73-2.73-16.33-2.73-16.33s-11.1,10.15-16.87,17.15c-5.47,6.64-10.25,11.76-10.52,18.97
		C328.97,330.89,359.36,303.89,359.36,303.89z"/>
	<path class="st0" d="M329.24,323.68c0.24-0.7,1.83-7.11-16.28-12.68c-9.47-2.91-35.93-8.11-36.11-8.13
		c-0.18-0.02-2.03,14.61-2.03,14.61L329.24,323.68z"/>
	<g>
		<ellipse class="st9" cx="292.91" cy="257.56" rx="29.28" ry="29.5"/>
		<path class="st3" d="M320.82,229.74c0,0,16.42,17,6.64,32.53c-13.37,21.22-4.87,34.17-4.87,34.17s-5.18,4.5-19.16,2.25
			c-6.91-1.11-16.97-10.91-16.97-10.91s0.09-3.04,5.53-3.44c5.84-0.43,10.01-2.31,14.15-7.66
			C318.76,260.39,320.82,229.74,320.82,229.74z"/>
		<path class="st3" d="M279.09,246.51c1.95-5.43,9.4-8.64,14.65-6.25c2.06,0.94,4.29,2.35,6.59,4.45c9.18,8.4,23.62,6.17,23.62,6.17
			s4.75-8.67,0.12-22.14c-5.22-15.2-33.13-22.38-47.3-12.86c-15.13,10.17-13.42,19.91-27.16,28.77
			c-19.23,12.4-20.49,24.14-20.49,24.14s13.28,10.07,20.15,17.93c10.36,11.86,19.73-2.08,19.73-2.08L279.09,246.51z"/>
		<path class="st0" d="M276.49,256.25c0,0-0.36-4.77-4.26-5.52s-6.94,4.56-5.9,8.62c0.74,2.9,3.11,5.45,4.4,6.67
			c0.53,0.5,0.77,1.23,0.64,1.95l-2.7,14.88c-0.87,4.8,1.82,9.55,6.41,11.22c1.17,0.42,2.46,0.8,3.87,1.08
			c1.01,0.2,2.05,0.32,3.06,0.39c4.67,0.29,8.88-2.83,10.13-7.34l0,0c0.37-1.33,1.98-3.3,0.6-3.25c-10.14,0.35-12.5-6.59-12.38-6.87
			"/>
		<path class="st2" d="M300.9,260.91c-0.38,2.2-0.77,6.65-0.77,6.65s-3.7,0.59-5.28-1.15"/>
		<path class="st2" d="M290.43,252.68c0,0,1,2.98,5.02,2.59"/>
		<path class="st2" d="M305.3,258.53c0,0,1.32,2.85,5.28,2.02"/>
		<path class="st2" d="M288.6,270.14l9.98,4.12c0,0-2.51,4.25-7.01,2.45C287.15,274.93,288.6,270.14,288.6,270.14z"/>
		<circle class="st2" cx="291.45" cy="253.48" r="8.18"/>
		<circle class="st2" cx="309.88" cy="259.8" r="8.18"/>
	</g>
	<path class="st10" d="M263.66,308.72c0.52,0.23,62.31,11.05,62.31,11.05l9.85-0.95l33.25-32.89l-1.47,74.72l-32.71,28.78
		l-73.46-5.52L263.66,308.72z"/>
	<polygon class="st2" points="335.81,318.83 334.88,389.44 324.23,389.23 325.97,319.78 	"/>
	<g>
		<path class="st11" d="M376.36,309.74c-4.25,0.59-9.25,1.42-12.36,2.37s-9.08,1.14-9.87,2.1s0.97,2.82,2.4,3.21
			c1.43,0.39,4.95-0.11,4.95-0.11s-12.07,14.97-12.57,17.25c-0.51,2.29,0.84,3.53,0.84,3.53s-1.35,2.85-0.48,4.61
			c0.86,1.75,3.43,0.67,3.43,0.67s0.7,1.56,2.19,1.93c1.49,0.37,2.53-0.55,2.53-0.55s2.1,0.67,3.45,0.5s13.85-9.7,17.46-14.45
			s5.47-8.47,7.72-10.19"/>
		<line class="st12" x1="349.74" y1="338.1" x2="360.68" y2="326.43"/>
		<line class="st12" x1="352.6" y1="343.29" x2="363.55" y2="331.62"/>
		<line class="st12" x1="357.22" y1="344.93" x2="368.16" y2="333.26"/>
	</g>
	<g>
		<path class="st0" d="M251.3,346.59c0,0,0.34-3.9-0.85-4.54c-1.19-0.64-6.77-2.2-8.25-1.61c-1.48,0.58-3.26,6.68-4.11,8.21
			c-0.85,1.53,4.29,11.33,3.98,14.87c-0.31,3.54-4.77,3.67-4.77,3.67s7.7,17.72,7.96,17.72c5.25,0,19.5-10.44,24.56-15.17
			c5.06-4.74,11.1-9.18,11.46-11.29c0.36-2.11-1.25-4.06-1.25-4.06s2.15-2.29,1.46-3.9c-1.11-2.59-4.87-2.82-4.87-2.82
			s2.49-2.52,1.05-4.43s-4.9-1.19-4.9-1.19s-0.33-3.66-2.7-3.81c-2.85-0.18-12.14,4.12-14.44,5.88
			C253.32,345.87,251.3,346.59,251.3,346.59z"/>
		<path class="st2" d="M272.76,342.04c0,0-4.21,1.99-7.84,3.93c-3.63,1.94-9.03,5.86-9.03,5.86"/>
		<path class="st2" d="M276.66,347.7c0,0-4.21,1.99-7.84,3.93c-3.63,1.94-9.03,5.86-9.03,5.86"/>
		<path class="st2" d="M280.41,353.49c0,0-4.21,1.99-7.84,3.93c-3.63,1.94-9.03,5.86-9.03,5.86"/>
		<path class="st2" d="M251.3,346.59c0,0-3.56,2.67-5.15,2.53s-2.87-0.65-2.87-0.65"/>
	</g>
	<path class="st7" d="M337.63,372.66c0,0,57.65-12.08,77.33,10.61c19.68,22.68-103.27,106.25-103.27,106.25l-17.64-26l40.06-42.61
		L337.63,372.66z"/>
	<path class="st2" d="M352.2,409.37c0.06-0.68,8.2-7.93,8.2-7.93"/>
	<path class="st7" d="M219.86,425.34c0,0,83.35-94.47,111.14-76.66c27.79,17.8,28.8,138.06,28.8,138.06l-31.26,17.88
		c0,0-15.03-27.86-19.86-48.55s-5.34-30.86-5.34-30.86s-14.07,41.04-32.62,53.39c-18.55,12.35-35.53,1.26-42.85-9.34
		C217.71,454.56,219.86,425.34,219.86,425.34z"/>
	<path class="st2" d="M303.34,425.21c0,0-0.82-10.55-2.12-19.75"/>
	<line class="st2" x1="377.47" y1="308.33" x2="398.67" y2="294.64"/>
</g>
<g id="lamp">
	<ellipse class="st10" cx="274.39" cy="69.37" rx="13.03" ry="23.95"/>
	<path class="st10" d="M296.61,109.18h27.53l-6.2-53.95c-0.42-3.61-3.47-6.34-7.11-6.34l0,0c-3.59,0-6.63,2.66-7.1,6.22
		L296.61,109.18z"/>
	<line class="st2" x1="301.81" y1="68.99" x2="277.99" y2="68.99"/>
	<line class="st2" x1="325.6" y1="115.35" x2="376.27" y2="254.14"/>
	<line class="st2" x1="294.27" y1="114.86" x2="257.53" y2="215.39"/>
	<line class="st2" x1="317.42" y1="124.39" x2="330.97" y2="222.42"/>
</g>
</svg>
