<?xml version="1.0" encoding="utf-8"?>
<!-- Generator: Adobe Illustrator 23.0.2, SVG Export Plug-In . SVG Version: 6.00 Build 0)  -->
<svg version="1.1" xmlns="http://www.w3.org/2000/svg" xmlns:xlink="http://www.w3.org/1999/xlink" x="0px" y="0px"
	 viewBox="0 0 709.97 653.29" style="enable-background:new 0 0 709.97 653.29;" xml:space="preserve">
<style type="text/css">
	.st0{fill:#FFFFFF;stroke:#031F43;stroke-width:2;stroke-linecap:round;stroke-linejoin:round;stroke-miterlimit:10;}
	.st1{fill:#A7CCE9;}
	.st2{fill:none;stroke:#FFFFFF;stroke-width:2;stroke-linecap:round;stroke-linejoin:round;stroke-miterlimit:10;}
	.st3{fill:#031F43;}
	.st4{fill:#E72A8B;}
	.st5{fill:#45D62F;}
	.st6{fill:#F3B63F;}
	.st7{fill:#347CE1;}
	.st8{fill:none;stroke:#031F43;stroke-width:2;stroke-linecap:round;stroke-linejoin:round;stroke-miterlimit:10;}
	.st9{fill:#347CE1;stroke:#031F43;stroke-width:2;stroke-linecap:round;stroke-linejoin:round;stroke-miterlimit:10;}
</style>
<g>
	<path class="st0" d="M426.32,271.08c0,0-13.53-29.64-21.86-30.92s-24.03,1.6-26.27,10.89s-4.16,62.79-3.2,78.81
		c0.96,16.02,2.88,45.17,0.64,50.94c-2.24,5.77-13.13,19.86-15.38,24.67s-5.77,9.93-4.49,10.57c1.28,0.64,9.93-1.92,21.14-15.38
		c11.21-13.46,21.46-16.02,24.03-19.86S426.32,271.08,426.32,271.08z"/>
	<polygon class="st0" points="155.61,390.15 156.21,427.23 163.98,430.22 178.04,425.44 178.04,389.85 	"/>
	<line class="st0" x1="163.98" y1="430.22" x2="163.98" y2="390.75"/>
	<polygon class="st0" points="231.87,373.1 232.47,457.44 240.24,460.43 254.3,455.64 254.3,372.8 	"/>
	<line class="st0" x1="240.24" y1="460.43" x2="240.24" y2="373.7"/>
	<polygon class="st0" points="273.14,325.85 273.74,410.18 281.51,413.18 295.57,408.39 295.57,325.55 	"/>
	<line class="st0" x1="281.51" y1="413.18" x2="281.51" y2="326.45"/>
	<polygon class="st0" points="322.08,343.59 322.67,427.92 330.45,430.91 344.5,426.13 344.5,343.29 	"/>
	<line class="st0" x1="330.45" y1="430.91" x2="330.45" y2="344.19"/>
	<path class="st1" d="M195.48,319.91l-50.29,13.55l3.01,64.45c0,0,2.41-5.12,10.54-4.82c8.13,0.3,68.96,7.23,71.07,9.64
		c2.11,2.41,11.44,9.94,11.44,9.94s12.65-9.94,12.65-14.76s-5.42-19.57-5.42-19.57l113.53-20.78l-1.81-35.54l-56.31-9.03
		L195.48,319.91z"/>
	<polyline class="st2" points="248.48,378.34 234.33,345.21 241.15,412.5 	"/>
	<path class="st2" d="M145.19,333.46c1.2,0.3,89.14,11.74,89.14,11.74l125.88-23.19"/>
	<g>
		<polygon class="st0" points="304.98,243.13 279.82,238.38 190.37,251.41 192.42,323.59 223.34,329.77 310.34,316.26 312.32,311.3 
					"/>
		<polygon class="st0" points="214.81,254.76 222.54,323.82 312.32,311.3 304.98,243.13 		"/>
		<circle class="st3" cx="296.46" cy="255.42" r="4.76"/>
		<circle class="st3" cx="298.28" cy="270.1" r="4.76"/>
		<g>
			
				<rect x="224.36" y="260.43" transform="matrix(0.9926 -0.1211 0.1211 0.9926 -32.0515 29.8344)" class="st3" width="10.1" height="36.33"/>
			
				<rect x="226.85" y="296.61" transform="matrix(0.9926 -0.1211 0.1211 0.9926 -34.4988 30.285)" class="st4" width="10.1" height="4.69"/>
			
				<rect x="227.86" y="301.24" transform="matrix(0.9926 -0.1211 0.1211 0.9926 -35.5002 30.4694)" class="st5" width="10.1" height="12.1"/>
			
				<rect x="234.39" y="259.2" transform="matrix(0.9926 -0.1211 0.1211 0.9926 -31.8295 31.0399)" class="st6" width="10.1" height="36.33"/>
			
				<rect x="236.87" y="295.39" transform="matrix(0.9926 -0.1211 0.1211 0.9926 -34.2768 31.4906)" class="st5" width="10.1" height="4.69"/>
			
				<rect x="237.89" y="300.01" transform="matrix(0.9926 -0.1211 0.1211 0.9926 -35.2782 31.6749)" class="st7" width="10.1" height="12.1"/>
			
				<rect x="244.4" y="257.98" transform="matrix(0.9926 -0.1211 0.1211 0.9926 -31.6078 32.2436)" class="st4" width="10.1" height="36.33"/>
			
				<rect x="246.89" y="294.17" transform="matrix(0.9926 -0.1211 0.1211 0.9926 -34.0552 32.6943)" class="st3" width="10.1" height="4.69"/>
			
				<rect x="247.9" y="298.79" transform="matrix(0.9926 -0.1211 0.1211 0.9926 -35.0565 32.8787)" class="st4" width="10.1" height="12.1"/>
			
				<rect x="254.43" y="256.76" transform="matrix(0.9926 -0.1211 0.1211 0.9926 -31.3858 33.4491)" class="st5" width="10.1" height="36.33"/>
			
				<rect x="256.92" y="292.94" transform="matrix(0.9926 -0.1211 0.1211 0.9926 -33.8332 33.8998)" class="st4" width="10.1" height="4.69"/>
			
				<rect x="257.93" y="297.57" transform="matrix(0.9926 -0.1211 0.1211 0.9926 -34.8345 34.0842)" class="st6" width="10.1" height="12.1"/>
			
				<rect x="264.54" y="255.53" transform="matrix(0.9926 -0.1211 0.1211 0.9926 -31.1621 34.6641)" class="st7" width="10.1" height="36.33"/>
			
				<rect x="267.02" y="291.71" transform="matrix(0.9926 -0.1211 0.1211 0.9926 -33.6094 35.1148)" class="st6" width="10.1" height="4.69"/>
			
				<rect x="268.04" y="296.33" transform="matrix(0.9926 -0.1211 0.1211 0.9926 -34.6108 35.2992)" class="st3" width="10.1" height="12.1"/>
			
				<rect x="274.55" y="254.3" transform="matrix(0.9926 -0.1211 0.1211 0.9926 -30.9404 35.8678)" class="st6" width="10.1" height="36.33"/>
			
				<rect x="277.04" y="290.49" transform="matrix(0.9926 -0.1211 0.1211 0.9926 -33.3878 36.3185)" class="st3" width="10.1" height="4.69"/>
			
				<rect x="278.05" y="295.11" transform="matrix(0.9926 -0.1211 0.1211 0.9926 -34.3891 36.5029)" class="st5" width="10.1" height="12.1"/>
		</g>
		<line class="st8" x1="214.81" y1="254.76" x2="190.91" y2="252.56"/>
	</g>
	<path class="st0" d="M402.85,262.59c0,0-7.69-22.1-16.02-23.39c-8.33-1.28-24.03,1.6-26.27,10.89c-2.24,9.29-4.16,62.79-3.2,78.81
		s2.88,45.17,0.64,50.94s-13.13,19.86-15.38,24.67s-5.77,9.93-4.49,10.57c1.28,0.64,9.93-1.92,21.14-15.38
		c11.21-13.46,21.46-16.02,24.03-19.86C385.88,376,402.85,262.59,402.85,262.59z"/>
	<path class="st9" d="M376.26,294.63c0,0,7.37,25.31,5.77,32.04c-1.6,6.73-0.96,24.99-1.6,33c-0.64,8.01-5.77,28.19-9.61,30.11
		s-2.49,1.39-2.49,1.39s6.98,2.45,26.84,2.45c19.86,0,42.93-5.77,58.95-2.88c16.02,2.88,42.93-2.88,44.53-3.84
		c1.6-0.96,6.41-22.75,5.13-45.17c-1.28-22.43,2.56-57.02,2.56-57.02s-21.78-1.28-33.64,0.96c-11.85,2.24-35.24-19.22-35.24-19.22
		l-16.34,9.29c0,0-1.6,7.69-1.6,10.89s0.32,8.33,0.32,8.33l-9.61-20.5L376.26,294.63z"/>
	<line class="st8" x1="367.29" y1="264.83" x2="374.02" y2="283.41"/>
	<polygon class="st3" points="529.54,381.21 436.98,384.45 349.92,387.36 350.25,396.1 438.92,400.95 441.51,393.18 530.19,391.89 	
		"/>
	<polygon class="st3" points="454.13,476.36 548.11,464.7 547.66,472.8 456.07,483.48 	"/>
	<path class="st0" d="M446.74,214.54c0,0-18.26,9.93-26.59,21.78c-8.33,11.85-24.03,27.87-33.96,34.92
		c-9.93,7.05-30.11,16.02-33.64,18.58c-3.52,2.56-7.69,11.21-6.09,15.7c1.6,4.49,11.21,15.06,11.21,15.06l-1.28-11.53
		c0,0,29.15-10.25,36.52-14.1c7.37-3.84,24.35-14.74,28.19-19.22c3.84-4.49,16.34-9.29,16.34-9.29s2.56,29.47,3.2,34.6
		s63.63-4.51,65.35-4.49c1.37,0.02,3.81-61.75-4.28-80.97c-4.97-11.83-8.86-15.78-16.55-16.1
		C477.5,199.16,447.7,214.22,446.74,214.54z"/>
	<path class="st8" d="M446.74,214.54c0,0,16.35,12.9,20.26,46c3.91,33.1,1.81,33.1,1.81,33.1"/>
	<path class="st3" d="M518.86,325.22c0,0,18.77-51.46,17.8-53.4c-0.97-1.94-9.71-2.59-9.71-2.59l-2.59,8.74
		c0,0-30.75,1.29-45.96,0.65c-15.21-0.65-39.48-2.91-39.48-2.91s0.3-10.13-1.47-9.27s-4.36-2.7-8.24,7.65s-74.11,225.9-74.11,225.9
		l13.27,1.29l63.76-200.65c0,0,32.36,4.53,49.19,3.88c16.83-0.65,34.63-0.32,34.63-0.32l-57.61,163.44l11.33-0.32L518.86,325.22z"/>
	<polygon class="st3" points="425,312.92 467.72,521.67 460.93,526.2 455.75,524.26 417.25,330.48 	"/>
	<polygon class="st3" points="512.18,333.35 520.77,313.42 560.93,497.72 556.4,499.66 547.34,496.75 	"/>
	<path class="st3" d="M440.3,130.34c0,0-13.34,4.57-18.35,15.91c-3.63,8.22-5.13,19.23-5.13,19.23s4.7,1.71,6.41,2.99
		c1.71,1.28,5.98,16.67,5.56,22.65c-0.43,5.98,7.27,22.65,11.97,26.93c4.7,4.27,9.83,4.27,9.83,4.27l-4.27-4.27
		c0,0,4.7,1.71,16.24,0.43c6.79-0.75,15.94-6.68,22.32-11.44c4.99-3.71,8.2-9.32,8.95-15.5c0.44-3.64,0.73-7.17,0.35-8.11
		c-0.85-2.14,1.71,12.82,1.71,12.82s5.56-8.12,1.28-20.09c-4.27-11.97-9.83-27.78-12.39-34.62c-2.56-6.84-12.38-19.44-20.85-20.36
		C449.07,119.59,440.3,130.34,440.3,130.34z"/>
</g>
</svg>
