<?xml version="1.0" encoding="utf-8"?>
<!-- Generator: Adobe Illustrator 23.0.2, SVG Export Plug-In . SVG Version: 6.00 Build 0)  -->
<svg version="1.1" xmlns="http://www.w3.org/2000/svg" xmlns:xlink="http://www.w3.org/1999/xlink" x="0px" y="0px"
	 viewBox="0 0 709.97 653.29" style="enable-background:new 0 0 709.97 653.29;" xml:space="preserve">
<style type="text/css">
	.st0{fill:#FFFFFF;}
	.st1{fill:#A7CCE9;}
	.st2{fill:none;stroke:#031F43;stroke-width:2;stroke-linecap:round;stroke-linejoin:round;stroke-miterlimit:10;}
	.st3{fill:#45D62F;stroke:#031F43;stroke-width:2;stroke-linecap:round;stroke-linejoin:round;}
	.st4{fill:#031F43;}
	.st5{fill:#E72A8B;}
	.st6{fill:#FFFFFF;stroke:#031F43;stroke-width:2;stroke-linecap:round;stroke-linejoin:round;stroke-miterlimit:10;}
	.st7{fill:none;stroke:#45D62F;stroke-width:2;stroke-linecap:round;stroke-linejoin:round;stroke-miterlimit:10;}
	.st8{fill:#347CE1;}
	.st9{fill:#F3B63F;}
</style>
<path class="st0" d="M345.14,163.17c0,0-4.11,5.39-4.24,12.33s-1.28,19.14,1.93,30.7c3.21,11.56,6.81,17.6,9.63,20.81
	c2.83,3.21,14.64,6.68,20.55,5.01c5.91-1.67,26.59-35.19,24.53-45.98c-2.05-10.79,0.26-28-9.76-31.72
	C377.76,150.59,345.14,163.17,345.14,163.17z"/>
<g>
	<g>
		<polygon class="st1" points="182.49,592.78 395.51,515.49 395.51,482.83 378.3,476.88 379.84,461.21 282.31,427.67 233.77,428.77 
			182.49,429.43 		"/>
		<path class="st2" d="M435.74,389.53c0,0,14.66,98.5,6.3,156.03c-4.05,27.86-8.5,44.85-8.5,44.85"/>
		<path class="st3" d="M322.33,316.15c0,0-17.56,19.78-32.01,23.34c-14.45,3.56-23.79,4.67-23.79,4.67l33.34-86.03
			c0,0,16.67-12.45,22.67-14.45C328.56,241.68,322.33,316.15,322.33,316.15z"/>
		<path class="st3" d="M410.12,242.2c0,0,3.42,3.96,11.7,6.66c8.28,2.7,20.71,6.12,27.55,16.21c6.84,10.08,14.59,34.03,14.59,46.1
			s2.52,61.04,2.34,69.14c-0.18,8.1,0,31.51-1.62,39.25c-1.62,7.74-7.02,21.61-9.9,25.39c-2.88,3.78-7.92,10.44-8.82,14.41
			c-0.9,3.96-4.32,16.21-9.36,21.43c-5.04,5.22-17.65,11.52-17.65,11.52l-18.91,14.77c0,0,1.62-13.68-2.88-24.13
			c-4.5-10.44-9.54-15.67-9.54-15.67l8.46-3.78c0,0,0.54-9.72,6.12-17.29c5.58-7.56,12.78-12.96,16.57-20.89
			c3.78-7.92,7.02-37.63,7.02-37.63s-22.51,0-32.59-1.8c-10.08-1.8-32.23-2.16-41.95-5.58c-9.72-3.42-15.31-6.12-15.31-6.12
			s-0.18-9.72-4.5-16.57s-9.9-20.71-11.34-27.91c-1.44-7.2-4.68-42.67-6.12-54.2c-1.44-11.52-1.44-27.55,5.04-31.15
			c6.48-3.6,19.99-5.4,27.01-6.66C353.04,236.44,410.12,242.2,410.12,242.2z"/>
		<g>
			<path class="st4" d="M357.05,144.77c0,0,5.69-17.69,30.93-15.23c16.44,1.6,31.8,14.29,29.26,40.18
				c-2,20.41-10.31,17.14-10.31,17.14L357.05,144.77z"/>
			<path class="st5" d="M351.39,142.8c0,0,7.59-12.29,25.68-9.78c22.85,3.17,31.41,17.02,32.04,34.48
				C409.59,180.68,351.39,142.8,351.39,142.8z"/>
			<path class="st4" d="M387.05,185.22c-1.35-8.35,3.16-14.75-6.55-19.66c-10.04-5.07-13.75-0.04-26.7,4.92
				c-5.76,2.21-12.12,0.38-12.12,0.38s-8.46-9.12,1.43-22.92c18.01-25.13,76.36-0.29,70.81,37.27c-3.76,25.44,2.63,35.58,17,37.85
				c3.77,0.59-7.94,19-20.68,21.15c-21.26,3.58-22.54-7.32-22.54-7.32l3.79-41.02C391.49,195.87,388.31,193.04,387.05,185.22z"/>
			<path class="st6" d="M391.43,196.86c0,0,2.71-5.96,8.08-5.09c5.37,0.87,6.78,9.13,3.53,13.86c-2.32,3.38-6.56,5.55-8.79,6.51
				c-0.92,0.4-1.57,1.22-1.74,2.2l-3.53,20.39c-1.14,6.58-8.33,12.64-15,12.93c-11.29,0.48-17.14-2.19-17.14-2.19
				s-1.62-19.82,0.22-19.38c12.43,2.98,19.17-2.59,19.15-3.01"/>
			<path class="st2" d="M366.61,208.43c0,0-6.12,0.25-8.16,0.33c-1.65,0.07-6.6,0.27-6.6,0.27s1.23,6.64,7.86,6.44
				C366.23,215.27,366.61,208.43,366.61,208.43z"/>
			<path class="st3" d="M346.45,183.62c0.01,0.17-0.8,3.74,2.96,3.8c3.31,0.05,3.14-3.81,3.14-3.81"/>
			<g>
				<path class="st3" d="M369.48,183.76c0.16,0.05-0.81,3.95,2.95,4.01c3.31,0.05,3.01-3.28,3.01-3.28"/>
				<path class="st2" d="M365.89,186.6c0,0,4.06-7.19,13.42-0.18"/>
			</g>
			<path class="st2" d="M357.06,226.11c-5.71-1.66-9.8-4.21-13.62-16.43c-3.82-12.23-3.28-41.84-1.26-43.1"/>
			<path class="st4" d="M347.39,219.52c0,0-0.35,5.35-6.08,9.64c-3.79,2.84-11.13,2.92-11.13,2.92s2.75,6.69,12.35,10.59
				c6.17,2.5,14.15,0.52,14.15,0.52l-0.36-17.15L347.39,219.52z"/>
			<path class="st2" d="M343.47,185.36c0,0,3.42-3.36,7.57-2.36c2.37,0.57,5.95,2.87,4.62,8.71c-0.94,4.14-2.86,8.98-2.86,8.98
				s5.3,2.07,8.14,0.58"/>
		</g>
		<polygon class="st3" points="356.79,233.54 368.98,247.21 344.32,266.69 347.15,240.91 		"/>
		<polygon class="st3" points="368.98,247.21 385.88,271.86 414.15,243 397.77,226.68 		"/>
		<path class="st2" d="M367.86,249.21c0,0-1.8,55.32,1.2,76.67c3.01,21.35,5.71,33.68,6.92,41.79c1.2,8.12,1.33,16.28,1.33,16.28"/>
		<path class="st2" d="M396.07,463.5c0,0,14.35,0.51,20.09,10.19c5.75,9.68,2.77,18.62,2.77,18.62"/>
		<path class="st2" d="M425.78,387.69c0,0,3.02-14.73,1.91-28.51s-6.08-49.06-6.08-56.84"/>
		<path class="st2" d="M347.51,385.78l-9.06,7.66l6.85,14.63c0,0,16.02-3.95,27.17-1.86s29.72,9.87,29.72,9.87l12.77-10.45
			l-6.04-13.58c0,0-19.27,2.44-31.81-0.12C364.57,389.38,347.39,385.78,347.51,385.78z"/>
		<circle class="st2" cx="405.02" cy="402.6" r="4.73"/>
		<circle class="st2" cx="348.1" cy="396.21" r="4.73"/>
		<polygon class="st1" points="182.49,257.51 208.93,214.58 268.32,219.52 317.44,258.36 182.49,493.57 		"/>
		<polyline class="st2" points="193.51,239.23 255.27,245.06 304.11,282.73 		"/>
		<path class="st2" d="M268.32,219.52c0,1.14-71.96,134.02-71.96,134.02"/>
		<line class="st2" x1="286.02" y1="270.05" x2="199.14" y2="427.42"/>
		<line class="st2" x1="226.08" y1="435.48" x2="257.9" y2="447.65"/>
		<path class="st2" d="M211.58,461.31l60.86-16.85c0,0,7.65,9.68,21.11,16.68c11.84,6.15,50.65,8.5,50.65,8.5l-128.8,41.49
			l-15.66-6.5"/>
		<polyline class="st2" points="332.3,474.02 345.12,478.35 344.93,484.19 218.45,522.27 202.62,516.05 		"/>
		<polyline class="st2" points="345.12,478.35 218.83,516.99 201.67,510.58 		"/>
		<polyline class="st2" points="202.87,531.38 219.86,541.09 221.63,577.27 		"/>
		<line class="st2" x1="201.99" y1="546.16" x2="395.51" y2="482.83"/>
		<polyline class="st2" points="377.42,521.45 376.97,489.23 346.52,479.74 		"/>
		<path class="st2" d="M387.61,467.28c0,0-0.68-8.55-2.27-9.3c-2.11-0.99-4.95-5.2-6.07-6.32c-1.11-1.11-4.71-0.42-5.33,1.61
			c-0.87,2.85,0,5.57,0,5.57"/>
		<path class="st2" d="M400.18,501.78c0,0-4.04,2.53-4.04,2.3"/>
		<path class="st2" d="M233.77,428.77c0.16-1.49,144.53,48.1,144.53,48.1"/>
		
			<ellipse transform="matrix(0.065 -0.9979 0.9979 0.065 -142.1114 851.3451)" class="st2" cx="383.26" cy="501.51" rx="2.9" ry="2.1"/>
		
			<ellipse transform="matrix(0.1515 -0.9885 0.9885 0.1515 -183.3456 796.8546)" class="st2" cx="372.46" cy="505.22" rx="2.9" ry="2.1"/>
		
			<ellipse transform="matrix(0.1515 -0.9885 0.9885 0.1515 -353.5246 694.3776)" class="st2" cx="227.68" cy="553.1" rx="2.9" ry="2.1"/>
		
			<ellipse transform="matrix(0.1515 -0.9885 0.9885 0.1515 -377.4323 679.7475)" class="st2" cx="207.21" cy="559.71" rx="2.9" ry="2.1"/>
		<line class="st2" x1="379.84" y1="461.21" x2="344.57" y2="464.89"/>
		<path class="st2" d="M330.16,459.71c0.11-0.34,25.86-1.91,25.86-1.91l-38.11-13.49c0,0-31.36,1.35-31.48,1.01"/>
		<path class="st2" d="M357.62,528.97l35.02,14.88c2.73,1.17,4.49,3.86,4.49,6.82v5.57l-95.05,34.92"/>
		<line class="st2" x1="395.82" y1="548.77" x2="283.4" y2="591.16"/>
		<path class="st2" d="M335.93,374.19c0,0-5.3,20.71-12.25,38.91c-6.95,18.2-8.59,25.15-8.59,25.15"/>
	</g>
	<line class="st7" x1="348.34" y1="180.5" x2="223" y2="146.26"/>
	<line class="st7" x1="374.79" y1="181.56" x2="249.76" y2="146.21"/>
	<line class="st7" x1="339.05" y1="187.73" x2="260.71" y2="187.04"/>
	<line class="st7" x1="375.96" y1="189.76" x2="297.98" y2="197.28"/>
	<g>
		<circle class="st4" cx="575.19" cy="86.29" r="2.4"/>
		<polygon class="st4" points="574.43,86.33 567.27,96.56 572.64,98.43 575.31,86.99 		"/>
		<path class="st8" d="M513.4,104.92c0,0-52.44-1.94-58.06,2.5c-5.62,4.45,181.41,91.93,181.41,91.93s5.52-8.86-10.76-28.95
			c-16.28-20.09-29.25-31-29.25-31s-31.3-29.75-43.22-33.06C541.59,103.03,513.4,104.92,513.4,104.92z"/>
		<path class="st4" d="M514.49,105.09c0,0,21.04-22.09,53.72-11.59s29.88,46.92,29.88,46.92s-9.84-9.62-33.75-21.71
			C535.75,104.26,514.49,105.09,514.49,105.09z"/>
		<path class="st9" d="M637.55,199.98c-4.79,8.61-51.28-1.51-102.68-25.82c-51.42-24.32-86.77-54.25-82.21-64.72
			c3.93-9.03,52.45-1.63,103.51,23.4C610.67,159.56,643.29,189.68,637.55,199.98z"/>
		<path class="st4" d="M501.97,141.16c0,0,16.89-1.52,43.88,13C570.8,167.58,579.13,181,579.13,181s-11.93,2.61-20.24,2.41
			c-21.42-0.52-38.66-6.61-52.38-29.85C501.87,145.7,501.97,141.16,501.97,141.16z"/>
		<line class="st7" x1="507.45" y1="163.47" x2="437.13" y2="217.06"/>
		<line class="st7" x1="448.74" y1="248.99" x2="510.5" y2="171.39"/>
		<line class="st7" x1="539.62" y1="186.95" x2="510.9" y2="444.27"/>
		<line class="st7" x1="551.77" y1="186.08" x2="577.88" y2="343.42"/>
	</g>
</g>
<path class="st0" d="M390.28,467.77"/>
</svg>
