<?xml version="1.0" encoding="utf-8"?>
<!-- Generator: Adobe Illustrator 23.0.2, SVG Export Plug-In . SVG Version: 6.00 Build 0)  -->
<svg version="1.1" xmlns="http://www.w3.org/2000/svg" xmlns:xlink="http://www.w3.org/1999/xlink" x="0px" y="0px"
	 viewBox="0 0 709.97 653.29" style="enable-background:new 0 0 709.97 653.29;" xml:space="preserve">
<style type="text/css">
	.st0{fill:#A7CCE9;}
	.st1{fill:#45D62F;}
	.st2{fill:none;stroke:#031F43;stroke-width:2;stroke-linecap:round;stroke-linejoin:round;stroke-miterlimit:10;}
	.st3{fill:#E72A8B;}
	.st4{fill:#031F43;}
	.st5{fill:#347CE1;}
	.st6{fill:#F3B63F;stroke:#031F43;stroke-width:2;stroke-linecap:round;stroke-linejoin:round;}
	.st7{fill:#FFFFFF;stroke:#031F43;stroke-width:2;stroke-linecap:round;stroke-linejoin:round;stroke-miterlimit:10;}
	.st8{fill:#FFFFFF;}
</style>
<path class="st0" d="M471.62,463.33c0,0,58.96-21.11,66.93-27.29c7.97-6.17,56.57-26.09,64.93-22.51s13.19,14.74,11.67,21.81
	c-3.3,15.4-23.82,31.18-35.37,35.16s-52.78,6.17-64.74,7.57C503.09,479.46,471.62,463.33,471.62,463.33z"/>
<path class="st1" d="M527.2,464.9c0,0-14.12,2.37-13.32,12.08c0.79,9.72,6.03,11.34,10.55,11.48c4.52,0.14,28.5,1.53,36.9,2.6
	c8.41,1.07,19.51-2.43,20.48-12.83s-4.84-14.91-19.49-16C547.68,461.14,527.2,464.9,527.2,464.9z"/>
<path class="st2" d="M567.07,462.94c0,0,9.43,1.05,10.05,13.76c0.62,12.71-11.03,14.25-11.03,14.25"/>
<path class="st2" d="M531.49,471.31c0,0-4.76,6.11-0.03,12.39"/>
<path class="st2" d="M537.69,471.03c0,0-4.76,6.11-0.03,12.39"/>
<path class="st2" d="M544.47,470.96c0,0-4.76,6.11-0.03,12.39"/>
<g>
	<path class="st1" d="M454.94,464.9c0,0,14.12,2.37,13.32,12.08s-6.03,11.34-10.55,11.48c-4.52,0.14-28.5,1.53-36.9,2.6
		c-8.41,1.07-19.51-2.43-20.48-12.83c-0.97-10.4,4.84-14.91,19.49-16C434.46,461.14,454.94,464.9,454.94,464.9z"/>
	<path class="st2" d="M415.06,462.94c0,0-9.43,1.05-10.05,13.76s11.03,14.25,11.03,14.25"/>
	<path class="st2" d="M450.65,471.31c0,0,4.76,6.11,0.03,12.39"/>
	<path class="st2" d="M444.45,471.03c0,0,4.76,6.11,0.03,12.39"/>
	<path class="st2" d="M437.67,470.96c0,0,4.76,6.11,0.03,12.39"/>
</g>
<path class="st0" d="M411.46,414.13c0,0-11.55,0-15.54,11.75s-2.39,20.91,16.93,35.85c19.32,14.94,54.38,25.7,69.52,29.08
	c15.14,3.39,36.05,6.53,35.85,5.73c-0.2-0.8,1.44-6.58,2.88-15.21c0.87-5.19,1.85-17.05,1.85-17.05s-54.72-14.9-58.1-23.67
	c-3.39-8.76-7.97-15.54-14.54-18.33C443.73,419.51,411.06,414.92,411.46,414.13z"/>
<path class="st3" d="M423.42,346.94c0,0,31.53-36.07,40.73-36.07c9.2,0,72.95-0.95,79.61,0.95c6.66,1.9,42.96,33.34,42.96,33.34
	l-22.09,37.62l-6.95-7.37l-14.56,55.99c0,0-40.28,6.03-52.01,6.03c-11.74,0-28.86-9.51-28.86-9.51l-8.45-55.45l-13.19,11.84
	L423.42,346.94z"/>
<path class="st4" d="M477.21,428.55c0,0,5.37-0.36,9.48,0.72c4.11,1.07,6.26,4.83,6.26,4.83l21.82-0.36c0,0,3.76-4.83,9.48-5.37
	s13.06,3.22,13.06,3.22s4.29,16.46,0.36,20.21c-3.94,3.76-12.34,2.33-15.21,2.86c-2.86,0.54-39,2.5-39,2.5s-13.24-3.04-14.31-10.02
	c-1.07-6.98,2.33-15.38,3.04-16.1C472.92,430.34,477.21,428.55,477.21,428.55z"/>
<path class="st5" d="M134.94,391.73c1.23,0.41,38.92,63.09,45.89,70.06s24.99,20.9,42.61,24.99s55.31,3.69,62.28,2.05
	c6.97-1.64,61.87-77.84,60.23-83.99c-1.64-6.15-36.05-12.7-52.44-11.88c-16.39,0.82-84.81,15.98-99.97,10.24
	S134.94,391.73,134.94,391.73z"/>
<path class="st6" d="M229.55,268.37c0,0,6.41,8.4,19.23,6.63c12.82-1.77,22.32-11.05,25.64-17.24c3.32-6.19,4.2-18.34,4.2-18.34
	s40.22-1.99,56.14,8.62c15.91,10.61,32.89,55.73,32.89,55.73l-39.3,21.84l8.18,63.43l-21.66,15.47l-94.81-0.22l-26.74-28.53
	l-1.59-5.44c0,0-13.01-43.6-13.23-69.9c-0.22-26.3,34.48-45.97,34.48-45.97L229.55,268.37z"/>
<g>
	<path class="st1" d="M223.94,459.52c0,0,16.22,2.72,15.31,13.88s-6.92,13.03-12.12,13.19s-32.74,1.76-42.39,2.99
		c-9.66,1.23-22.41-2.79-23.53-14.74s5.56-17.13,22.38-18.38S223.94,459.52,223.94,459.52z"/>
	<path class="st2" d="M178.13,457.27c0,0-10.83,1.2-11.54,15.8c-0.71,14.6,12.67,16.37,12.67,16.37"/>
	<path class="st2" d="M219.01,466.88c0,0,5.47,7.02,0.04,14.24"/>
	<path class="st2" d="M211.88,466.56c0,0,5.47,7.02,0.04,14.24"/>
	<path class="st2" d="M204.1,466.48c0,0,5.47,7.02,0.04,14.24"/>
</g>
<path class="st7" d="M521.97,314.26c0,15.6-9.58,30.35-21.4,30.35s-21.4-14.75-21.4-30.35c0-15.6,9.58-28.26,21.4-28.26
	S521.97,298.65,521.97,314.26z"/>
<path class="st4" d="M486.96,278.65c0,0-21.6,9.61-18.35,27.67c4.45,24.69-8.29,33.51-8.29,33.51s3.11,6.11,16.92,9.27
	c6.82,1.56,10.24-0.61,10.24-0.61s-2.66-14.31-4.5-20.82C477.38,307.83,486.96,278.65,486.96,278.65z"/>
<path class="st4" d="M519.36,309.82c0.23-5.76-5.48-11.54-11.24-11.28c-2.26,0.1-4.86,0.57-7.78,1.66
	c-11.66,4.35-24.21-3.13-24.21-3.13s-1.15-9.82,8.18-20.57c10.54-12.13,39.1-8.34,48.67,5.8c10.22,15.1,4.99,23.49,14.4,36.85
	c13.18,18.7,9.95,30.06,9.95,30.06s-16.09,4.36-25.4,9.08c-14.05,7.12-17.51-9.32-17.51-9.32L519.36,309.82z"/>
<path class="st2" d="M493.75,315c-0.47,2.19-1.77,6.45-1.77,6.45s3.21,1.93,5.33,0.91"/>
<path class="st2" d="M496.73,330.32c0,0,3.78-0.16,6.3-1.52c2.52-1.37,2.89-2.78,2.89-2.78s-1.81-3.15-3.7-1.63
	s-0.88,3.73-0.88,3.73"/>
<circle class="st4" cx="506.85" cy="310.9" r="1.63"/>
<circle class="st4" cx="488.52" cy="310.9" r="1.63"/>
<path class="st7" d="M426.68,354.19c0,0-15.66,16.23-23.89,26.25c-6.85,8.33-10.91,16.28-10.68,22.42
	c0.15,3.92,25.04,19.22,43.25,24.79c18.21,5.56,24.28,7.08,24.03,9.11c-0.25,2.02-1.34,13.9,2.05,17.6
	c3.39,3.7,10.58,3.39,10.58,3.39s13.33,2.6,14.07,1.34c1.36-2.31-3.6-4.21-5.44-5.03s-7.7-5.75-7.7-5.75l0.21-12.22
	c0,0,5.03,4.83,7.91,4.42c2.88-0.41,1.34-4.31-0.72-10.07c-2.05-5.75-4.83-10.89-7.29-10.68s-4.62,1.13-5.85,0.41
	s-21.37-7.5-27.43-13.87c-6.06-6.37-10.92-12.89-10.92-12.89l10.81-11.05"/>
<path class="st7" d="M566.12,380.39l13.41,12.93c0,0-6.44,8.05-14.31,12.7s-22.9,14.49-25.58,14.49c-2.68,0-8.94-0.36-9.48,2.5
	c-0.54,2.86-3.4,10.02-4.83,11.63c-1.43,1.61,0,5.01,1.61,5.55s7.16-4.29,7.16-4.29s1.79,10.2,0.72,11.99
	c-1.07,1.79-2.68,5.72-4.29,5.72s-7.16-0.36-8.05,1.07c-0.89,1.43-1.43,4.11-0.72,4.47c0.72,0.36,11.45,0.36,13.06,0
	c1.61-0.36,3.04-1.61,3.04-1.61s3.04,1.61,5.9,0c2.86-1.61,5.37-5.72,5.37-5.72l1.43-15.56c0,0,35.06-12.16,43.47-15.92
	s18.42-11.99,21.29-18.07s-23.37-39.43-32.85-49.8"/>
<path class="st2" d="M483.48,308.73c0,0,2.99-4.49,6.53-5.44"/>
<path class="st2" d="M502.67,306.73c0,0,5.19-1.47,8.5,0.11"/>
<path class="st7" d="M242.08,341.24v-2.33c0,0,2.83,1.33,5.32,0.66c2.49-0.66,2.83-3.32,1.5-4.32c-1.33-1-2.83-8.14-6.81-6.98
	c-3.99,1.16-7.64,15.62-7.64,15.62L242.08,341.24z"/>
<path class="st7" d="M300.8,330.75l28.58,3.18l-3.86-9.3l38.33-19.05c0,0,6.58,29.94,5.9,44.23c-0.68,14.29-14.52,21.09-22.68,22.23
	c-8.17,1.13-46.72-20.19-49.45-20.64C294.91,350.94,300.8,330.75,300.8,330.75z"/>
<path class="st2" d="M329.38,333.93c0,0,16.1-0.23,23.59,4.99"/>
<path class="st4" d="M283.6,321.08l-58.61,26.68l8.84,16.19c0,0,22.63-10.19,23.38-11.54c0.75-1.35,4.8-4.65,8.24-6.6
	c3.45-1.95,15.74-2.25,15.74-2.25s10.19-5.1,10.49-9.44S283.6,321.08,283.6,321.08z"/>
<path class="st5" d="M269.32,452.78c0-1.64,34.01-42.61,55.31-60.64c21.3-18.03,57.36-42.61,73.34-31.14
	c15.98,11.47,6.56,43.02-0.41,54.08s-53.26,55.31-60.64,59.41c-7.37,4.1-76.71,13.6-76.71,13.6l-0.31-23.03L269.32,452.78z"/>
<path class="st7" d="M256.47,440.61c0,0,11.7,10.24,23.4,14.26c11.7,4.02,31.08,8.78,31.08,8.78l-25.24,25.19
	c0,0-40.21-17.51-46.79-24.09S256.47,440.61,256.47,440.61z"/>
<path class="st7" d="M273.16,326.61c0,0,0.66-3.49-0.33-4.99s-4.15-4.65-1.16-7.31c2.99-2.66,8.97-0.66,10.47,2.16
	c1.5,2.83,2.66,4.65,4.15,3.82c1.5-0.83,5.65-3.49,7.64-1.33s4.32,5.65,5.48,5.98c1.16,0.33,4.65,3.82,4.99,5.48s0.33,5.15,1,7.64
	s0.17,8.97-0.83,10.64s-12.63,8.64-14.46,9.14c-1.83,0.5-6.32-3.66-6.32-3.66s-2.83,0.17-4.49-1.16c-1.66-1.33-2.66-2.99-2.66-2.99
	s-2.33,0.66-3.99-1.5c-1.66-2.16,2.99-4.15,5.48-5.82s9.31-8.48,9.31-8.48s-11.47,6.15-14.62,7.15s-4.15-1.66-3.66-2.99
	c0.5-1.33,14.62-10.47,15.12-11.8c0.5-1.33-0.83-3.32-1.99-2.66C281.14,324.62,273.16,326.61,273.16,326.61z"/>
<path class="st7" d="M233.21,357.4c0,0,6.72-4.19,11.2-5.36c4.49-1.16,10.47-4.15,9.97-6.48c-0.5-2.33-12.96-1.83-19.78,1.5
	c-6.81,3.32-18.78,7.64-22.77,11.97c-3.99,4.32-15.46,20.77-15.46,20.77l17.28,14.79c0,0,31.74-10.3,33.74-12.8s0.33-5.15,0.33-5.15
	s7.48-2.99,8.14-6.32c0.66-3.32-0.66-5.32-0.66-5.32s2.16-2.83,2.16-4.65c0-1.83,3.16-5.32,1.99-7.48s-3.99-1.83-5.65-0.66
	c-1.66,1.16-6.15,4.82-9.47,5.65C240.92,358.69,233.21,357.4,233.21,357.4z"/>
<path class="st5" d="M265.63,446.63c0,0-70.06-80.3-93-93.41c-22.94-13.11-40.56-16.39-48.76-4.51
	c-8.19,11.88-2.87,33.19,15.16,52.03c18.03,18.85,105.7,81.53,105.7,81.53L265.63,446.63z"/>
<g>
	<path class="st1" d="M294.53,463.17c0,0-16.22,2.72-15.31,13.88s6.92,13.03,12.12,13.19s32.74,1.76,42.39,2.99
		s22.41-2.79,23.53-14.74c1.12-11.95-5.56-17.13-22.38-18.38S294.53,463.17,294.53,463.17z"/>
	<path class="st2" d="M340.34,460.92c0,0,10.83,1.2,11.54,15.8c0.71,14.6-12.67,16.37-12.67,16.37"/>
	<path class="st2" d="M299.46,470.53c0,0-5.47,7.02-0.04,14.24"/>
	<path class="st2" d="M306.59,470.22c0,0-5.47,7.02-0.04,14.24"/>
	<path class="st2" d="M314.38,470.14c0,0-5.47,7.02-0.04,14.24"/>
</g>
<path class="st2" d="M266.62,443.7l-21.88,38.57c0,0-86.72-61.02-102.69-77.87"/>
<path class="st2" d="M271.32,447.91c0.81-0.27,42.61-52.05,71.19-69.04"/>
<path class="st2" d="M522.95,464.28c0,0-0.82,8.42-1.85,17.05s-2.88,15.21-2.88,15.21s-90.2-10.89-111.16-39.86"/>
<path class="st8" d="M277.67,239.4l-21.1,1.15l-3.76-8.4c0,0,2.98,0,3.78-2.11c0.8-2.11,0.87-3.2-0.36-8.28
	c-1.23-5.08-2.03-6.9-4.07-7.05c-2.03-0.15-3.63,0.65-3.63,0.65s-14.38-13.22-20.7-12.35c-6.32,0.87-21.5,10.31-21.5,10.31
	l-11.55,10.46c0,0,12.71,30.36,15.47,34.35c2.76,3.99,12.42,12.13,17.79,12.64c5.37,0.51,5.49-0.13,5.49-0.13s6.21,4.59,14.5,3.6
	c10.17-1.22,16.73-7.11,20-10.09c3.27-2.98,6.55-8.25,7.84-12.7C277.22,246.79,277.67,239.4,277.67,239.4z"/>
<path class="st2" d="M192.91,220.19c0,0,11.73,29.03,16.59,36.23c4.86,7.2,15.14,16.75,24.27,14.33c9.13-2.42,13.75-9.84,15.4-17.58
	"/>
<path class="st2" d="M249.11,215.76c0,0,3.16-2.88,5.15-0.02c1.99,2.86,4.11,12.28,2.2,14.4c-1.91,2.12-3.56,1.75-3.56,1.75
	l5.52,13.65"/>
<path class="st2" d="M256.38,240.24c0,0,17.65-0.68,22.46-0.57"/>
<path class="st4" d="M250.96,214.67c0,0-0.97,7.29-4.14,8.44c-3.17,1.16-8.02-3.82-10.51-7s-5.07-10.34-17.15-2.54
	c-12.07,7.79-18.28,11.24-23.99,10.51c-6.75-0.86-8.82-7.94-9.57-12.75c-0.7-4.53,1.84-16.67,2.27-16.61
	c0.43,0.06,6.41,3.54,11.95,2.02c5.54-1.51,26.69-11.49,34.87-7.62c8.18,3.87,10.43,10.65,12.12,14.9
	C248.48,208.26,250.96,214.67,250.96,214.67z"/>
<circle class="st4" cx="228.89" cy="233.26" r="1.58"/>
<circle class="st4" cx="208.28" cy="240.52" r="1.58"/>
<line class="st2" x1="227.84" y1="221.82" x2="222.76" y2="229.52"/>
<path class="st2" d="M211.8,232.98c0,0-8.05,0.21-7,0.45"/>
<path class="st2" d="M218.64,240.82c0,0,1.52,3.76,1.58,6.36c0.07,2.6,0.05,4.37,0.05,4.37s2.16,0.37,4.91-1.2"/>
<path class="st2" d="M227.8,256.47c0,0,3.23-0.59,6.23-2.87c3-2.28,4.47-4.32,4.47-4.32s2.08,3.15,1.21,5.08
	c-0.87,1.93-3.86,0-3.86,0"/>
</svg>
