<?xml version="1.0" encoding="utf-8"?>
<!-- Generator: Adobe Illustrator 23.0.2, SVG Export Plug-In . SVG Version: 6.00 Build 0)  -->
<svg version="1.1" xmlns="http://www.w3.org/2000/svg" xmlns:xlink="http://www.w3.org/1999/xlink" x="0px" y="0px"
	 viewBox="0 0 709.97 653.29" style="enable-background:new 0 0 709.97 653.29;" xml:space="preserve">
<style type="text/css">
	.st0{fill:#FFFFFF;}
	.st1{fill:#E72A8B;}
	.st2{fill:#E72A8B;stroke:#031F43;stroke-width:2;stroke-linecap:round;stroke-linejoin:round;stroke-miterlimit:10;}
	.st3{fill:none;stroke:#031F43;stroke-width:2;stroke-linecap:round;stroke-linejoin:round;stroke-miterlimit:10;}
	.st4{fill:#031F43;}
	.st5{fill:#347CE1;}
	.st6{fill:#A7CCE9;}
	.st7{fill:#FFFFFF;stroke:#031F43;stroke-width:2;stroke-linecap:round;stroke-linejoin:round;stroke-miterlimit:10;}
	.st8{fill:#45D62F;}
</style>
<path class="st0" d="M276.93,161.35c0,0-3.51,2.04-3.05,4.98c0.45,2.94,2.72,8.94,3.73,11.09c1.02,2.15,1.7,4.64,1.7,4.64
	l-1.7,29.76c0,0,23.99,36.32,32.36,38.02c8.37,1.7,14.14-14.48,14.14-14.48L324,219.16c0,0,11.88-3.62,15.61-9.39
	s12.78-16.29,14.6-27.15c1.81-10.86,3.73-18.67,2.94-28.17s-3.73-21.61-18.78-23.87c-15.05-2.26-48.76,5.88-48.76,5.88
	L276.93,161.35z"/>
<path class="st1" d="M155.24,455.57c0,0,9.92-35.72,17.34-74.99c10.1-53.42,18.93-115.32,23.08-120.4
	c7.21-8.81,69.02-50.22,69.02-50.22l47.5,35.38c0,0,13.09-12.93,18.89-8c25,21.26,16.15,67.27,10.29,111.73
	c-5.26,39.91-19.54,123.35-19.54,123.35s-56.19,17.57-122.29,1.53C172.61,467.43,155.24,455.57,155.24,455.57z"/>
<g>
	<path class="st2" d="M341.67,346.2c3.54,3.07,17.86,10.01,21.7,10.63c3.84,0.61,21.06-18.6,25.82-29.82
		c4.76-11.22,8.3-55.64,7.53-61.64c-0.77-5.99-7.38-18.6-7.38-18.6s-5.69-3.84-8.76-2c-3.07,1.84-8.15,2.46-9.22,11.37
		c-1.08,8.92-5.23,19.52-5.23,19.52s-4,4.46-6.15,8.45c-2.15,4-5.53,10.76-5.53,10.76s-2.31-9.68-6.3-13.68"/>
	<circle class="st3" cx="343.34" cy="164.75" r="11.42"/>
	<circle class="st3" cx="308.68" cy="164.75" r="11.42"/>
	<line class="st3" x1="331.8" y1="162.4" x2="320.1" y2="162.4"/>
	<path class="st3" d="M297.42,161.02c-0.14-0.41-13.81-7.59-13.81-7.59"/>
	<circle class="st4" cx="340.29" cy="162.61" r="1.73"/>
	<circle class="st4" cx="306.95" cy="162.61" r="1.73"/>
	<path class="st3" d="M330.14,179.38c0,0-4.83,1.93-8.42,0.41"/>
	<path class="st3" d="M330.25,195.88l-18.7-8.35c0,0-0.86,7.62,4.17,10.85C324.57,204.06,330.25,195.88,330.25,195.88z"/>
	<path class="st3" d="M346.99,149.97c0,0-6.9-3.18-10.63-1.38"/>
	<path class="st3" d="M316.06,145.69c0,0-6.9-3.18-10.63-1.38"/>
	<path class="st3" d="M285.69,180.75c0,0,8.33,34.98,29.98,37.98c14.6,2.02,31.97-10.06,39.66-42.23
		c6.33-26.48-0.52-45.55-26.83-48.89s-42.31,10.49-44.31,19.49s-0.37,13.17-0.37,13.17s-4.13-2.68-8.96,2.15
		c-4.83,4.83,4,17.49,4,17.49l-1.29,30.83"/>
	<path class="st4" d="M278.76,163.12c4.66,0.83,9.18-2.09,10.31-6.69c1.08-4.38,2.46-9.51,3.74-12.7c2.59-6.47,8.54-6.99,25.62-5.18
		s32.77,0.8,35.82,11.03c1.31,4.39-0.18,31.77-0.18,31.77s5.39-12.15,7.72-24.05c2.33-11.9,0.17-16.12,0.17-21.84
		c0-0.48,4.09-3.57,6.31-10.06c2.45-7.14,3.05-17.71,3.05-17.71s-12,7.58-29.6,2.92c-2.18-0.58-4.88-1.32-7.94-2.06
		c-15.2-3.65-39.3-7.02-52.87,12.15c-14.23,20.11-6.05,41.73-6.05,41.73L278.76,163.12z"/>
	<line class="st3" x1="401.66" y1="442.89" x2="391.81" y2="440.23"/>
	<polygon class="st5" points="561.08,384.34 378.77,392.32 358.54,348.14 510.51,347.08 	"/>
	<polygon class="st6" points="551.76,454.87 561.08,384.34 378.77,392.32 377.97,463.65 	"/>
	<polygon class="st6" points="358.54,348.14 355.08,423.46 377.97,463.65 378.77,392.32 	"/>
	<line class="st3" x1="441.34" y1="395.28" x2="438.1" y2="454.16"/>
	<line class="st3" x1="451.11" y1="395.11" x2="447.87" y2="453.99"/>
	<line class="st3" x1="460.88" y1="394.94" x2="457.64" y2="453.82"/>
	<line class="st3" x1="470.65" y1="394.77" x2="467.41" y2="453.65"/>
	<line class="st3" x1="480.42" y1="394.6" x2="477.18" y2="453.48"/>
	<line class="st3" x1="490.19" y1="394.43" x2="486.95" y2="453.31"/>
	<line class="st3" x1="499.96" y1="394.26" x2="496.72" y2="453.14"/>
	<line class="st3" x1="509.73" y1="394.09" x2="506.49" y2="452.97"/>
	<g>
		<polygon class="st7" points="560.57,463.22 387.54,450.03 373.42,528.88 575.91,545.44 		"/>
		<polygon class="st3" points="505.41,477.39 508.34,533.95 567.86,539.16 558.58,481.72 		"/>
		<polygon class="st3" points="502.83,533.95 381.48,523.63 388.05,481.61 501.42,490.77 		"/>
		<line class="st3" x1="506.11" y1="463.54" x2="554.7" y2="467.53"/>
		<line class="st3" x1="506.82" y1="467.29" x2="555.4" y2="471.28"/>
		<line class="st3" x1="507.05" y1="470.82" x2="555.64" y2="474.81"/>
		<polyline class="st3" points="575.91,545.44 574.81,552.75 373.15,536.99 373.42,528.88 		"/>
		<line class="st3" x1="410.04" y1="515.65" x2="481.38" y2="521.54"/>
		<line class="st3" x1="390.57" y1="505.1" x2="495.43" y2="513.66"/>
		<line class="st3" x1="390.77" y1="497.07" x2="495.63" y2="505.63"/>
		<line class="st3" x1="390.96" y1="488.72" x2="495.82" y2="497.28"/>
	</g>
	<path class="st2" d="M311.56,246.16c0,0-30.58-29.98-34.4-35.94s-6.2-11.21-6.2-11.21s-7.39,8.82-7.39,14.78
		s12.81,16.13,22.01,21.11C295.57,240.31,311.56,246.16,311.56,246.16z"/>
	<path class="st2" d="M312.69,245.74l10.71-10.92l0.02-6.01c0,0,3.34,2.62,4.53,6.91C329.15,240.02,312.69,245.74,312.69,245.74z"/>
	<path class="st3" d="M264.11,209.6c-0.72,0.95-60.45,39.27-70.47,53.57s-14.81,85.52-21.32,120.27s-16.83,70.58-16.83,70.58"/>
	<path class="st3" d="M327.95,235.73c0,0,21.07,7.38,20.2,45.47c-0.87,38.09-25.84,189.72-25.84,189.72"/>
	<line class="st3" x1="323.21" y1="234.72" x2="323.71" y2="218.3"/>
	<path class="st3" d="M270.97,199.01c0,0,2.21-2.11,6.65-1.22"/>
	<path class="st3" d="M354.2,294.12c0,0,4.68,9.21,3.39,21.32"/>
	<path class="st7" d="M349.21,410.39c0,0,15.99-16.2,22.64-18.6c6.65-2.4,19.18-1.57,21.82-3.19c3.46-2.13,7.19-4.52,9.05-3.46
		s1.86,6.12-2.66,9.85c-4.52,3.73-11.18,5.32-11.18,5.32s2.93,3.19,9.05,3.46c6.12,0.27,19.16,1.6,24.75,4.26s5.59,4.79,5.06,7.19
		c-0.53,2.4-4.26,1.6-9.31,1.33c-5.06-0.27-19.69-0.27-19.69-0.27s-1.33,4.52,8.52,5.86c9.85,1.33,19.43,5.32,20.49,8.25
		c1.06,2.93-2.13,4.52-2.13,4.52L395,430.91c0,0,21.03,7.19,22.09,9.85c1.06,2.66-2.93,5.86-5.32,5.59s-10.11-3.46-10.11-3.46
		s0,3.99-2.66,4.26s-10.11-2.93-17.3-4.52c-7.19-1.6-19.43-1.86-25.02-5.32s-9.85-2.93-9.85-2.93"/>
	<path class="st2" d="M349.06,402.97c0,1.26,2.1,11.73,0.42,20.53c-1.68,8.8-5.45,19.69-5.45,19.69s-128.64,18.86-139.95,9.64
		c-11.31-9.22-25.63-81.65-26.87-111.37c-1.91-45.76,11.83-74.72,16.44-77.66c4.61-2.93,40.6,9.7,52.33,46.99
		c11.73,37.29,6.52,83.26,6.52,83.26L349.06,402.97z"/>
	<path class="st3" d="M246.92,413.06c8.33-12.14,5.58-19.01,5.58-19.01s-1.06,4.02-14.15,11.16c-13.09,7.14-17.13,7.85-17.13,7.85"
		/>
	<line class="st3" x1="401.66" y1="442.89" x2="382.96" y2="435.38"/>
	<path class="st6" d="M416.03,267.5l129.34-0.27l-10.91,110.71c0,0-125.35,4.52-125.35,3.73S416.03,267.5,416.03,267.5z"/>
	<polygon class="st6" points="545.37,267.24 503.85,255.79 393.41,254.99 385.95,359.85 409.11,381.68 416.03,267.5 	"/>
	<polygon class="st0" points="423.21,274.42 538.72,273.62 529.94,361.18 417.09,362.78 	"/>
	<polygon class="st8" points="431.73,284.27 526.48,284.27 519.29,351.34 428.8,352.4 	"/>
	<circle class="st5" cx="519.39" cy="369.99" r="5.64"/>
	<path class="st7" d="M390.58,267.43c0,0,6.94-1.47,11.78,0.42c4.84,1.89,25.88,0.84,30.08-0.63c4.21-1.47,3.58-6.52,3.58-6.52
		s9.26,5.68,16.83,7.15c7.57,1.47,9.05-0.21,9.05-0.21s4.63,0.84,6.1,0.21c1.47-0.63,2.73-1.89,2.73-1.89s3.37,0.84,4.42-0.63
		c1.05-1.47,1.26-4.84-3.37-6.31c-4.63-1.47-25.01-13.19-27.33-14.45c-2.31-1.26-12.43-5.96-15.59-6.17
		c-3.16-0.21-25.46,0.42-29.87,1.47s-22.3,11.36-22.3,11.36s-1.48,8.1,2.38,11.82C382.92,266.77,390.58,267.43,390.58,267.43z"/>
	<path class="st3" d="M461.9,267.64c0,0-10.78-7.21-18.78-11.43"/>
	<path class="st3" d="M436.02,260.69c0,0-1.78-2.6-11.23-2.6s-12.95,0.15-12.95,0.15"/>
	<line class="st3" x1="470.73" y1="265.95" x2="455.72" y2="256.61"/>
</g>
<path class="st3" d="M263.39,210.55"/>
</svg>
