<?xml version="1.0" encoding="utf-8"?>
<!-- Generator: Adobe Illustrator 23.0.2, SVG Export Plug-In . SVG Version: 6.00 Build 0)  -->
<svg version="1.1" xmlns="http://www.w3.org/2000/svg" xmlns:xlink="http://www.w3.org/1999/xlink" x="0px" y="0px"
	 viewBox="0 0 709.97 653.29" style="enable-background:new 0 0 709.97 653.29;" xml:space="preserve">
<style type="text/css">
	.st0{fill:#A7CCE9;}
	.st1{fill:none;stroke:#031F43;stroke-width:2;stroke-linecap:round;stroke-linejoin:round;stroke-miterlimit:10;}
	.st2{fill:#A7CCE9;stroke:#031F43;stroke-width:2;stroke-linecap:round;stroke-linejoin:round;stroke-miterlimit:10;}
	.st3{fill:#FFFFFF;stroke:#031F43;stroke-width:2;stroke-linecap:round;stroke-linejoin:round;stroke-miterlimit:10;}
	.st4{fill:#E72A8B;}
	.st5{fill:#F3B63F;}
	.st6{fill:#031F43;}
	.st7{fill:#45D62F;stroke:#031F43;stroke-width:2;stroke-linecap:round;stroke-linejoin:round;}
	.st8{fill:#347CE1;stroke:#031F43;stroke-width:2;stroke-linecap:round;stroke-linejoin:round;stroke-miterlimit:10;}
	.st9{fill:#F3B63F;stroke:#031F43;stroke-width:2;stroke-linecap:round;stroke-linejoin:round;stroke-miterlimit:10;}
</style>
<g>
	<rect x="217.42" y="329.9" class="st0" width="332.26" height="289.15"/>
	<path class="st0" d="M503.06,234.68H273.03c-12.86,0-23.28,10.42-23.28,23.28v46.52h276.59v-46.52
		C526.34,245.1,515.92,234.68,503.06,234.68z"/>
	<line class="st1" x1="381.5" y1="376.25" x2="381.5" y2="585.11"/>
	<polygon class="st2" points="249.75,304.48 217.02,321.06 549.29,321.06 526.34,304.48 	"/>
	<rect x="217.42" y="321.06" class="st2" width="332.26" height="9.1"/>
	<circle class="st1" cx="252.59" cy="350.56" r="6.92"/>
	<line class="st1" x1="252.59" y1="347.07" x2="252.59" y2="354.47"/>
	<circle class="st1" cx="277.94" cy="350.56" r="6.92"/>
	<line class="st1" x1="277.94" y1="347.07" x2="277.94" y2="354.47"/>
	<circle class="st1" cx="301.41" cy="350.56" r="6.92"/>
	<line class="st1" x1="301.41" y1="347.07" x2="301.41" y2="354.47"/>
	<line class="st1" x1="227.85" y1="331.31" x2="227.85" y2="618.93"/>
	<line class="st1" x1="536.01" y1="331.31" x2="536.01" y2="618.93"/>
	<line class="st1" x1="228.7" y1="376.67" x2="535.59" y2="376.67"/>
	<line class="st1" x1="228.7" y1="585.54" x2="535.59" y2="585.54"/>
	<line class="st1" x1="228.7" y1="509.36" x2="535.59" y2="509.36"/>
	<rect x="245.58" y="392.49" class="st1" width="115.74" height="5.61"/>
	<rect x="245.58" y="524.81" class="st1" width="115.74" height="5.61"/>
	<rect x="401.69" y="392.49" class="st1" width="115.74" height="5.61"/>
	<rect x="401.69" y="524.81" class="st1" width="115.74" height="5.61"/>
	<path class="st1" d="M493.71,599.45H271.69c-10.66,0-19.31,8.64-19.31,19.31l0,0h260.63l0,0
		C513.02,608.09,504.37,599.45,493.71,599.45z"/>
	<path class="st3" d="M327.22,316.09c0,0-9.6,3.81-26.48,3.81c-15.06,0-28.79-3.81-28.79-3.81v-34.45h55.27V316.09z"/>
	<ellipse class="st3" cx="299.23" cy="282.16" rx="27.49" ry="3.64"/>
	<path class="st1" d="M271.29,290.11c0,0-8.77-0.5-8.94,2.32s13.4,5.46,13.4,5.46"/>
	<path class="st1" d="M327.12,290.11c0,0,8.77-0.5,8.94,2.32c0.17,2.81-13.4,5.46-13.4,5.46"/>
	<path class="st4" d="M276.91,283.34c0,0-5.62-9.52-3.58-15.86c2.05-6.35,3.28-10.65,3.69-15.36c0.18-2.01-0.02-5.11-0.31-8
		c-0.12-1.21,1.53-1.69,2.07-0.59c0.57,1.16,1.22,2.4,1.93,3.68c3.07,5.53,4.1,10.24,4.1,10.24s5.32-15.77,1.84-23.96
		c-3.48-8.19-8.4-15.77-9.22-23.55c-0.46-4.33,0.67-14.94,1.77-23.5c0.24-1.86,2.91-1.92,3.22-0.07c1.05,6.21,2.76,13.42,5.46,18.24
		c3.11,5.55,11.06,13.72,11.06,13.72s-0.82-6.96-0.41-11.06c0.07-0.74,0.18-1.61,0.31-2.54c0.24-1.75,2.68-1.92,3.18-0.23
		c0.83,2.83,2.06,5.82,3.91,8.25c5.12,6.76,5.5,12.33,4.68,17.04c-0.82,4.71,4.3,8.6,5.12,14.34c0.82,5.73-4.1,10.44-0.2,14.54
		c3.89,4.1,9.2,6.61,9,9.27c-0.2,2.66,1.15-4.95-2.64-8.91c-5.18-5.4,0.4-10.19,0.4-10.19s0.26,7.06,7.17,12.08
		c4.24,3.09,1.23,12.08,0.2,14.95c-1.02,2.87-7.99,6.35-7.99,6.35s-15.46,2.86-20.68,2.92
		C291.44,285.25,276.91,283.34,276.91,283.34z"/>
	<path class="st5" d="M294.54,279.81c0,0-4.45-8.34-4.73-11.96c-0.28-3.62,0.56-9.46,0.56-9.46l3.34,6.95c0,0,1.39-3.89,2.78-12.24
		c1.39-8.34,2.5-11.4,2.5-16.41s-5.84-13.35-5.84-13.35s7.79,5.28,10.57,14.46c2.78,9.18,3.06,16.13,2.22,22.8
		c-0.83,6.67,0.64,21.48,0.64,21.48L294.54,279.81z"/>
	<ellipse class="st3" cx="310.48" cy="280.18" rx="28.05" ry="4.14"/>
	<path class="st1" d="M307.13,279.52c0,0-0.83-6.78,2.81-6.78s3.97,6.45,3.97,6.45"/>
</g>
<path class="st6" d="M337.04,485.04c0,0-1.37,3.82,8.96,7.98c10.32,4.15,17.68,6.17,17.68,6.17l1.54-16.61
	c0,0-11.87-7.71-16.73-5.93C343.63,478.42,337.04,485.04,337.04,485.04z"/>
<path class="st3" d="M362.26,482.7c0,0,0.95,14-1.31,25.16s-9.37,28.36-10.21,30.26s-0.36,4.98,2.49,4.75s12.1-3.32,17.68-12.22
	c5.58-8.9,8.9-18.63,12.93-26.22c4.03-7.59,8.78-13.29,9.61-15.31c0.83-2.02-0.12-5.7-0.12-5.7L362.26,482.7z"/>
<path class="st7" d="M402.6,522.33l-2.97-35.01c0,0-7.59,1.19-9.43,3.7c-0.87,1.2-2.78,4.74-4.89,9.01
	c-1.33-0.87-3.97-2.21-9.06-3.7c-8.9-2.61-16.26-1.78-16.26-1.78l-0.59,15.9c0,0,5.81-0.36,11.39,0.83c3.2,0.68,6.19,1.87,8.18,2.76
	c-0.08,0.19-0.15,0.38-0.23,0.57c-2.09,5.34-6.2,11.94-10.12,17.04c-0.77-1.97-2.03-4.14-4.12-5.41c-4.51-2.73-8.9-2.85-8.9-2.85
	l-3.32,10.32c0,0,5.1,0.47,7.71,2.97c0.75,0.72,1.35,1.47,1.83,2.19c-4.95,3.25-13.1,2.32-13.1,2.32s1.34,9.67,1.34,10.02
	c0,0.36,4.83,0.66,10.52-1.36s13.65-6.41,16.73-10.09s3.7-12.29,5.24-17.87s4.84-19.27,5.67-19.39s-0.36,22.9-0.36,22.9
	L402.6,522.33z"/>
<path class="st6" d="M391.05,483.85c0,0-1.37,3.82,8.96,7.98c10.32,4.15,17.68,6.17,17.68,6.17l1.54-16.61
	c0,0-11.87-7.71-16.73-5.93S391.05,483.85,391.05,483.85z"/>
<path class="st3" d="M416.26,481.5c0,0,0.95,14-1.31,25.16c-2.25,11.15-9.37,28.36-10.21,30.26c-0.83,1.9-0.36,4.98,2.49,4.75
	s12.1-3.32,17.68-12.22c5.58-8.9,8.9-18.63,12.93-26.22c4.03-7.59,8.78-13.29,9.61-15.31c0.83-2.02-0.12-5.7-0.12-5.7L416.26,481.5z
	"/>
<path class="st7" d="M456.61,521.14l-2.97-35.01c0,0-7.59,1.19-9.43,3.7c-0.87,1.2-2.78,4.74-4.89,9.01
	c-1.33-0.87-3.97-2.21-9.06-3.7c-8.9-2.61-16.26-1.78-16.26-1.78l-0.59,15.9c0,0,5.81-0.36,11.39,0.83c3.2,0.68,6.19,1.87,8.18,2.76
	c-0.08,0.19-0.15,0.38-0.23,0.57c-2.09,5.34-6.2,11.94-10.12,17.04c-0.77-1.97-2.03-4.14-4.12-5.41c-4.51-2.73-8.9-2.85-8.9-2.85
	l-3.32,10.32c0,0,5.1,0.47,7.71,2.97c0.75,0.72,1.35,1.47,1.83,2.19c-4.95,3.25-13.1,2.32-13.1,2.32s1.34,9.67,1.34,10.02
	c0,0.36,4.83,0.66,10.52-1.36s13.65-6.41,16.73-10.09s3.7-12.29,5.24-17.87s4.84-19.27,5.67-19.39s-0.36,22.9-0.36,22.9
	L456.61,521.14z"/>
<path class="st8" d="M505.4,242.48l-29.51,1.7c-0.1-2.78-0.17-4.58-0.17-4.58s-51.84-1.11-54.05,1.55
	c-2.21,2.66-3.32,11.3-3.32,11.3s1.11,14.84,0,17.72c-1.11,2.88-7.31,7.53-13.07,11.52s-32.94,28.42-38.7,39.5
	s-8.04,23.64-10.92,44.46c-2.88,20.82-9.3,74.43-11.74,85.73c-2.44,11.3-6.87,33.67-6.87,33.67s3.32-4.65,14.4-1.99
	s29.24,7.09,38.77,7.97c9.53,0.89,13.96-1.11,13.96-1.11s0.12-2.65,0.32-7.03c4.98,0.6,16.35,2.91,27.59,4.81
	c14.4,2.44,32-7.02,32-7.02s-3.98-24.57-6.19-38.08s-6.33-66.25-5.88-69.35c0.44-3.1,29.47-23.55,38.78-31.53
	c9.3-7.97,15.95-25.03,17.94-42.31C510.72,282.13,505.4,242.48,505.4,242.48z"/>
<path class="st6" d="M454.26,64.03c0,0,4.72-19.74,28.29-13.09c15.95,4.51,24.44,15.72,18.8,40.51
	c-5.65,24.79-8.46,29.72-6.98,35.62s8.1,8.51,8.1,8.51s-9.34,7.47-27.38,5.09c-8.98-1.19-21.48-7.36-25.04-7.86
	c-3.56-0.49-14.61-1.1-18.9-5.4c-4.3-4.3-4.05-8.47-4.05-8.47s7,0,8.59-8.1s-1.96-29.58,5.52-35.72
	C448.69,68.99,454.26,64.03,454.26,64.03z"/>
<path class="st3" d="M476.32,107.18c0,0-1.93,10.56-2.18,16.2s0.57,12.13,3.52,13.6c2.95,1.47,2.33,1.23-1.23,9.57
	c-3.56,8.35-11.64,33.87-17.66,34.24c-6.01,0.37-17.08-39.64-17.2-40.01s5.4-2.7,6.51-10.19c1.1-7.49,2.09-18.41,2.09-18.41
	L476.32,107.18z"/>
<path class="st3" d="M480.24,106.42c0,0,5.16-2.21,4.91-5.16c-0.25-2.95-3.68-2.58-3.68-2.58s3.68-7.98,3.93-13.99
	s-8.1-15.71-14.85-15.47s-18.66,0.74-20.99,7s-3.81,21.59-2.7,30.93c0.86,7.24,2.7,11.66,8.71,13.26c6.01,1.6,12.48-2.58,12.48-2.58
	"/>
<path class="st1" d="M449.77,80.17c0.15-0.3,7.92-1.68,10.43,3.27c2.51,4.95,0.99,10.05-0.84,12.41c-1.83,2.36-2.36,3.2-2.36,3.2
	s1.75,1.83,4.87,2.74"/>
<path class="st1" d="M451.32,84.75c0,0,5.72-0.57,7.28,2.91"/>
<path class="st1" d="M470.04,92.39c0,0,4.68-2.5,7.64,2.18"/>
<path class="st1" d="M452.93,84.95c0,0,0.26,2.81,2.13,3.54c1.87,0.73,2.86-1.82,2.86-1.82"/>
<path class="st1" d="M471.8,91.77c0,0-0.52,2.44,1.56,3.59s2.7-2.03,2.7-2.03"/>
<path class="st1" d="M470.56,87.45c0,0,6.03-1.09,8.42,3.17"/>
<path class="st1" d="M453.76,105.34c0.16-0.1,8.27,2.65,8.27,2.65s-2.76,3.02-5.77,2.6C453.24,110.17,453.76,105.34,453.76,105.34z"
	/>
<path class="st6" d="M458.69,61.14c0,0-10.52-0.09-14.82,7.89s-2.17,13.95-2.17,13.95s4.91-8.59,12.27-5.4
	c7.36,3.19,14.36,7.49,20.87,4.54c6.51-2.95,7.49-5.16,7.49-5.16s-6.51-7.86-12.76-11.78S458.69,61.14,458.69,61.14z"/>
<path class="st4" d="M483.73,89.49c0,0,3.97-6.22,3.72-11.07c-0.27-5.36-2.38-10.99-9.99-14.8c-7.61-3.8-15.88-1.01-15.76-1.38
	c0.12-0.37,13.04,3.77,17.58,10.64C483.82,79.75,483.73,89.49,483.73,89.49z"/>
<g>
	<path class="st5" d="M425.62,145.79c0,0-22.53,6.08-25.23,10.59c-2.7,4.51-12.54,50-13.29,58.57c-0.65,7.44-1.53,13.16-1.52,22.04
		c0.01,5.9-0.28,11.3,2.42,15.81c2.7,4.51,4.81,4.9,9.24,4.73c6.64-0.26,18.92-1.58,18.92-1.58s9.98-5.6,10.55-8.2
		c0.58-2.6,5.78-3.9,7.8-3.32c2.02,0.58,27.72-1.44,32.2-1.44c4.48,0,24.4,1.01,24.4,1.01s19.78,16.03,30.47,15.02
		c10.68-1.01,10.4-14.15,10.83-16.61s0.72-11.41,0.58-14.29c-0.14-2.89-2.31-11.98-2.31-18.48c0-6.5-7.65-39.13-8.95-45.34
		c-1.3-6.21-1.73-8.52-3.32-9.24c-1.59-0.72-17.33-10.54-26.42-9.82c-4.07,0.32-32.49,39.53-33.35,37.52
		C443.95,148.51,425.62,145.79,425.62,145.79z"/>
	<path class="st3" d="M432.71,232.18c0,0-4.58-4.68-7.56-2.66c-2.98,2.02-4.68,4.26-5.21,5.32c-0.1,0.2-0.3,0.37-0.57,0.51
		c-1.99,1.08-3.28,3.11-3.1,5.37l0.03,0.31c0.24,2.92,2.74,5.17,5.67,5.02c1.56-0.08,3.23-0.09,4.68,0.06
		c4.04,0.43,16.92,5,20.54,5.21c3.62,0.21,8.19-2.13,11.07-3.72c2.87-1.6,6.81-2.34,8.94-3.09c2.13-0.74,2.55-2.55,2.55-2.55
		s1.81-0.96,1.7-2.34c-0.11-1.38-3.72-3.3-3.72-3.3s-20.22,3.94-23.52,3.19S432.71,232.18,432.71,232.18z"/>
	<path class="st3" d="M430.8,235.47c0,0,11.28,4.68,12.34,5.64c1.06,0.96,2.02,1.49,2.02,1.49l21.18-2.23l0.96-1.7
		c0,0,10.35-7.47,10.66-8.04C478.26,230.05,430.8,235.47,430.8,235.47z"/>
	<path class="st1" d="M421.12,232.76c0,0-6.88-1.72-13.18-1.04c-3.61,0.39-9.24,1.01-9.24,1.01"/>
	<path class="st1" d="M496.04,211.61c0,0,4.46,4.95,8.22,6.68s9.1,1.59,15.02,5.34c5.92,3.75,6.79,5.78,6.79,5.78"/>
	<path class="st1" d="M482.11,225.72c0,0,0.04,3.33,2.65,8.18c3.03,5.63,7.8,10.68,7.8,10.68"/>
	<path class="st3" d="M470.87,211.43c0,0-3.45,1.03-8.67,1.3c-5.22,0.28-12.3-0.93-12.3-0.93l-4.19-22.36l28.42,0.14L470.87,211.43z
		"/>
	<path class="st1" d="M471.6,193.7c0,0,5.79-4.73,10.64-1.46s-5.11,15.11-12.84,16.29"/>
	<ellipse class="st3" cx="460.25" cy="189.48" rx="13.88" ry="1.92"/>
	<path class="st3" d="M480.88,191.2c0,0-4.12,0.18-4.55,2.19c-0.44,2.01-0.18,3.68-0.18,3.68s-2.1,2.54-1.75,4.03
		c0.35,1.49,0.53,2.54,0.53,2.54s-1.45,0.11-1.84,2.89c-0.18,1.3-1.4,4.29,0.18,6.31c1.58,2.01,2.54,3.33,2.54,3.33
		s-0.44,2.72,2.19,4.99c2.63,2.28,4.12,4.55,4.12,4.55s6.31,2.72,9.99,0.26s4.12-14.02,3.94-14.37c-0.18-0.35-0.18-11.12-0.88-12.96
		c-0.7-1.84-5.69-5.61-5.69-5.61s1.29-5.08-0.79-6.04c-5.83-2.72-10.19,3.3-10.19,3.3"/>
	<path class="st1" d="M476.68,196.02c0,0,5.7,0.82,8.59,2.66s3.72,3.19,3.72,3.19"/>
	<path class="st1" d="M475.06,202.34c0.26-0.26,9.44,4.72,9.44,4.72"/>
	<path class="st1" d="M473.35,208.41c0.27-0.25,8.4,4.71,8.4,4.71"/>
	<path class="st1" d="M480.88,191.2c0,0,6.13-0.26,8.58,1.84"/>
	
		<ellipse transform="matrix(0.9961 -0.0877 0.0877 0.9961 -18.6657 40.7351)" class="st3" cx="454.1" cy="232.72" rx="23.94" ry="4.35"/>
</g>
<path class="st1" d="M421,282.35c0,0,13.07,4.21,15.95,10.63"/>
<path class="st9" d="M477.41,136.13c0,0,2.82-1.72,10.43,2.82c7.61,4.54,18.9,14.48,18.9,14.48s-16.45-2.95-19.52,0.49
	s-28.8,30.16-28.8,30.16s-0.29-8.68,5.61-21.2c5.89-12.52,15.34-23.69,15.34-23.69L477.41,136.13z"/>
<path class="st9" d="M448.34,127.79c0,0,1.83,20.86,5.14,34.11s4.3,22.22,4.05,21.72c-0.25-0.49-5.52-10.31-12.03-19.15
	s-16.82-16.82-16.82-16.82s-2.21,2.45-6.14,3.56c-3.93,1.1-9.57,2.33-9.57,2.33s14.54-11.41,17.71-16.63
	c4.26-7.01,13.97-10,13.97-10L448.34,127.79z"/>
<path class="st1" d="M404.48,482.89c0,0-2.19-120.7-0.95-131.23c1.24-10.54,29.08-51.95,34.65-57.84c5.58-5.89,23.6-8.78,23.6-8.78"
	/>
</svg>
