<?xml version="1.0" encoding="utf-8"?>
<!-- Generator: Adobe Illustrator 23.0.2, SVG Export Plug-In . SVG Version: 6.00 Build 0)  -->
<svg version="1.1" xmlns="http://www.w3.org/2000/svg" xmlns:xlink="http://www.w3.org/1999/xlink" x="0px" y="0px"
	 viewBox="0 0 709.97 653.29" style="enable-background:new 0 0 709.97 653.29;" xml:space="preserve">
<style type="text/css">
	.st0{fill:#A7CCE9;}
	.st1{fill:#347CE1;}
	.st2{fill:#F3B63F;}
	.st3{fill:none;stroke:#031F43;stroke-width:2;stroke-linecap:round;stroke-linejoin:round;}
	.st4{fill:#FFFFFF;}
	.st5{fill:#031F43;}
	.st6{fill:#347CE1;stroke:#031F43;stroke-width:2;stroke-linecap:round;stroke-linejoin:round;stroke-miterlimit:10;}
	.st7{fill:#FFFFFF;stroke:#031F43;stroke-width:2;stroke-linecap:round;stroke-linejoin:round;}
	.st8{fill:#F25E7E;}
	.st9{fill:#E72A8B;}
	.st10{fill:none;stroke:#FFFFFF;stroke-width:2;stroke-linecap:round;stroke-linejoin:round;}
	.st11{fill:#031F43;stroke:#FFFFFF;stroke-miterlimit:10;}
	.st12{fill:#E72A8B;stroke:#031F43;stroke-width:2;stroke-linecap:round;stroke-linejoin:round;stroke-miterlimit:10;}
	.st13{fill:#45D62F;}
</style>
<g id="water">
	<g>
		<rect x="308.61" y="281.56" class="st0" width="79.74" height="284.51"/>
		<path class="st1" d="M316.4,281.56l-6.33-10.07l0.25-84.05c0.02-6.64,5.41-12.01,12.05-12.01h52.27c6.61,0,11.99,5.33,12.04,11.94
			l0.76,84.12l-7.48,10.07H316.4z"/>
		<path class="st2" d="M339.59,210.99h42.77v38.78c0,0-8.5,1.86-18.33,1.86c-9.83,0-24.44-0.53-24.44-0.53V210.99z"/>
		<path class="st3" d="M326.27,354.87v-57.86h44.95v57.6C371.22,354.62,326.53,354.62,326.27,354.87z"/>
		<path class="st3" d="M329.89,354.77v-7.86c0,0,7.65-5.68,18.35-5.68s19.18,5.35,19.18,5.35v8.03L329.89,354.77z"/>
		<rect x="336.39" y="354.76" class="st3" width="6.37" height="19.85"/>
		<rect x="353.98" y="354.76" class="st3" width="6.37" height="19.85"/>
		<polyline class="st3" points="326.27,354.87 329.32,427.18 367.09,427.18 370.99,354.62 		"/>
		<polyline class="st3" points="329.32,427.18 329.32,565.93 366.62,565.93 366.62,427.18 		"/>
		<rect x="304.95" y="566.02" class="st1" width="86.46" height="7.28"/>
	</g>
</g>
<g id="man2">
	<g>
		<path class="st4" d="M444.9,247.02l-4.55-0.09c0,0-0.84-2.41-1.11-2.6c-0.28-0.19-16.51,0.09-16.98,1.48
			c-0.46,1.39-1.02,16.42-0.93,20.6s0.51,11.82,0.51,11.82l17.77-0.35l-0.19-3.58c0,0,1.3,1.02,3.71,0.56s6.03-2.32,6.49-6.22
			s0.65-16.89-0.46-18.46C448.06,248.59,444.9,247.02,444.9,247.02z"/>
		<path class="st5" d="M465,549.08c0,0-12.32,7.26-19.8,9.24c-7.48,1.98-16.94,3.96-18.04,8.36c-1.1,4.4-0.44,5.5-0.44,5.5
			s3.96,3.96,25.96,1.1c22-2.86,49.47-3.04,49.47-3.04c1.57-0.76,31.41-28.09-2.16-19.4C493.17,552.6,465,549.08,465,549.08z"/>
		<path class="st5" d="M507.25,561.84c0,0-10.56,14.74-15.4,18.26c-4.84,3.52-7.7,9.02-7.7,11c0,1.98,1.98,5.72,12.1,4.62
			c10.12-1.1,25.52-5.94,33.45-9.68s11.88-5.94,14.3-7.7c2.42-1.76,0.88-10.12,0.88-10.12L507.25,561.84z"/>
		<path class="st6" d="M460.46,301.26c0,0-4.05,8.98-4.85,26.78s-0.27,95.62,1.86,121.92c2.12,26.3,7.44,79.16,6.91,84.47
			c-0.53,5.31-3.19,14.34-3.19,14.34s2.92,6.11,10.62,7.97s23.3,2.15,23.3,2.15l5.39-0.82c0,0-1.59,2.66,2.92,5.05
			c4.52,2.39,32.41,8.5,37.98,8.5s6.11-3.45,6.11-3.45s-1.86-27.89-2.12-38.52c-0.27-10.62,2.12-76.23,2.66-93.23
			s3.18-94.82,1.86-102.26s-10.36-56.05-10.36-56.05L460.46,301.26z"/>
		<path class="st7" d="M516.44,343.96c0,0-5.76,22.58-3.65,25.51c2.11,2.93,5.17,2.7,5.17,2.7s1.74,2.34,5.01,3.16
			c3.28,0.82,7.26-1.29,7.26-1.29s2.93,0,5.04-1.05s3.63-3.16,3.63-5.15s2.58-18.74,2.46-19.21
			C541.24,348.16,516.44,343.96,516.44,343.96z"/>
		<path class="st2" d="M480.88,164.79c0,0-13.21,1.65-20.19,15.23s-17.44,63.87-17.44,63.87l-2.36,3.09c0,0,7.9,7.73,6.47,16.44
			c-1.43,8.71-3.31,11.13-3.31,11.13l10.14-1.76l6.46,21.74c0,0-1.73,4.62-0.19,6.73s11.16,10.39,32.51,4.42
			s30.78-10.39,30.78-10.39l-3.46,31.55c0,0-2.69,1.92-2.69,3.46s-1.15,13.66-1.15,13.66s4.81,3.46,13.85,5.19
			s12.31,1.73,12.31,1.73s6.73-14.81,7.31-16.73s4.04-13.85,5.96-20c1.92-6.16,13.66-47.32,13.46-69.82
			c-0.19-22.51,1.92-41.16-10.77-59.25s-31.74-26.74-31.74-26.74l-35.94,8.2L480.88,164.79z"/>
		<path class="st4" d="M486.07,98.76c0,0-5.91,12.7-6.94,15.8c-1.03,3.1-1.03,3.1-1.03,3.1l4.33,1.07l-6.88,9.91
			c0,0,2.99,2.31,2.7,4.08c-0.3,1.77,5.61,21.11,17.57,28.94c11.96,7.82,27.31-11.52,28.79-15.5c1.48-3.99,2.66-19.49-0.15-27.76
			s-13.88-21.26-13.88-21.26L486.07,98.76z"/>
		<path class="st8" d="M482.64,170.35l-0.86,8.24c0,0,5.13,3.11,5.13,2.88s9.31-13.29,9.31-13.29l-8.76-3.04L482.64,170.35z"/>
		<path class="st9" d="M481.78,178.6c0,0-15.41,37.03-20.18,54.84c-4.77,17.8-10.7,54.5-9.78,57.8c0.92,3.3,14.03,19.14,14.03,19.14
			s14.58-18.4,15.49-19.68c0.92-1.28-1.76-35.6-1.58-53.58c0.18-17.99,7.14-55.63,7.14-55.63L481.78,178.6z"/>
		<path class="st3" d="M523.74,295.3c0,0,3.95-25.87,4.49-36.03c0.56-10.5,0.64-24.52,0.67-33.44c0.03-10.66,0.17-16.64,0.17-16.64"
			/>
		<polygon class="st3" points="439.9,245.08 439.55,277.74 421.78,278.09 420.37,245.08 		"/>
		<path class="st3" d="M500.5,558.07c0,0,0.8-27.09,0-38.52c-0.8-11.42-5.05-72.52-7.17-87.66c-2.12-15.14-9.83-60.03-9.83-60.03"/>
		<path class="st3" d="M483.3,133.52c-3.48-0.54-8.21-4.02-8.3-4.82c-0.09-0.8,6.88-9.91,6.88-9.91l-4.64-1.07
			c0,0,3.64-12.92,7.16-17.25"/>
		<path class="st3" d="M485.89,119.86c0,0,1.96-1.16,5.8,0.18c3.84,1.34,4.64,2.32,4.64,2.32"/>
		<path class="st3" d="M489.28,119.51c0,0-1.16,2.32,1.96,3.66s3.19-1.52,3.19-1.52"/>
		<path class="st5" d="M480.62,98.7c-0.44,1.45,0.36,4.64,5.9,4.2c5.54-0.45,11.88-4.64,14.73-1.07s-0.46,12.05,1.24,18.48
			s5.92,11.38,0.62,15.24c-2.13,1.56,7.9,1.35,7.9,1.35s1.56-9.09,6.14-9.09c3.13,0,4.85,2.73,5.3,5.59
			c0.45,2.86-2.17,5.39-2.44,5.3s2.4,10.98,6.77,11.43c4.38,0.45,10.27-3.04,8.93-6.96s-4.29-7.59-3.66-13.48
			c0.63-5.89,3.13-14.47-0.63-24.11s-6.88-14.91-13.75-16.79c-6.88-1.88-16.16,0.36-16.16,0.36s-4.38-1.88-9.38-0.18
			C487.14,90.66,482.5,92.45,480.62,98.7z"/>
		<polygon class="st2" points="522.6,148.61 490.53,166.16 498.63,180.68 531.21,160.42 		"/>
		<path class="st2" d="M482.07,160.46c0.08,0.47,5.01,5.3,5.01,5.3s-10.38,8.31-10.38,8.08c0-0.23-0.23-10.65-0.23-10.65
			L482.07,160.46z"/>
		<path class="st5" d="M475.44,133.61c0,0,1.27-2.98,2.72-2.12c0.56,0.33-0.43,0.37,0.57,0.73c0.19,0.07-1.78,2.91,1.3,4.18
			c4,1.64,10.29,2.45,15.38,1.29s15.31-5.5,15.31-5.5s1.88,13.57,0.09,17.59s-10.72,13.82-14.75,15.33
			c-6.36,2.38-11.86,0.39-19.36-2.02s-7.14-10-6.16-15.63C471.51,141.83,475.44,133.61,475.44,133.61z"/>
		<path class="st4" d="M476.4,141.06c0,0,1.94,0.66,5.04,0.6c3.14-0.06,6.3-0.42,6.3-0.42s-1.47,4.66-6.52,4.73
			C477.19,146.02,476.4,141.06,476.4,141.06z"/>
		<path class="st3" d="M517.36,370.75c0,0,1.07-6.67,1.67-9.17"/>
		<path class="st3" d="M523.56,374.08c0,0,1.07-6.67,1.67-9.17"/>
		<path class="st3" d="M529.99,373.49c0,0,1.07-6.67,1.67-9.17"/>
		<path class="st3" d="M520.28,326.84c0,0,4.09,3.33,15.74,6.63"/>
		<path class="st7" d="M439.9,245.08c0,1.07-4.37,1.94-9.77,1.94c-5.39,0-9.77-0.87-9.77-1.94c0-1.07,4.37-2.21,9.77-2.21
			C435.53,242.88,439.9,244.01,439.9,245.08z"/>
		<path class="st7" d="M415.51,252.08c0,0-0.76-3.46,0.76-4.43c1.51-0.97,7.04-0.71,8.75,1.94c0.87,1.35-2.38,3.35-2.38,3.35
			s1.62,1.4,1.51,3.89c-0.11,2.48-2.27,2.81-2.27,2.81s2.59,4.1,2.16,5.83c-0.43,1.73-2.16,1.4-2.16,1.4s1.51,3.56,0.22,4.64
			c-1.3,1.08-3.04-0.68-3.8-2.52c-0.76-1.84-0.13-3.46-0.13-3.46s-1.9-3.09-1.8-4.71c0.11-1.62,0.43-2.38,0.43-2.38L415.51,252.08z"
			/>
		<path class="st3" d="M443.25,243.89c0,0,3.24-2.73,9.47-2.51"/>
		<path class="st3" d="M439.88,270.95c0,0,3.64-0.62,5.95-2.4"/>
		<path class="st3" d="M444.05,274.55c0,0-2.83,0.45-3.69-0.02"/>
		<path class="st3" d="M415.51,252.08c-0.51,0.28,4.96,1.53,7.13,0.86"/>
		<path class="st3" d="M416.87,258.28c-0.51,0.28,3.46,1.57,5.63,0.91"/>
		<path class="st3" d="M418.17,265.55c0,0,2.41,1.35,3.71,1.34"/>
	</g>
</g>
<g id="man1">
	<g>
		<path class="st4" d="M237.24,71.35c0,0,4.74,11.72,4.62,16.46c-0.12,4.74-3.08,19.89-4.62,24.62c-1.54,4.74-3.31,8.88-6.75,11.01
			s-2.72,2.01-2.6,4.85c0.12,2.84-1.54,13.97-1.54,13.97l-9.23,13.38l-24.03-33.5c0,0-0.12-2.49,2.13-3.2
			c2.25-0.71,4.62-2.01,4.62-2.01v-9.71c0,0-5.33-12.31-1.89-14.68c3.43-2.37,5.8-0.59,5.8-0.59S200.3,78.58,208,76.33
			C215.69,74.08,237.24,71.35,237.24,71.35z"/>
		<path class="st2" d="M210.7,553.9l-1.35,14.01c0,0,19.4,1.35,23.99,1.35s8.62,1.89,16.71,2.96c8.09,1.08,36.65-0.27,36.65-0.27
			s-0.54-9.7-3.77-12.13s-25.84-10.29-29.9-11.34S210.7,553.9,210.7,553.9z"/>
		<path class="st5" d="M248.21,270.39c0,0-0.42,5.62,0.83,9.37c1.25,3.75,9.16,27.49,8.75,56.64c-0.42,29.15-4.33,125.46-3.9,141.49
			s-3.03,42.45-5.2,46.35c-2.17,3.9-3.03,6.06-3.03,6.06l7.36,18.19c0,0-9.1,2.17-15.16,4.33s-28.59,3.9-28.59,3.9
			s-3.03-16.89-3.03-25.56c0-8.66,3.03-107.42,2.17-118.25s-6.5-149-6.5-149L248.21,270.39z"/>
		<path class="st10" d="M214.92,539.69c0,0,15.09-4.72,20.57-5.49c6.17-0.86,10.17-3.91,10.17-3.91"/>
		<path class="st10" d="M252.99,554c0,0,2.47-3.5,7.79-2.99"/>
		<path class="st10" d="M258.31,556.34c0,0,2.47-3.5,7.79-2.99"/>
		<path class="st10" d="M264.41,558.03c0,0,2.47-3.5,7.79-2.99"/>
		<path class="st2" d="M181.12,564.08c0,0,2.89,8.69,6.13,13.81c3.23,5.12,5.66,13.48,5.66,15.09s-9.16,4.58-13.21,4.85
			s-17.79-2.7-21.29-7.01c-3.5-4.31-5.12-8.35-6.47-9.43c-1.35-1.08-4.58-5.39-4.58-5.39s0.54-16.17,1.08-17.25
			c0.54-1.08,20.48-4.31,25.6-2.43S181.12,564.08,181.12,564.08z"/>
		<path class="st11" d="M224.87,353.15c-0.43,2.17-12.13,51.98-14.73,66.27c-2.6,14.29-22.96,105.69-22.96,105.69
			s1.3,14.29,0.87,17.76c-0.43,3.47-6.5,8.23-6.5,8.23l-0.43,12.99c0,0-7.8-4.76-15.59-3.9c-7.8,0.87-14.73,6.93-17.76,0.43
			c-3.03-6.5,2.17-19.49,2.17-19.49s1.3-10.4,1.3-16.03c0-5.63,4.33-50.24,4.76-71.47c0.43-21.22,9.53-58.04,10.83-68
			c1.3-9.96-2.17-74.93-2.6-86.19c-0.43-11.26,6.06-30.32,6.06-30.32l46.72-10.94"/>
		<path class="st7" d="M142.54,237.08c0,0,4.43,23.07,3.5,30.53c-0.93,7.46,3.5,30.53,5.36,38.68c1.86,8.16,6.52,30.53,6.76,36.12
			c0.23,5.59,1.17,17.24,1.86,20.51c0.7,3.26,8.39,13.52,10.72,13.98c2.33,0.47,6.99,0.7,9.55-0.23c2.56-0.93,5.13-2.56,5.13-2.56
			s3.5,1.17,4.43,0.7c0.93-0.47-2.1-16.08-2.56-20.27c-0.47-4.19-7.46-14.45-9.32-17.48s-6.52-15.15-6.99-17.71
			c-0.47-2.56-2.78-32.31-3.61-42.72s-1.29-28.82-1.29-28.82L142.54,237.08z"/>
		<path class="st3" d="M185.42,374.1c0,0-2.51-6-3.45-9.72c-0.93-3.72-0.93-6.33-0.93-6.33"/>
		<path class="st10" d="M154.46,553.8c0,0,20.33-3.42,27.1-2.71"/>
		<path class="st10" d="M161.98,546.1c0,0,11.9-6.36,16-16.82"/>
		<path class="st10" d="M163.12,565.16c0,0,8.04-1.43,13.41,0.36"/>
		<path class="st10" d="M164.91,570.53c0,0,8.04-1.43,13.41,0.36"/>
		<path class="st10" d="M166.57,575.78c0,0,8.04-1.43,13.41,0.36"/>
		<path class="st9" d="M190.44,133.55c0,0-30.69,12.92-34.84,17.31c-4.15,4.38-16.61,41.07-20.31,52.84s-8.08,33.69-8.08,33.69
			s13.85,2.77,21.46,6c7.62,3.23,17.77,8.31,17.77,8.31s-2.54,21.46,0.92,24.92s20.08,1.62,31.61-0.92s49.38-3.46,49.38-3.46
			s9.23-5.54,10.85-9c1.62-3.46-0.23-45.69-0.23-45.69l12.69-2.31c0,0-6.23-45.69-11.08-53.54c-4.85-7.85-27-23.54-30.46-24.69
			c-1.36-0.45-7.76,14.81-15.04,14.21C203.82,150.3,190.44,133.55,190.44,133.55z"/>
		<path class="st3" d="M166.44,251.7c0,0,5.08-27.23,4.85-46.15s-3.46-36-3.46-36"/>
		<line class="st3" x1="255.75" y1="171.39" x2="258.98" y2="217.54"/>
		<path class="st3" d="M228.18,108.36c2.49-0.22,4.83-1.7,4.83-1.7l-3.14-11.52c0,0,0.78-6.71,8.45-6.97"/>
		<path class="st3" d="M232.75,114.13l-10.45-1.83c0,0-0.13,5.07,3.57,5.94C229.57,119.12,232.75,114.13,232.75,114.13z"/>
		<line class="st3" x1="199.66" y1="111.09" x2="198.1" y2="127.02"/>
		<path class="st5" d="M197.2,111.99c1.5,0.91,3.44,0.13,3.93-1.56c0.33-1.17,0.54-2.4,0.19-3.02c-0.78-1.38-3.74-2.95-3.21-5.97
			c0.53-3.02,3.06-5.98,4.46-2.32c1.4,3.66,2.07,4.34,3.86,3.17c1.79-1.17-1.76-15.42,1.55-18.43c3.31-3.01,9.33,0.76,12.84,0.89
			c3.51,0.13,7.92,2.81,13.77-3.07c5.85-5.89,5.7-7.29,6.42-11.54c0.73-4.25,0.63-7.72,0.63-7.72s-8.12,1.27-15.99-1.72
			s-23.97-2.93-31.33,5.35c-7.36,8.28-7.75,10.72-6.8,17.87c0.94,7.14,1.21,8.29,1,10.86c-0.21,2.57,1.26,9.5,4.05,12.98
			C194.29,109.9,195.91,111.2,197.2,111.99z"/>
		<path class="st5" d="M239.58,73.46c0,0,3.99,3.47,4.65,11.77c0.66,8.3-3.58,22.06-5.58,18.28c-0.21-0.41,0.69-22.93-1.82-26.57
			C234.31,73.31,239.58,73.46,239.58,73.46z"/>
		<path class="st3" d="M239.11,101.06c0,0.49-2.45,16.63-7.34,21.69c-6.82,7.04-13.45,5.5-16.96,3.26
			c-5.38-3.42-9.62-10.44-9.62-10.44"/>
		<path class="st3" d="M233.32,95.25c0,0,2.54,1.15,5.53,0"/>
		<path class="st3" d="M217.99,95.48c0,0,2.54,1.15,5.53,0"/>
		<polygon class="st12" points="198.82,120.8 194.05,122.39 215.45,150.44 203.45,166.78 184.08,136.85 192.03,120.08 
			199.11,117.05 		"/>
		<path class="st12" d="M215.45,150.44c0.17-0.54,9.89-16.33,9.89-16.33l0.48-7.02l2.02-0.97l4.65,12.77l-2.32,27.77L215.45,150.44z
			"/>
		<polygon class="st13" points="215.51,151.75 210.31,158.88 213.4,165.28 218.32,165.4 221.52,158.19 		"/>
		<path class="st13" d="M218.26,164.09c0,0,1.6,42.05,3.32,60.49s7.94,46.11,7.94,46.11l-8.58,11.58l-12.65-11.8
			c0,0-1.5-27.02-0.86-50.61s5.92-55.89,5.92-55.89L218.26,164.09z"/>
		<path class="st7" d="M251.23,229.86c0,0-5-2.22-6.25-0.14c-1.25,2.08,0,3.75,0.69,4.72c0.69,0.97,4.72,3.19,4.72,3.19
			L251.23,229.86z"/>
		<path class="st7" d="M249.84,213.47c-0.14,0.69-2.22,34.71-2.22,34.71l18.74,3.61l8.61-35.4L249.84,213.47z"/>
		<path class="st7" d="M274.38,232.24c-0.21-1.44-1.38-2.56-2.83-2.7c-2.87-0.28-8.39-0.68-9.16,1.16c-1.2,2.87,1.83,4.21,1.83,4.21
			s-6.82-1-7.05,1.87c-0.2,2.46,1.66,4.34,1.66,4.34s-3.72-0.96-4.35,1.68c-0.5,2.09,0.59,3.39,0.59,3.39s-1.92,1.69-0.99,3.72
			c0.92,2.01,7.53,3.47,11.61,3.8c4.08,0.33,7.35-3.43,8.01-5.39s0.33-5.39,0.33-5.39s1.31-1.47,1.63-4.25c0.33-2.78-1-4.55-1-4.55
			L274.38,232.24z"/>
		<line class="st7" x1="264.22" y1="234.91" x2="270.27" y2="235.72"/>
		<line class="st7" x1="258.83" y1="241.11" x2="268.31" y2="241.77"/>
		<line class="st7" x1="255.24" y1="246.34" x2="267.16" y2="248.14"/>
		<path class="st3" d="M180.56,375.57c0,0-3.66-6.47-4.39-9.64"/>
		<path class="st3" d="M174.21,376.55c0,0-3.66-6.47-4.39-9.64"/>
	</g>
</g>
</svg>
