<?xml version="1.0" encoding="utf-8"?>
<!-- Generator: Adobe Illustrator 23.0.2, SVG Export Plug-In . SVG Version: 6.00 Build 0)  -->
<svg version="1.1" xmlns="http://www.w3.org/2000/svg" xmlns:xlink="http://www.w3.org/1999/xlink" x="0px" y="0px"
	 viewBox="0 0 709.97 653.29" style="enable-background:new 0 0 709.97 653.29;" xml:space="preserve">
<style type="text/css">
	.st0{fill:#FFFFFF;}
	.st1{fill:#FFFFFF;stroke:#031F43;stroke-width:2;stroke-linecap:round;stroke-linejoin:round;stroke-miterlimit:10;}
	.st2{fill:none;stroke:#031F43;stroke-width:2;stroke-linecap:round;stroke-linejoin:round;stroke-miterlimit:10;}
	.st3{fill:#45D62F;stroke:#031F43;stroke-width:2;stroke-linecap:round;stroke-linejoin:round;}
	.st4{fill:none;stroke:#031F43;stroke-width:8;stroke-linecap:round;stroke-linejoin:round;stroke-miterlimit:10;}
	.st5{fill:#031F43;}
	.st6{fill:#347CE1;stroke:#031F43;stroke-width:2;stroke-linecap:round;stroke-linejoin:round;stroke-miterlimit:10;}
	.st7{fill:#A7CCE9;stroke:#031F43;stroke-width:2;stroke-linecap:round;stroke-linejoin:round;stroke-miterlimit:10;}
	.st8{fill:#F3B63F;stroke:#031F43;stroke-width:2;stroke-linecap:round;stroke-linejoin:round;stroke-miterlimit:10;}
	.st9{fill:#F3B63F;}
	.st10{fill:none;stroke:#031F43;stroke-width:2;stroke-linecap:round;stroke-miterlimit:10;}
</style>
<path class="st0" d="M410.2,321.71c0,0-4.99,0.14-6.84,0.29s-12.04,0.22-13.57-0.11s-8.91-3.72-11.35-3.02
	c-2.44,0.7-13.62,3.38-15.09,5.46c-1.47,2.08-2.89,7.07-2.18,9.64c0.71,2.57,2,4.56,3.14,5.84s26.09-6.41,33.21-4.28
	c7.13,2.14,15.68,1,15.68,1l-0.29-11.4L410.2,321.71z"/>
<path class="st0" d="M492.69,197.84c-0.15-0.44,0.63-19.45,0.63-19.45s4.22-6.41,3.64-8.47c-0.59-2.06-2.06-4.85-3.38-6.32
	c-1.32-1.47-3.97-19.99-17.49-18.66c-13.52,1.32-30.86,3.97-30.42,9.11c0.44,5.14-0.37,18.98,1.8,25.21
	c2.17,6.24,4.52,14.91,9.96,18.43c5.44,3.53,8.23,4.26,8.23,4.26l1.32,25.28L492.69,197.84z"/>
<path class="st0" d="M341.07,156.67l7.02-12.91l-70.92-53.26l-12.85,5.37l-19.97,17.11l-6.05,28.9l8.36,0.77c0,0-2.35,4.76-1.7,7.85
	c0.65,3.09,1.46,5.53,1.46,5.53L341.07,156.67z"/>
<g>
	<g>
		<path class="st1" d="M259.43,119.28c0,0-0.22,5.79,1.32,8.19c1.54,2.4,3.67,5.15,5.26,4.4c2.66-1.27,7.4,0.74,6.85,3.36
			c-0.55,2.62-6.16,3.49-6.27,4.37c-0.11,0.87-0.66,2.95,0.22,3.38c0.88,0.44,6.16,2.29,10.24,2.62c4.07,0.33,3.85,6.33,3.85,6.33
			l6.38,0.33c0,0,3.3-14.63,2.42-19.21s-4.51-9.61-9.46-11.9S259.43,119.28,259.43,119.28z"/>
		<path class="st1" d="M185.44,306.92c0,0,7.85,4.01,10.85,4.7c3,0.69,8.89-0.46,11.66,1.6c2.77,2.06,3.69,6.07,3.69,6.07
			s-5.31,5.27-12.81,5.84c-7.5,0.57-20.43,0.8-20.43,0.8l-1.62,1.72l-16.51,0.11l2.19-15.35L185.44,306.92z"/>
		<path class="st1" d="M188.9,308.53c0,0-1.96,1.37-3.23,3.78"/>
		<path class="st1" d="M191.56,309.9c0,0-1.96,1.37-3.23,3.78"/>
		<path class="st1" d="M194.56,311.05c0,0-1.96,1.37-3.23,3.78"/>
		<path class="st1" d="M177.38,179.25c0,0,7.66,52.44,7.66,60.43c0,7.98,0.77,50.16,0.96,56.05c0.19,5.89,2.68,12.54,2.68,12.54
			s-15.9,9.69-17.43,9.88c-1.53,0.19-7.09-2.47-7.09-2.47L177.38,179.25z"/>
		<polygon class="st2" points="343.66,152.98 348.09,143.76 274.08,87.24 244.35,112.97 221.92,157.63 		"/>
		<line class="st1" x1="339.2" y1="152.57" x2="276.26" y2="102.28"/>
		<path class="st1" d="M265.58,117.51c0,0,13.21-5.09,14.59-7.43s6.51-15.06,6.51-16.24s-1.77-2.54-1.77-2.54s-0.59-3.13-1.38-3.52
			c-0.79-0.39-5.13-1.57-5.13-1.57s-2.37-2.15-3.94-1.96c-1.58,0.2-8.28,5.67-8.68,7.24c-0.39,1.57-0.79,10.76-0.99,11.54
			c-0.2,0.78-4.14,2.93-4.14,2.93"/>
		<path class="st1" d="M264.6,120.64c0,0,1.18-5.48-0.99-9s-5.13-7.43-5.13-7.43s-8.09,2.74-9.66,2.54
			c-1.58-0.2-15.78-6.26-21.5-6.26s-34.71,4.7-41.41,6.65c-6.71,1.96-22.09,7.43-27.41,13.11s-14,15.65-14,15.65
			s16.57,3.52,19.92,6.46c3.35,2.93,11.04,12.91,11.83,16.43c0.79,3.52,4.34,10.56,4.34,10.56s4.73,3.13,11.64,3.72
			c6.9,0.59,18.93-5.67,22.68-9.19c3.75-3.52,17.35-11.15,21.89-16.43c4.54-5.28,10.45-13.69,12.03-16.24
			c1.58-2.54,4.34-6.65,4.34-6.65L264.6,120.64z"/>
		<path class="st1" d="M248.82,106.75l4.34,17.8c0.59-0.98-21.69,11.93-27.02,12.33c-5.32,0.39-12.62-7.24-12.82-12.33
			c-0.2-5.09,1.77-11.93,5.72-15.46s9.66-5.67,9.66-5.67"/>
		<line class="st1" x1="278.4" y1="86.21" x2="272.29" y2="91.68"/>
		<line class="st1" x1="282.94" y1="88.55" x2="276.83" y2="94.03"/>
		<line class="st1" x1="285.11" y1="92.86" x2="279" y2="98.34"/>
		<path class="st1" d="M143.55,136.26c-0.41,0.14-4.13,5.87-4.13,5.87s-10.64,8.68-9.46,27.66s8.83,73.32,8.83,78.87
			c0,5.55-3.53,26.58-2.65,40.89s0,59,0,59s14.23,0.57,18.26-0.38c4.02-0.95,14.37-5.7,14.37-5.7l-3.45-12.73l4.02-23.94
			c0,0,2.3-44.08,2.68-45.79c0.38-1.71,1.53-8.17,1.92-13.49c0.38-5.32,3.26-33.25,3.64-47.69c0.38-14.44,3.01-29.47,3.01-29.47
			s1.2-15-5.88-23.74C167.61,136.87,143.55,136.26,143.55,136.26z"/>
		<path class="st1" d="M167.12,340.59c0,0,9.93,10.08,12.01,11.57c2.08,1.49,12.58,2.18,14.89,4.24c2.31,2.06,3.23,5.15,3.23,5.15
			s-3.81,6.87-5.43,7.56c-1.62,0.69-23.67,1.26-27.36,0.11c-3.69-1.15-11.31-4.92-12.81-4.92c-1.5,0-1.85,1.15-1.85,1.15l-12.7-2.63
			c0,0-0.69-14.66,0-17.18C137.79,343.11,167.12,340.59,167.12,340.59z"/>
		<path class="st1" d="M164.46,349.64c0,0,2.77-3.21,5.77-3.89"/>
		<path class="st1" d="M167.92,351.82c0,0,2.77-3.21,5.77-3.89"/>
		<path class="st1" d="M170.35,354.11c0,0,2.77-3.21,5.77-3.89"/>
		<path class="st1" d="M155.59,155.3c0,0,5.61,3.55,5.61,10.2s-2.49,10.97-2.49,10.97"/>
		<path class="st1" d="M139.42,142.13c0,0,21.15,5.6,26.76,9s10.75,9.58,10.75,9.58"/>
		<path class="st2" d="M241.17,142.75l5.5-0.11c0,0-1.87,3.82-1.76,6.22c0.11,2.4,0.38,2.7,0.38,2.7"/>
		<polygon class="st1" points="226.33,155.9 237.79,152.29 343.66,152.98 343.66,351.42 232.73,351.42 216.9,320.85 216.35,169.66 
			213.77,164.94 		"/>
		<polyline class="st1" points="216.35,169.66 239.03,175.49 310.29,175.66 334.44,183.47 334.44,345.35 		"/>
		<polyline class="st1" points="232.73,351.42 232.73,184.27 334.44,183.47 		"/>
		<line class="st1" x1="232.73" y1="184.27" x2="216.66" y2="178.55"/>
		<polygon class="st1" points="309.02,210.24 321.23,191.96 256.21,192.18 249.11,210.68 		"/>
		<polyline class="st1" points="243.51,280.47 243.51,241.29 270.14,241.29 273.92,233.8 312.53,233.8 307.87,241.29 322.52,241.29 
			322.52,278.75 		"/>
		<polyline class="st2" points="247.95,280.16 247.95,259.56 317.85,259.56 317.85,278.75 		"/>
		<polyline class="st2" points="239.94,351.19 239.94,191.57 329.19,191.57 329.19,345.03 		"/>
		<polyline class="st2" points="217.06,280.63 232.94,302.91 239.88,303.46 		"/>
		<polyline class="st2" points="334.06,279.09 233.97,280.85 216.88,263.3 		"/>
		<line class="st2" x1="237.79" y1="152.29" x2="238.69" y2="174.52"/>
	</g>
	<g>
		<path class="st1" d="M339.53,439.21l-17.1,36.27c0,0,9.68,9.27,16.07,8.45c6.39-0.82,15.25-6.8,15.25-6.8l7.21-29.88
			L339.53,439.21z"/>
		<path class="st3" d="M354.57,469.91c0,0,7.42,29.67,6.18,30.7c-1.24,1.03-10.1,2.06-11.54,2.27s-22.67-2.06-25.76-2.27
			s-19.99,1.03-24.73-0.62s-12.98-8.86-14.22-10.72c-1.24-1.85,3.71-4.53,5.98-5.98c2.27-1.44,17.97-4.21,22.09-7.51
			c4.12-3.3,7.58-10.28,8.93-13.83c1.73-4.54,5.45-5.65,6.69-6.06c1.24-0.41,2.06,6.59,2.06,6.59l-4.33,8.04
			c0,0,5.15,3.92,9.89,6.18c4.74,2.27,10.92-0.21,10.92-0.21L354.57,469.91z"/>
		<path class="st4" d="M519.36,531.73c0,0-16.14-135.18-20.22-143.71c-3.46-7.23-33.5-6.59-43.38-4.45S445.4,399.3,443,408.64
			c-2.4,9.35-25.9,112.68-25.9,112.68"/>
		<polygon class="st4" points="429.4,469.95 512.39,478.84 485.07,454.08 		"/>
		<line class="st4" x1="480.23" y1="387.29" x2="486.79" y2="502.36"/>
		<path class="st1" d="M423.79,450.59c0,0,15.89,25.3,16.54,27.92c0.66,2.62,3.79,6.18-1.79,7.16c-5.57,0.98-27.71-8.53-27.71-8.53
			l-6.56-20.49L423.79,450.59z"/>
		<path class="st3" d="M416.74,474.03c0,0,0.33-7.21-2.79-8.36c-3.12-1.15-9.67-3.44-10.33-1.97c-0.66,1.48-1.31,11.8-2.3,13.61
			c-0.98,1.8-20.99,17.54-23.12,18.03c-2.13,0.49-7.71,4.92-7.38,8.36c0.33,3.44,4.92,6.89,13.61,7.38s24.92,0.82,30.66-1.8
			c5.74-2.62,8.69-2.95,11.97-3.61c3.28-0.66,19.51-1.64,22.63-3.77c3.12-2.13,4.1-3.61,4.1-3.61s-4.43-11.31-5.9-15.41
			c-1.48-4.1-6.39-13.12-6.39-13.12s1.64,7.38-1.8,8.03c-3.44,0.66-8.03-4.1-12.79-4.43C422.15,473.05,416.74,474.03,416.74,474.03z
			"/>
		<ellipse class="st5" cx="475.44" cy="384.88" rx="34.04" ry="7.21"/>
		<path class="st6" d="M423.93,343.22c0,0-60.88,8.06-64.21,13.34c-3.34,5.28-12.79,45.87-16.12,54.76s-10.01,24.74-10.01,24.74
			s3.34,7.51,11.4,9.17c8.06,1.67,15.57,6.39,15.57,6.39s21.68-51.15,24.18-56.71c2.5-5.56,50.04-28.91,50.04-28.91L423.93,343.22z"
			/>
		<path class="st6" d="M513.16,379.77c5.2-0.46-39.58,10.04-72.27,14.32c-15.95,2.09-40.58,1.67-41.97,2.5
			c-1.39,0.83-0.83-0.83-1.39,0.83c-0.56,1.67,28.08,54.21,28.08,54.21s-1.95,7.23-8.62,7.78c-6.67,0.56-15.84,1.67-19.18,1.67
			s-11.12-3.06-11.12-3.06s-5.84-15.03-8.07-19.47s-9.72-21.95-15.28-28.89s-11.4-18.07-11.68-23.91s3.61-17.79,15.57-21.4
			c11.95-3.61,81.17-15.84,84.78-16.12C455.62,347.95,513.16,379.77,513.16,379.77z"/>
		<polygon class="st7" points="281.4,479.25 350.84,484.31 383.73,475.6 389.08,477 388.79,487.69 353.09,498.09 281.96,492.18 		
			"/>
		<circle class="st1" cx="288.7" cy="535.32" r="6.55"/>
		<circle class="st1" cx="291.7" cy="535.32" r="6.55"/>
		<circle class="st1" cx="392.75" cy="533.81" r="6.55"/>
		<circle class="st1" cx="395.76" cy="533.81" r="6.55"/>
		<circle class="st1" cx="285.3" cy="501.57" r="6.55"/>
		<circle class="st1" cx="288.31" cy="501.57" r="6.55"/>
		<path class="st2" d="M401.9,476.98c0,0,2.81-0.64,8.29,3.32"/>
		<path class="st2" d="M397.57,481.31c0,0,2.81-0.64,8.29,3.32"/>
		<path class="st2" d="M392.72,485.52c0,0,2.81-0.64,8.29,3.32"/>
		<rect x="346.06" y="367.64" class="st7" width="10.96" height="136.64"/>
		<polygon class="st7" points="276.9,512.99 349.21,502.88 357.03,504.27 397.51,510.46 397.23,525.64 351.12,516.36 277.18,526.76 
					"/>
		<polygon class="st7" points="279.99,360.06 277.1,362.9 277.3,371.84 385.29,371.84 385.29,363.9 378.14,346.82 		"/>
		<path class="st7" d="M376.39,339.83l2.73,19.5l-91.3,1.46l-7.84-0.73l-1.46-20.41l5.65-8.93l4.92-8.2l3.64,3.46
			c0,0,12.94,1.46,13.12,0.91c0.18-0.55,2.37-8.93,2.37-8.93l40.64,12.39l1.46,3.83L376.39,339.83z"/>
		<polygon class="st7" points="350.15,344.57 350.33,334.18 348.87,330.35 308.23,317.96 305.86,326.89 292.74,325.98 
			291.65,332.36 		"/>
		<circle class="st1" cx="305.77" cy="337.73" r="6.1"/>
		<polyline class="st2" points="378.95,359.09 375.66,353.86 278.53,339.65 		"/>
		<polyline class="st2" points="292.74,325.98 281.99,312.86 288.92,304.66 305.6,323.65 		"/>
		<line class="st1" x1="307.32" y1="320.51" x2="301.38" y2="318.86"/>
		<path class="st1" d="M385.45,337.78c-0.35,0-6.46,2.7-5.87,5.4c0.59,2.7,4.7,1.64,7.16,0.7c2.47-0.94,5.87-3.05,5.87-3.05
			L385.45,337.78z"/>
		<path class="st1" d="M413.45,332.21c0,0-10.5-2.16-13.44-2.01c-2.93,0.15-17.3-2.01-19.15-1.7c-1.85,0.31-9.27,0.46-12.05,2.32
			c-2.78,1.85-7.26,8.19-7.41,8.8c-0.15,0.62,0.46,1.7,0.46,1.7s0.46,3.24,1.24,3.71c0.77,0.46,4.79-3.24,7.72-5.1
			c2.93-1.85,9.11-1.54,10.97-1.39c1.85,0.15,10.12,4.64,15.05,4.76s13.39-0.7,15.5-1.17C414.46,341.66,413.45,332.21,413.45,332.21
			z"/>
		<path class="st2" d="M361.87,341.32c0,0,7.14-6.83,11.13-8c3.99-1.17,5.99-1.41,5.99-1.41"/>
		<path class="st2" d="M406.66,321.55c0,0-13.71,1.48-16.87,0.33c-3.16-1.15-9.2-3.45-11.35-3.02c-2.16,0.43-13.94,4.74-15.09,5.46
			c-1.15,0.72-2.3,7.04-2.59,8.77c-0.29,1.72,1.58,3.59,1.58,3.59"/>
		<path class="st2" d="M363.2,335.39c0,0,3.31-8.05,4.74-9.2c1.44-1.15,3.88-1.72,3.88-1.72"/>
		<path class="st1" d="M411.72,320.43l-5.06,1.12c0,0,6.02,7.41,6.33,9.42c0.31,2.01,9.58,0.31,9.58,0.31L411.72,320.43z"/>
		<path class="st1" d="M412.39,328.23c0,0-1.41,2.9-1.72,7.69c-0.31,4.79,0.15,10.5,0.15,10.5s7.26,3.86,9.88,4.17
			c2.63,0.31,1.81-21.22,1.81-21.22L412.39,328.23z"/>
		<path class="st8" d="M446.79,308.89l-35.07,11.54c0,0,7.24,8.37,7.69,11.54s10.86,4.07,16.97,1.58
			c6.11-2.49,16.06-6.34,16.06-6.34L446.79,308.89z"/>
		<path class="st9" d="M465.57,229.25c0,0-4.07,4.98-5.2,14.25c-1.13,9.28-7.92,22.17-10.18,32.81
			c-2.26,10.63-5.66,29.87-6.11,38.24s-1.58,32.58-1.58,32.58s14.48,11.54,21.04,18.1c6.56,6.56,12.22,11.99,23.53,15.61
			c11.31,3.62,19.01,5.88,27.6,3.39c8.6-2.49,16.97-9.96,16.97-9.96s-2.04-45.7-3.85-62.9c-1.81-17.2-2.26-56.56-4.98-67.88
			c-2.72-11.31-9.96-26.02-15.16-31.68c-5.2-5.66-6.11-5.88-8.82-6.56C496.12,204.58,465.57,229.25,465.57,229.25z"/>
		<circle class="st2" cx="454" cy="169.14" r="6.96"/>
		<circle class="st2" cx="475.13" cy="169.14" r="6.96"/>
		<line class="st2" x1="461.04" y1="167.71" x2="468.17" y2="167.71"/>
		<path class="st2" d="M482,166.87c0.08-0.25,8.42-4.63,8.42-4.63"/>
		<circle class="st2" cx="455.86" cy="167.83" r="1.05"/>
		<circle class="st2" cx="476.19" cy="167.83" r="1.05"/>
		<path class="st2" d="M462.05,178.06c0,0,2.95,1.18,5.14,0.25"/>
		<path class="st2" d="M461.98,188.12l11.4-5.09c0,0,0.52,4.65-2.54,6.62C465.44,193.11,461.98,188.12,461.98,188.12z"/>
		<path class="st2" d="M451.77,160.13c0,0,4.21-1.94,6.48-0.84"/>
		<path class="st2" d="M470.63,157.52c0,0,4.21-1.94,6.48-0.84"/>
		<path class="st2" d="M489.15,178.9c0,0-5.08,21.32-18.28,23.15c-8.9,1.23-19.49-6.13-24.18-25.74
			c-3.86-16.15,0.31-27.77,16.36-29.8c16.04-2.03,25.79,6.4,27.01,11.88c1.22,5.48,0.23,8.03,0.23,8.03s2.52-1.63,5.46,1.31
			s-2.44,10.66-2.44,10.66l-0.51,15.64"/>
		<line class="st2" x1="465.8" y1="202.24" x2="466.61" y2="223.88"/>
		<path class="st5" d="M493.37,168.15c-2.84,0.5-5.59-1.28-6.28-4.08c-0.66-2.67-1.5-5.8-2.28-7.74c-1.58-3.94-5.21-4.26-15.62-3.16
			c-10.41,1.1-19.98,0.49-21.84,6.73c-0.8,2.68,0.11,19.37,0.11,19.37s-3.28-7.4-4.7-14.66s-0.1-9.83-0.1-13.32
			c0-0.29-2.49-2.18-3.85-6.13c-1.49-4.35-1.86-10.8-1.86-10.8s7.32,4.62,18.04,1.78c1.33-0.35,2.98-0.81,4.84-1.26
			c9.27-2.23,23.96-4.28,32.23,7.41c8.68,12.26,3.69,25.44,3.69,25.44L493.37,168.15z"/>
		<path class="st1" d="M495.42,198.96c0-0.48-1.12-5.77-1.12-5.77l-32.54,33.5c0,0,7.37,14.91,7.21,14.43
			C468.82,240.64,495.42,198.96,495.42,198.96z"/>
		<path class="st8" d="M495.42,198.96l6.25,8.01c0,0-8.17,6.09-15.55,17.15c-7.37,11.06-18.91,31.1-21.32,38.15
			s-4.01,11.54-4.01,11.54s5.93-26.61,9.78-39.27C474.43,221.89,495.42,198.96,495.42,198.96z"/>
		<path class="st8" d="M514.55,274.81c0,0-2.4,3.59-4.96,10.78c-2.57,7.19-27.54,55.26-31.48,57.65s-57.48,10.95-57.48,10.95
			s-3.42-7.36-4.28-13.34s1.88-12.49,1.88-12.49s34.44-6.12,38.06-9.06c3.62-2.94,8.37-6.34,8.6-7.69
			c0.23-1.36,4.53-19.01,5.43-25.79c0.91-6.79,3.62-20.59,5.2-26.92c1.58-6.34,7.01-14.71,8.15-16.29"/>
	</g>
	<path class="st10" d="M397.53,397.43c0,0-6.73-3.41-7.5-7.86"/>
</g>
</svg>
